<svg viewBox="0 0 10000 10000" xmlns="http://www.w3.org/2000/svg">
<path d="M0,0 l10000,0 l0,10000 l-10000,0 z" fill="white"/>
<path d="M4270,1363 l889,0 l0,1566 l-889,0 z" fill="#9900ff" stroke="black" stroke-width="5"/>
<path d="M674,2354 l1062,0 l0,1425 l-1062,0 z" fill="#a500ff" stroke="black" stroke-width="5"/>
<path d="M3342,9712 l2538,0 l0,262 l-2538,0 z" fill="#ff00fe" stroke="black" stroke-width="5"/>
<path d="M2132,4980 l1549,0 l0,1181 l-1549,0 z" fill="#f600ff" stroke="black" stroke-width="5"/>
<path d="M0,5149 l677,0 l0,605 l-677,0 z" fill="#fe00ff" stroke="black" stroke-width="5"/>
<path d="M6568,583 l1732,0 l0,468 l-1732,0 z" fill="#e400ff" stroke="black" stroke-width="5"/>
<path d="M9686,5131 l310,0 l0,649 l-310,0 z" fill="#fe00ff" stroke="black" stroke-width="5"/>
<path d="M8638,9348 l327,0 l0,395 l-327,0 z" fill="#ff00fe" stroke="black" stroke-width="5"/>
<path d="M1839,2637 l561,0 l0,1463 l-561,0 z" fill="#fe00ff" stroke="black" stroke-width="5"/>
<path d="M2241,551 l550,0 l0,2086 l-550,0 z" fill="#ca00ff" stroke="black" stroke-width="5"/>
<path d="M2132,6161 l1905,0 l0,635 l-1905,0 z" fill="#fc00ff" stroke="black" stroke-width="5"/>
<path d="M6555,1893 l552,0 l0,248 l-552,0 z" fill="#ff00fe" stroke="black" stroke-width="5"/>
<path d="M576,5755 l1127,0 l0,859 l-1127,0 z" fill="#fe00ff" stroke="black" stroke-width="5"/>
<path d="M7502,1891 l872,0 l0,979 l-872,0 z" fill="#ff00fe" stroke="black" stroke-width="5"/>
<path d="M8483,8517 l213,0 l0,289 l-213,0 z" fill="#ff00fe" stroke="black" stroke-width="5"/>
<path d="M8965,8343 l651,0 l0,1369 l-651,0 z" fill="#ff00fe" stroke="black" stroke-width="5"/>
<path d="M0,8476 l1054,0 l0,982 l-1054,0 z" fill="#ff00fe" stroke="black" stroke-width="5"/>
<path d="M4843,4396 l208,0 l0,1876 l-208,0 z" fill="#ff00fe" stroke="black" stroke-width="5"/>
<path d="M5159,1051 l449,0 l0,2688 l-449,0 z" fill="#a900ff" stroke="black" stroke-width="5"/>
<path d="M6652,8553 l777,0 l0,1357 l-777,0 z" fill="#ff00fe" stroke="black" stroke-width="5"/>
<path d="M5086,6702 l289,0 l0,626 l-289,0 z" fill="#ff00fe" stroke="black" stroke-width="5"/>
<path d="M4847,1053 l312,0 l0,310 l-312,0 z" fill="#fd00ff" stroke="black" stroke-width="5"/>
<path d="M3646,3741 l1962,0 l0,625 l-1962,0 z" fill="#9a00ff" stroke="black" stroke-width="5"/>
<path d="M3599,0 l1248,0 l0,1362 l-1248,0 z" fill="#8600ff" stroke="black" stroke-width="5"/>
<path d="M3601,1362 l669,0 l0,1567 l-669,0 z" fill="#2400ff" stroke="black" stroke-width="5"/>
<path d="M674,1012 l1567,0 l0,1342 l-1567,0 z" fill="#fb00ff" stroke="black" stroke-width="5"/>
<path d="M2400,2637 l293,0 l0,2343 l-293,0 z" fill="#fe00ff" stroke="black" stroke-width="5"/>
<path d="M5553,8838 l1091,0 l0,775 l-1091,0 z" fill="#ff00fe" stroke="black" stroke-width="5"/>
<path d="M6054,1631 l2454,0 l0,249 l-2454,0 z" fill="#ff00fe" stroke="black" stroke-width="5"/>
<path d="M4069,8751 l892,0 l0,520 l-892,0 z" fill="#ff00fe" stroke="black" stroke-width="5"/>
<path d="M3801,7916 l1305,0 l0,805 l-1305,0 z" fill="#ff00fe" stroke="black" stroke-width="5"/>
<path d="M8301,62 l907,0 l0,963 l-907,0 z" fill="#ff00fe" stroke="black" stroke-width="5"/>
<path d="M5566,4997 l1108,0 l0,1291 l-1108,0 z" fill="#ff00fe" stroke="black" stroke-width="5"/>
<path d="M6234,7454 l780,0 l0,812 l-780,0 z" fill="#ff00fe" stroke="black" stroke-width="5"/>
<path d="M577,6624 l1554,0 l0,387 l-1554,0 z" fill="#fd00ff" stroke="black" stroke-width="5"/>
<path d="M116,9497 l1316,0 l0,503 l-1316,0 z" fill="#ff00fe" stroke="black" stroke-width="5"/>
<path d="M0,550 l2241,0 l0,462 l-2241,0 z" fill="#fe00ff" stroke="black" stroke-width="5"/>
<path d="M7321,2045 l139,0 l0,239 l-139,0 z" fill="#ff00fe" stroke="black" stroke-width="5"/>
<path d="M7540,7674 l670,0 l0,806 l-670,0 z" fill="#ff00fe" stroke="black" stroke-width="5"/>
<path d="M4041,6355 l4717,0 l0,283 l-4717,0 z" fill="#ff00fe" stroke="black" stroke-width="5"/>
<path d="M4847,408 l1720,0 l0,643 l-1720,0 z" fill="#c000ff" stroke="black" stroke-width="5"/>
<path d="M3682,4366 l1161,0 l0,1795 l-1161,0 z" fill="#fe00ff" stroke="black" stroke-width="5"/>
<path d="M1190,8467 l479,0 l0,551 l-479,0 z" fill="#ff00fe" stroke="black" stroke-width="5"/>
<path d="M259,0 l2532,0 l0,550 l-2532,0 z" fill="#f100ff" stroke="black" stroke-width="5"/>
<path d="M5429,6959 l805,0 l0,1068 l-805,0 z" fill="#ff00fe" stroke="black" stroke-width="5"/>
<path d="M2256,7362 l880,0 l0,177 l-880,0 z" fill="#ff00fe" stroke="black" stroke-width="5"/>
<path d="M9679,2541 l321,0 l0,2590 l-321,0 z" fill="#ff00fe" stroke="black" stroke-width="5"/>
<path d="M2131,6797 l2125,0 l0,565 l-2125,0 z" fill="#fd00ff" stroke="black" stroke-width="5"/>
<path d="M2128,7539 l764,0 l0,2461 l-764,0 z" fill="#fb00ff" stroke="black" stroke-width="5"/>
<path d="M5805,4391 l2158,0 l0,320 l-2158,0 z" fill="#ff00fe" stroke="black" stroke-width="5"/>
<path d="M2892,9086 l322,0 l0,724 l-322,0 z" fill="#ff00fe" stroke="black" stroke-width="5"/>
<path d="M9616,8311 l384,0 l0,1685 l-384,0 z" fill="#ff00fe" stroke="black" stroke-width="5"/>
<path d="M4261,6744 l825,0 l0,1130 l-825,0 z" fill="#ff00fe" stroke="black" stroke-width="5"/>
<path d="M6567,0 l1734,0 l0,583 l-1734,0 z" fill="#d400ff" stroke="black" stroke-width="5"/>
<path d="M4847,0 l1720,0 l0,408 l-1720,0 z" fill="#ef00ff" stroke="black" stroke-width="5"/>
<path d="M5608,1051 l1941,0 l0,580 l-1941,0 z" fill="#9a00ff" stroke="black" stroke-width="5"/>
<path d="M2791,0 l808,0 l0,1969 l-808,0 z" fill="#8d00ff" stroke="black" stroke-width="5"/>
<path d="M7820,7081 l628,0 l0,583 l-628,0 z" fill="#ff00fe" stroke="black" stroke-width="5"/>
<path d="M2791,1969 l810,0 l0,968 l-810,0 z" fill="#f000ff" stroke="black" stroke-width="5"/>
<path d="M6764,3217 l964,0 l0,418 l-964,0 z" fill="#ff00fe" stroke="black" stroke-width="5"/>
<path d="M7147,5427 l654,0 l0,618 l-654,0 z" fill="#ff00fe" stroke="black" stroke-width="5"/>
<path d="M5313,8134 l875,0 l0,654 l-875,0 z" fill="#ff00fe" stroke="black" stroke-width="5"/>
<path d="M0,0 l259,0 l0,447 l-259,0 z" fill="#fe00ff" stroke="black" stroke-width="5"/>
<path d="M6542,3703 l1343,0 l0,681 l-1343,0 z" fill="#ff00fe" stroke="black" stroke-width="5"/>
<path d="M2693,2937 l953,0 l0,2043 l-953,0 z" fill="#e200ff" stroke="black" stroke-width="5"/>
<path d="M6265,6724 l813,0 l0,690 l-813,0 z" fill="#ff00fe" stroke="black" stroke-width="5"/>
<path d="M9679,97 l321,0 l0,2202 l-321,0 z" fill="#fe00ff" stroke="black" stroke-width="5"/>
<path d="M6448,2156 l873,0 l0,1040 l-873,0 z" fill="#fe00ff" stroke="black" stroke-width="5"/>
<path d="M1783,8440 l313,0 l0,1481 l-313,0 z" fill="#ff00fe" stroke="black" stroke-width="5"/>
<path d="M3646,3305 l1513,0 l0,436 l-1513,0 z" fill="#1000ff" stroke="black" stroke-width="5"/>
<path d="M7549,1051 l1660,0 l0,580 l-1660,0 z" fill="#fd00ff" stroke="black" stroke-width="5"/>
<path d="M0,5757 l576,0 l0,2718 l-576,0 z" fill="#fc00ff" stroke="black" stroke-width="5"/>
<path d="M3215,7455 l307,0 l0,2257 l-307,0 z" fill="#ff00fe" stroke="black" stroke-width="5"/>
<path d="M0,1013 l674,0 l0,4136 l-674,0 z" fill="#e700ff" stroke="black" stroke-width="5"/>
<path d="M576,7011 l1552,0 l0,1428 l-1552,0 z" fill="#ee00ff" stroke="black" stroke-width="5"/>
<path d="M3522,9285 l1740,0 l0,387 l-1740,0 z" fill="#ff00fe" stroke="black" stroke-width="5"/>
<path d="M8487,9762 l1017,0 l0,233 l-1017,0 z" fill="#ff00fe" stroke="black" stroke-width="5"/>
<path d="M1703,4100 l428,0 l0,2522 l-428,0 z" fill="#fe00ff" stroke="black" stroke-width="5"/>
<path d="M9209,4 l470,0 l0,8307 l-470,0 z" fill="#fe00ff" stroke="black" stroke-width="5"/>
<path d="M1736,2517 l102,0 l0,1440 l-102,0 z" fill="#ff00fe" stroke="black" stroke-width="5"/>
<path d="M1439,3779 l263,0 l0,1976 l-263,0 z" fill="#ff00fe" stroke="black" stroke-width="5"/>
<path d="M5983,1975 l464,0 l0,2024 l-464,0 z" fill="#ff00fe" stroke="black" stroke-width="5"/>
<path d="M677,3782 l762,0 l0,1973 l-762,0 z" fill="#fe00ff" stroke="black" stroke-width="5"/>
<path d="M5608,1636 l375,0 l0,2730 l-375,0 z" fill="#d200ff" stroke="black" stroke-width="5"/>
<path d="M3646,2929 l1513,0 l0,376 l-1513,0 z" fill="#fa00ff" stroke="black" stroke-width="5"/>
<path d="M5052,4366 l753,0 l0,631 l-753,0 z" fill="#1c00ff" stroke="black" stroke-width="5"/>
<path d="M4885,1432 l60,0 l0,60 l-60,0 z" fill="green"/>
<path d="M4915,1462 l-200.5,684" stroke="black" stroke-width="5"/>
<path d="M701,2976 l60,0 l0,60 l-60,0 z" fill="green"/>
<path d="M731,3006 l474,60.5" stroke="black" stroke-width="5"/>
<path d="M3376,9745 l60,0 l0,60 l-60,0 z" fill="green"/>
<path d="M3406,9775 l1205,68" stroke="black" stroke-width="5"/>
<path d="M3324,5739 l60,0 l0,60 l-60,0 z" fill="green"/>
<path d="M3354,5769 l-447.5,-198.5" stroke="black" stroke-width="5"/>
<path d="M334,5482 l60,0 l0,60 l-60,0 z" fill="green"/>
<path d="M364,5512 l-25.5,-60.5" stroke="black" stroke-width="5"/>
<path d="M6549,572 l60,0 l0,60 l-60,0 z" fill="green"/>
<path d="M6579,602 l855,215" stroke="black" stroke-width="5"/>
<path d="M9911,5321 l60,0 l0,60 l-60,0 z" fill="green"/>
<path d="M9941,5351 l-100,104.5" stroke="black" stroke-width="5"/>
<path d="M8934,9569 l60,0 l0,60 l-60,0 z" fill="green"/>
<path d="M8964,9599 l-162.5,-53.5" stroke="black" stroke-width="5"/>
<path d="M1809,2999 l60,0 l0,60 l-60,0 z" fill="green"/>
<path d="M1839,3029 l280.5,339.5" stroke="black" stroke-width="5"/>
<path d="M2591,521 l60,0 l0,60 l-60,0 z" fill="green"/>
<path d="M2621,551 l-105,1043" stroke="black" stroke-width="5"/>
<path d="M3076,6218 l60,0 l0,60 l-60,0 z" fill="green"/>
<path d="M3106,6248 l-21.5,230.5" stroke="black" stroke-width="5"/>
<path d="M6867,2050 l60,0 l0,60 l-60,0 z" fill="green"/>
<path d="M6897,2080 l-66,-63" stroke="black" stroke-width="5"/>
<path d="M1366,6018 l60,0 l0,60 l-60,0 z" fill="green"/>
<path d="M1396,6048 l-256.5,136.5" stroke="black" stroke-width="5"/>
<path d="M7489,1898 l60,0 l0,60 l-60,0 z" fill="green"/>
<path d="M7519,1928 l419,452.5" stroke="black" stroke-width="5"/>
<path d="M8461,8542 l60,0 l0,60 l-60,0 z" fill="green"/>
<path d="M8491,8572 l98.5,89.5" stroke="black" stroke-width="5"/>
<path d="M9585,9616 l60,0 l0,60 l-60,0 z" fill="green"/>
<path d="M9615,9646 l-324.5,-618.5" stroke="black" stroke-width="5"/>
<path d="M704,8449 l60,0 l0,60 l-60,0 z" fill="green"/>
<path d="M734,8479 l-207,488" stroke="black" stroke-width="5"/>
<path d="M5019,4366 l60,0 l0,60 l-60,0 z" fill="green"/>
<path d="M5049,4396 l-102,938" stroke="black" stroke-width="5"/>
<path d="M5307,3708 l60,0 l0,60 l-60,0 z" fill="green"/>
<path d="M5337,3738 l46.5,-1343" stroke="black" stroke-width="5"/>
<path d="M6980,8545 l60,0 l0,60 l-60,0 z" fill="green"/>
<path d="M7010,8575 l30.5,656.5" stroke="black" stroke-width="5"/>
<path d="M5071,6724 l60,0 l0,60 l-60,0 z" fill="green"/>
<path d="M5101,6754 l129.5,261" stroke="black" stroke-width="5"/>
<path d="M4978,1184 l60,0 l0,60 l-60,0 z" fill="green"/>
<path d="M5008,1214 l-5,-6" stroke="black" stroke-width="5"/>
<path d="M5439,3921 l60,0 l0,60 l-60,0 z" fill="green"/>
<path d="M5469,3951 l-842,102.5" stroke="black" stroke-width="5"/>
<path d="M3581,1070 l60,0 l0,60 l-60,0 z" fill="green"/>
<path d="M3611,1100 l612,-419" stroke="black" stroke-width="5"/>
<path d="M3844,1707 l60,0 l0,60 l-60,0 z" fill="green"/>
<path d="M3874,1737 l61.5,408.5" stroke="black" stroke-width="5"/>
<path d="M1240,2323 l60,0 l0,60 l-60,0 z" fill="green"/>
<path d="M1270,2353 l187.5,-670" stroke="black" stroke-width="5"/>
<path d="M2662,2607 l60,0 l0,60 l-60,0 z" fill="green"/>
<path d="M2692,2637 l-145.5,1171.5" stroke="black" stroke-width="5"/>
<path d="M5681,9541 l60,0 l0,60 l-60,0 z" fill="green"/>
<path d="M5711,9571 l387.5,-345.5" stroke="black" stroke-width="5"/>
<path d="M6024,1601 l60,0 l0,60 l-60,0 z" fill="green"/>
<path d="M6054,1631 l1227,124.5" stroke="black" stroke-width="5"/>
<path d="M4388,9074 l60,0 l0,60 l-60,0 z" fill="green"/>
<path d="M4418,9104 l97,-93" stroke="black" stroke-width="5"/>
<path d="M4445,8496 l60,0 l0,60 l-60,0 z" fill="green"/>
<path d="M4475,8526 l-21.5,-207.5" stroke="black" stroke-width="5"/>
<path d="M8271,76 l60,0 l0,60 l-60,0 z" fill="green"/>
<path d="M8301,106 l453.5,437.5" stroke="black" stroke-width="5"/>
<path d="M5596,4967 l60,0 l0,60 l-60,0 z" fill="green"/>
<path d="M5626,4997 l494,645.5" stroke="black" stroke-width="5"/>
<path d="M6231,7981 l60,0 l0,60 l-60,0 z" fill="green"/>
<path d="M6261,8011 l363,-151" stroke="black" stroke-width="5"/>
<path d="M571,6942 l60,0 l0,60 l-60,0 z" fill="green"/>
<path d="M601,6972 l753,-154.5" stroke="black" stroke-width="5"/>
<path d="M174,9467 l60,0 l0,60 l-60,0 z" fill="green"/>
<path d="M204,9497 l570,251.5" stroke="black" stroke-width="5"/>
<path d="M2210,703 l60,0 l0,60 l-60,0 z" fill="green"/>
<path d="M2240,733 l-1119.5,48" stroke="black" stroke-width="5"/>
<path d="M7310,2164 l60,0 l0,60 l-60,0 z" fill="green"/>
<path d="M7340,2194 l50.5,-29.5" stroke="black" stroke-width="5"/>
<path d="M8154,8255 l60,0 l0,60 l-60,0 z" fill="green"/>
<path d="M8184,8285 l-309,-208" stroke="black" stroke-width="5"/>
<path d="M4011,6499 l60,0 l0,60 l-60,0 z" fill="green"/>
<path d="M4041,6529 l2358.5,-32.5" stroke="black" stroke-width="5"/>
<path d="M5812,501 l60,0 l0,60 l-60,0 z" fill="green"/>
<path d="M5842,531 l-135,198.5" stroke="black" stroke-width="5"/>
<path d="M3652,5731 l60,0 l0,60 l-60,0 z" fill="green"/>
<path d="M3682,5761 l580.5,-497.5" stroke="black" stroke-width="5"/>
<path d="M1232,8574 l60,0 l0,60 l-60,0 z" fill="green"/>
<path d="M1262,8604 l167.5,138.5" stroke="black" stroke-width="5"/>
<path d="M2682,390 l60,0 l0,60 l-60,0 z" fill="green"/>
<path d="M2712,420 l-1187,-145" stroke="black" stroke-width="5"/>
<path d="M5577,7965 l60,0 l0,60 l-60,0 z" fill="green"/>
<path d="M5607,7995 l224.5,-502" stroke="black" stroke-width="5"/>
<path d="M2837,7332 l60,0 l0,60 l-60,0 z" fill="green"/>
<path d="M2867,7362 l-171,88.5" stroke="black" stroke-width="5"/>
<path d="M9752,2547 l60,0 l0,60 l-60,0 z" fill="green"/>
<path d="M9782,2577 l57.5,1259" stroke="black" stroke-width="5"/>
<path d="M2367,7199 l60,0 l0,60 l-60,0 z" fill="green"/>
<path d="M2397,7229 l796.5,-149.5" stroke="black" stroke-width="5"/>
<path d="M2442,8500 l60,0 l0,60 l-60,0 z" fill="green"/>
<path d="M2472,8530 l38,239.5" stroke="black" stroke-width="5"/>
<path d="M5775,4367 l60,0 l0,60 l-60,0 z" fill="green"/>
<path d="M5805,4397 l1079,154" stroke="black" stroke-width="5"/>
<path d="M2862,9545 l60,0 l0,60 l-60,0 z" fill="green"/>
<path d="M2892,9575 l161,-127" stroke="black" stroke-width="5"/>
<path d="M9680,9813 l60,0 l0,60 l-60,0 z" fill="green"/>
<path d="M9710,9843 l98,-689.5" stroke="black" stroke-width="5"/>
<path d="M4231,7197 l60,0 l0,60 l-60,0 z" fill="green"/>
<path d="M4261,7227 l412.5,82" stroke="black" stroke-width="5"/>
<path d="M6776,124 l60,0 l0,60 l-60,0 z" fill="green"/>
<path d="M6806,154 l628,137.5" stroke="black" stroke-width="5"/>
<path d="M6306,337 l60,0 l0,60 l-60,0 z" fill="green"/>
<path d="M6336,367 l-629,-163" stroke="black" stroke-width="5"/>
<path d="M5608,1177 l60,0 l0,60 l-60,0 z" fill="green"/>
<path d="M5638,1207 l940.5,134" stroke="black" stroke-width="5"/>
<path d="M3478,1314 l60,0 l0,60 l-60,0 z" fill="green"/>
<path d="M3508,1344 l-313,-359.5" stroke="black" stroke-width="5"/>
<path d="M8202,7541 l60,0 l0,60 l-60,0 z" fill="green"/>
<path d="M8232,7571 l-98,-198.5" stroke="black" stroke-width="5"/>
<path d="M3495,2420 l60,0 l0,60 l-60,0 z" fill="green"/>
<path d="M3525,2450 l-329,3" stroke="black" stroke-width="5"/>
<path d="M6737,3278 l60,0 l0,60 l-60,0 z" fill="green"/>
<path d="M6767,3308 l479,118" stroke="black" stroke-width="5"/>
<path d="M7750,5959 l60,0 l0,60 l-60,0 z" fill="green"/>
<path d="M7780,5989 l-306,-253" stroke="black" stroke-width="5"/>
<path d="M5785,8550 l60,0 l0,60 l-60,0 z" fill="green"/>
<path d="M5815,8580 l-64.5,-119" stroke="black" stroke-width="5"/>
<path d="M228,102 l60,0 l0,60 l-60,0 z" fill="green"/>
<path d="M258,132 l-128.5,91.5" stroke="black" stroke-width="5"/>
<path d="M6619,3812 l60,0 l0,60 l-60,0 z" fill="green"/>
<path d="M6649,3842 l564.5,201.5" stroke="black" stroke-width="5"/>
<path d="M2862,2907 l60,0 l0,60 l-60,0 z" fill="green"/>
<path d="M2892,2937 l277.5,1021.5" stroke="black" stroke-width="5"/>
<path d="M6647,7357 l60,0 l0,60 l-60,0 z" fill="green"/>
<path d="M6677,7387 l-5.5,-318" stroke="black" stroke-width="5"/>
<path d="M9889,408 l60,0 l0,60 l-60,0 z" fill="green"/>
<path d="M9919,438 l-79.5,760" stroke="black" stroke-width="5"/>
<path d="M6419,2132 l60,0 l0,60 l-60,0 z" fill="green"/>
<path d="M6449,2162 l435.5,514" stroke="black" stroke-width="5"/>
<path d="M2065,8410 l60,0 l0,60 l-60,0 z" fill="green"/>
<path d="M2095,8440 l-155.5,740.5" stroke="black" stroke-width="5"/>
<path d="M5128,3292 l60,0 l0,60 l-60,0 z" fill="green"/>
<path d="M5158,3322 l-755.5,201" stroke="black" stroke-width="5"/>
<path d="M7520,1245 l60,0 l0,60 l-60,0 z" fill="green"/>
<path d="M7550,1275 l829,66" stroke="black" stroke-width="5"/>
<path d="M223,6733 l60,0 l0,60 l-60,0 z" fill="green"/>
<path d="M253,6763 l35,353" stroke="black" stroke-width="5"/>
<path d="M3300,9681 l60,0 l0,60 l-60,0 z" fill="green"/>
<path d="M3330,9711 l38.5,-1127.5" stroke="black" stroke-width="5"/>
<path d="M542,2967 l60,0 l0,60 l-60,0 z" fill="green"/>
<path d="M572,2997 l-235,84" stroke="black" stroke-width="5"/>
<path d="M706,8016 l60,0 l0,60 l-60,0 z" fill="green"/>
<path d="M736,8046 l616,-321" stroke="black" stroke-width="5"/>
<path d="M3492,9500 l60,0 l0,60 l-60,0 z" fill="green"/>
<path d="M3522,9530 l870,-51.5" stroke="black" stroke-width="5"/>
<path d="M9098,9960 l60,0 l0,60 l-60,0 z" fill="green"/>
<path d="M9128,9990 l-132.5,-111.5" stroke="black" stroke-width="5"/>
<path d="M2075,6591 l60,0 l0,60 l-60,0 z" fill="green"/>
<path d="M2105,6621 l-188,-1260" stroke="black" stroke-width="5"/>
<path d="M9613,16 l60,0 l0,60 l-60,0 z" fill="green"/>
<path d="M9643,46 l-199,4111.5" stroke="black" stroke-width="5"/>
<path d="M1706,2963 l60,0 l0,60 l-60,0 z" fill="green"/>
<path d="M1736,2993 l51,244" stroke="black" stroke-width="5"/>
<path d="M1671,5351 l60,0 l0,60 l-60,0 z" fill="green"/>
<path d="M1701,5381 l-130.5,-614" stroke="black" stroke-width="5"/>
<path d="M5953,2528 l60,0 l0,60 l-60,0 z" fill="green"/>
<path d="M5983,2558 l232,429" stroke="black" stroke-width="5"/>
<path d="M833,3752 l60,0 l0,60 l-60,0 z" fill="green"/>
<path d="M863,3782 l195,986.5" stroke="black" stroke-width="5"/>
<path d="M5643,4321 l60,0 l0,60 l-60,0 z" fill="green"/>
<path d="M5673,4351 l122.5,-1350" stroke="black" stroke-width="5"/>
<path d="M4355,3274 l60,0 l0,60 l-60,0 z" fill="green"/>
<path d="M4385,3304 l17.5,-187" stroke="black" stroke-width="5"/>
<path d="M5624,4337 l60,0 l0,60 l-60,0 z" fill="green"/>
<path d="M5654,4367 l-225.5,314.5" stroke="black" stroke-width="5"/>
<text font-size="152.49857033260466" text-anchor="middle" x="4714.5" y="2199.3744996164114">
0
</text>
<text font-size="152.49857033260466" text-anchor="middle" x="1205" y="3119.8744996164114">
1
</text>
<text font-size="152.49857033260466" text-anchor="middle" x="4611" y="9896.374499616411">
2
</text>
<text font-size="152.49857033260466" text-anchor="middle" x="2906.5" y="5623.874499616411">
3
</text>
<text font-size="152.49857033260466" text-anchor="middle" x="338.5" y="5504.874499616411">
4
</text>
<text font-size="152.49857033260466" text-anchor="middle" x="7434" y="870.3744996164116">
5
</text>
<text font-size="152.49857033260466" text-anchor="middle" x="9841" y="5508.874499616411">
6
</text>
<text font-size="152.49857033260466" text-anchor="middle" x="8801.5" y="9598.874499616411">
7
</text>
<text font-size="152.49857033260466" text-anchor="middle" x="2119.5" y="3421.8744996164114">
8
</text>
<text font-size="152.49857033260466" text-anchor="middle" x="2516" y="1647.3744996164116">
9
</text>
<text font-size="152.49857033260466" text-anchor="middle" x="3084.5" y="6531.874499616411">
10
</text>
<text font-size="152.49857033260466" text-anchor="middle" x="6831" y="2070.3744996164114">
11
</text>
<text font-size="152.49857033260466" text-anchor="middle" x="1139.5" y="6237.874499616411">
12
</text>
<text font-size="152.49857033260466" text-anchor="middle" x="7938" y="2433.8744996164114">
13
</text>
<text font-size="152.49857033260466" text-anchor="middle" x="8589.5" y="8714.874499616411">
14
</text>
<text font-size="152.49857033260466" text-anchor="middle" x="9290.5" y="9080.874499616411">
15
</text>
<text font-size="152.49857033260466" text-anchor="middle" x="527" y="9020.374499616411">
16
</text>
<text font-size="152.49857033260466" text-anchor="middle" x="4947" y="5387.374499616411">
17
</text>
<text font-size="152.49857033260466" text-anchor="middle" x="5383.5" y="2448.3744996164114">
18
</text>
<text font-size="152.49857033260466" text-anchor="middle" x="7040.5" y="9284.874499616411">
19
</text>
<text font-size="152.49857033260466" text-anchor="middle" x="5230.5" y="7068.374499616411">
20
</text>
<text font-size="152.49857033260466" text-anchor="middle" x="5003" y="1261.3744996164116">
21
</text>
<text font-size="152.49857033260466" text-anchor="middle" x="4627" y="4106.874499616411">
22
</text>
<text font-size="152.49857033260466" text-anchor="middle" x="4223" y="734.3744996164116">
23
</text>
<text font-size="152.49857033260466" text-anchor="middle" x="3935.5" y="2198.8744996164114">
24
</text>
<text font-size="152.49857033260466" text-anchor="middle" x="1457.5" y="1736.3744996164116">
25
</text>
<text font-size="152.49857033260466" text-anchor="middle" x="2546.5" y="3861.8744996164114">
26
</text>
<text font-size="152.49857033260466" text-anchor="middle" x="6098.5" y="9278.874499616411">
27
</text>
<text font-size="152.49857033260466" text-anchor="middle" x="7281" y="1808.8744996164116">
28
</text>
<text font-size="152.49857033260466" text-anchor="middle" x="4515" y="9064.374499616411">
29
</text>
<text font-size="152.49857033260466" text-anchor="middle" x="4453.5" y="8371.874499616411">
30
</text>
<text font-size="152.49857033260466" text-anchor="middle" x="8754.5" y="596.8744996164116">
31
</text>
<text font-size="152.49857033260466" text-anchor="middle" x="6120" y="5695.874499616411">
32
</text>
<text font-size="152.49857033260466" text-anchor="middle" x="6624" y="7913.374499616411">
33
</text>
<text font-size="152.49857033260466" text-anchor="middle" x="1354" y="6870.874499616411">
34
</text>
<text font-size="152.49857033260466" text-anchor="middle" x="774" y="9801.874499616411">
35
</text>
<text font-size="152.49857033260466" text-anchor="middle" x="1120.5" y="834.3744996164116">
36
</text>
<text font-size="152.49857033260466" text-anchor="middle" x="7390.5" y="2217.8744996164114">
37
</text>
<text font-size="152.49857033260466" text-anchor="middle" x="7875" y="8130.374499616411">
38
</text>
<text font-size="152.49857033260466" text-anchor="middle" x="6399.5" y="6549.874499616411">
39
</text>
<text font-size="152.49857033260466" text-anchor="middle" x="5707" y="782.8744996164116">
40
</text>
<text font-size="152.49857033260466" text-anchor="middle" x="4262.5" y="5316.874499616411">
41
</text>
<text font-size="152.49857033260466" text-anchor="middle" x="1429.5" y="8795.874499616411">
42
</text>
<text font-size="152.49857033260466" text-anchor="middle" x="1525" y="328.37449961641164">
43
</text>
<text font-size="152.49857033260466" text-anchor="middle" x="5831.5" y="7546.374499616411">
44
</text>
<text font-size="152.49857033260466" text-anchor="middle" x="2696" y="7503.874499616411">
45
</text>
<text font-size="152.49857033260466" text-anchor="middle" x="9839.5" y="3889.3744996164114">
46
</text>
<text font-size="152.49857033260466" text-anchor="middle" x="3193.5" y="7132.874499616411">
47
</text>
<text font-size="152.49857033260466" text-anchor="middle" x="2510" y="8822.874499616411">
48
</text>
<text font-size="152.49857033260466" text-anchor="middle" x="6884" y="4604.374499616411">
49
</text>
<text font-size="152.49857033260466" text-anchor="middle" x="3053" y="9501.374499616411">
50
</text>
<text font-size="152.49857033260466" text-anchor="middle" x="9808" y="9206.874499616411">
51
</text>
<text font-size="152.49857033260466" text-anchor="middle" x="4673.5" y="7362.374499616411">
52
</text>
<text font-size="152.49857033260466" text-anchor="middle" x="7434" y="344.87449961641164">
53
</text>
<text font-size="152.49857033260466" text-anchor="middle" x="5707" y="257.37449961641164">
54
</text>
<text font-size="152.49857033260466" text-anchor="middle" x="6578.5" y="1394.3744996164116">
55
</text>
<text font-size="152.49857033260466" text-anchor="middle" x="3195" y="1037.8744996164116">
56
</text>
<text font-size="152.49857033260466" text-anchor="middle" x="8134" y="7425.874499616411">
57
</text>
<text font-size="152.49857033260466" text-anchor="middle" x="3196" y="2506.3744996164114">
58
</text>
<text font-size="152.49857033260466" text-anchor="middle" x="7246" y="3479.3744996164114">
59
</text>
<text font-size="152.49857033260466" text-anchor="middle" x="7474" y="5789.374499616411">
60
</text>
<text font-size="152.49857033260466" text-anchor="middle" x="5750.5" y="8514.374499616411">
61
</text>
<text font-size="152.49857033260466" text-anchor="middle" x="129.5" y="276.87449961641164">
62
</text>
<text font-size="152.49857033260466" text-anchor="middle" x="7213.5" y="4096.874499616411">
63
</text>
<text font-size="152.49857033260466" text-anchor="middle" x="3169.5" y="4011.8744996164114">
64
</text>
<text font-size="152.49857033260466" text-anchor="middle" x="6671.5" y="7122.374499616411">
65
</text>
<text font-size="152.49857033260466" text-anchor="middle" x="9839.5" y="1251.3744996164116">
66
</text>
<text font-size="152.49857033260466" text-anchor="middle" x="6884.5" y="2729.3744996164114">
67
</text>
<text font-size="152.49857033260466" text-anchor="middle" x="1939.5" y="9233.874499616411">
68
</text>
<text font-size="152.49857033260466" text-anchor="middle" x="4402.5" y="3576.3744996164114">
69
</text>
<text font-size="152.49857033260466" text-anchor="middle" x="8379" y="1394.3744996164116">
70
</text>
<text font-size="152.49857033260466" text-anchor="middle" x="288" y="7169.374499616411">
71
</text>
<text font-size="152.49857033260466" text-anchor="middle" x="3368.5" y="8636.874499616411">
72
</text>
<text font-size="152.49857033260466" text-anchor="middle" x="337" y="3134.3744996164114">
73
</text>
<text font-size="152.49857033260466" text-anchor="middle" x="1352" y="7778.374499616411">
74
</text>
<text font-size="152.49857033260466" text-anchor="middle" x="4392" y="9531.874499616411">
75
</text>
<text font-size="152.49857033260466" text-anchor="middle" x="8995.5" y="9931.874499616411">
76
</text>
<text font-size="152.49857033260466" text-anchor="middle" x="1917" y="5414.374499616411">
77
</text>
<text font-size="152.49857033260466" text-anchor="middle" x="9444" y="4210.874499616411">
78
</text>
<text font-size="152.49857033260466" text-anchor="middle" x="1787" y="3290.3744996164114">
79
</text>
<text font-size="152.49857033260466" text-anchor="middle" x="1570.5" y="4820.374499616411">
80
</text>
<text font-size="152.49857033260466" text-anchor="middle" x="6215" y="3040.3744996164114">
81
</text>
<text font-size="152.49857033260466" text-anchor="middle" x="1058" y="4821.874499616411">
82
</text>
<text font-size="152.49857033260466" text-anchor="middle" x="5795.5" y="3054.3744996164114">
83
</text>
<text font-size="152.49857033260466" text-anchor="middle" x="4402.5" y="3170.3744996164114">
84
</text>
<text font-size="152.49857033260466" text-anchor="middle" x="5428.5" y="4734.874499616411">
85
</text>
</svg>