<svg viewBox="0 0 10000 10000" xmlns="http://www.w3.org/2000/svg">
<path d="M0,0 l10000,0 l0,10000 l-10000,0 z" fill="white"/>
<path d="M3272,5843 l45,0 l0,965 l-45,0 z" fill="#ff00fe" stroke="black" stroke-width="5"/>
<path d="M7802,7770 l1371,0 l0,980 l-1371,0 z" fill="#fe00ff" stroke="black" stroke-width="5"/>
<path d="M924,5793 l1041,0 l0,342 l-1041,0 z" fill="#ff00fe" stroke="black" stroke-width="5"/>
<path d="M0,5220 l622,0 l0,1845 l-622,0 z" fill="#ff00fe" stroke="black" stroke-width="5"/>
<path d="M758,2556 l1083,0 l0,1522 l-1083,0 z" fill="#9100ff" stroke="black" stroke-width="5"/>
<path d="M7979,4636 l513,0 l0,562 l-513,0 z" fill="#ff00fe" stroke="black" stroke-width="5"/>
<path d="M9154,1092 l564,0 l0,702 l-564,0 z" fill="#ff00fe" stroke="black" stroke-width="5"/>
<path d="M5738,3258 l460,0 l0,1196 l-460,0 z" fill="#ff00fe" stroke="black" stroke-width="5"/>
<path d="M1994,0 l3032,0 l0,638 l-3032,0 z" fill="#3d00ff" stroke="black" stroke-width="5"/>
<path d="M6666,6248 l1857,0 l0,207 l-1857,0 z" fill="#fe00ff" stroke="black" stroke-width="5"/>
<path d="M9065,3900 l778,0 l0,276 l-778,0 z" fill="#ff00fe" stroke="black" stroke-width="5"/>
<path d="M5159,9462 l1997,0 l0,519 l-1997,0 z" fill="#fe00ff" stroke="black" stroke-width="5"/>
<path d="M9189,5639 l811,0 l0,1713 l-811,0 z" fill="#8000ff" stroke="black" stroke-width="5"/>
<path d="M4970,5587 l542,0 l0,235 l-542,0 z" fill="#ff00fe" stroke="black" stroke-width="5"/>
<path d="M8996,5661 l193,0 l0,846 l-193,0 z" fill="#ff00fe" stroke="black" stroke-width="5"/>
<path d="M7802,8750 l1210,0 l0,1250 l-1210,0 z" fill="#fe00ff" stroke="black" stroke-width="5"/>
<path d="M4138,3056 l1600,0 l0,1400 l-1600,0 z" fill="#f800ff" stroke="black" stroke-width="5"/>
<path d="M6796,283 l962,0 l0,604 l-962,0 z" fill="#ff00fe" stroke="black" stroke-width="5"/>
<path d="M2017,638 l1195,0 l0,2013 l-1195,0 z" fill="#fe00ff" stroke="black" stroke-width="5"/>
<path d="M7237,7770 l565,0 l0,2230 l-565,0 z" fill="#fe00ff" stroke="black" stroke-width="5"/>
<path d="M3317,5663 l281,0 l0,2606 l-281,0 z" fill="#b300ff" stroke="black" stroke-width="5"/>
<path d="M7758,0 l986,0 l0,957 l-986,0 z" fill="#fe00ff" stroke="black" stroke-width="5"/>
<path d="M2,0 l1992,0 l0,493 l-1992,0 z" fill="#ff00fe" stroke="black" stroke-width="5"/>
<path d="M1564,7906 l346,0 l0,1991 l-346,0 z" fill="#ff00fe" stroke="black" stroke-width="5"/>
<path d="M4257,9001 l585,0 l0,565 l-585,0 z" fill="#fe00ff" stroke="black" stroke-width="5"/>
<path d="M5454,6039 l627,0 l0,1312 l-627,0 z" fill="#fe00ff" stroke="black" stroke-width="5"/>
<path d="M9065,2572 l616,0 l0,1307 l-616,0 z" fill="#ff00fe" stroke="black" stroke-width="5"/>
<path d="M8079,2109 l825,0 l0,1282 l-825,0 z" fill="#fe00ff" stroke="black" stroke-width="5"/>
<path d="M3633,2967 l505,0 l0,822 l-505,0 z" fill="#fe00ff" stroke="black" stroke-width="5"/>
<path d="M5219,2111 l518,0 l0,769 l-518,0 z" fill="#fe00ff" stroke="black" stroke-width="5"/>
<path d="M4725,9571 l397,0 l0,396 l-397,0 z" fill="#ff00fe" stroke="black" stroke-width="5"/>
<path d="M8744,0 l1256,0 l0,1064 l-1256,0 z" fill="#fe00ff" stroke="black" stroke-width="5"/>
<path d="M8619,3391 l347,0 l0,3202 l-347,0 z" fill="#f900ff" stroke="black" stroke-width="5"/>
<path d="M6727,5198 l1892,0 l0,1049 l-1892,0 z" fill="#ef00ff" stroke="black" stroke-width="5"/>
<path d="M2017,2651 l1616,0 l0,1138 l-1616,0 z" fill="#f700ff" stroke="black" stroke-width="5"/>
<path d="M6966,6514 l271,0 l0,2942 l-271,0 z" fill="#ff00fe" stroke="black" stroke-width="5"/>
<path d="M3861,2111 l1324,0 l0,773 l-1324,0 z" fill="#ff00fe" stroke="black" stroke-width="5"/>
<path d="M0,4078 l2051,0 l0,1083 l-2051,0 z" fill="#ff00fe" stroke="black" stroke-width="5"/>
<path d="M9173,7384 l135,0 l0,1682 l-135,0 z" fill="#ff00fe" stroke="black" stroke-width="5"/>
<path d="M7549,3067 l525,0 l0,187 l-525,0 z" fill="#fe00ff" stroke="black" stroke-width="5"/>
<path d="M7051,4269 l885,0 l0,928 l-885,0 z" fill="#fe00ff" stroke="black" stroke-width="5"/>
<path d="M3825,4668 l790,0 l0,1109 l-790,0 z" fill="#ff00fe" stroke="black" stroke-width="5"/>
<path d="M8680,1064 l473,0 l0,1045 l-473,0 z" fill="#fe00ff" stroke="black" stroke-width="5"/>
<path d="M4849,960 l3831,0 l0,565 l-3831,0 z" fill="#f300ff" stroke="black" stroke-width="5"/>
<path d="M6199,3254 l1880,0 l0,1015 l-1880,0 z" fill="#fe00ff" stroke="black" stroke-width="5"/>
<path d="M6103,1525 l1438,0 l0,861 l-1438,0 z" fill="#1800ff" stroke="black" stroke-width="5"/>
<path d="M9012,9181 l988,0 l0,819 l-988,0 z" fill="#fe00ff" stroke="black" stroke-width="5"/>
<path d="M2366,4458 l2245,0 l0,193 l-2245,0 z" fill="#ff00fe" stroke="black" stroke-width="5"/>
<path d="M3691,2884 l1731,0 l0,82 l-1731,0 z" fill="#ff00fe" stroke="black" stroke-width="5"/>
<path d="M4672,4706 l2040,0 l0,878 l-2040,0 z" fill="#ff00fe" stroke="black" stroke-width="5"/>
<path d="M3212,638 l1636,0 l0,885 l-1636,0 z" fill="#fe00ff" stroke="black" stroke-width="5"/>
<path d="M8966,4176 l1034,0 l0,1463 l-1034,0 z" fill="#4200ff" stroke="black" stroke-width="5"/>
<path d="M614,7205 l2183,0 l0,477 l-2183,0 z" fill="#fe00ff" stroke="black" stroke-width="5"/>
<path d="M7541,1531 l509,0 l0,1535 l-509,0 z" fill="#ff00fe" stroke="black" stroke-width="5"/>
<path d="M1656,6292 l505,0 l0,652 l-505,0 z" fill="#ff00fe" stroke="black" stroke-width="5"/>
<path d="M4706,4458 l2312,0 l0,244 l-2312,0 z" fill="#ff00fe" stroke="black" stroke-width="5"/>
<path d="M7668,6593 l1504,0 l0,1177 l-1504,0 z" fill="#fe00ff" stroke="black" stroke-width="5"/>
<path d="M841,494 l992,0 l0,2062 l-992,0 z" fill="#ff00fe" stroke="black" stroke-width="5"/>
<path d="M3212,1525 l2889,0 l0,586 l-2889,0 z" fill="#fd00ff" stroke="black" stroke-width="5"/>
<path d="M7352,7369 l315,0 l0,316 l-315,0 z" fill="#fe00ff" stroke="black" stroke-width="5"/>
<path d="M5027,0 l1769,0 l0,960 l-1769,0 z" fill="#c900ff" stroke="black" stroke-width="5"/>
<path d="M119,7194 l495,0 l0,457 l-495,0 z" fill="#ff00fe" stroke="black" stroke-width="5"/>
<path d="M5084,5965 l301,0 l0,3490 l-301,0 z" fill="#ff00fe" stroke="black" stroke-width="5"/>
<path d="M9692,3090 l279,0 l0,742 l-279,0 z" fill="#ff00fe" stroke="black" stroke-width="5"/>
<path d="M1999,9011 l776,0 l0,965 l-776,0 z" fill="#ff00fe" stroke="black" stroke-width="5"/>
<path d="M210,8719 l1077,0 l0,1281 l-1077,0 z" fill="#ff00fe" stroke="black" stroke-width="5"/>
<path d="M2080,3789 l2041,0 l0,662 l-2041,0 z" fill="#ff00fe" stroke="black" stroke-width="5"/>
<path d="M4682,2966 l136,0 l0,90 l-136,0 z" fill="#ff00fe" stroke="black" stroke-width="5"/>
<path d="M8905,2586 l119,0 l0,288 l-119,0 z" fill="#ff00fe" stroke="black" stroke-width="5"/>
<path d="M8083,3564 l533,0 l0,472 l-533,0 z" fill="#fe00ff" stroke="black" stroke-width="5"/>
<path d="M6283,8638 l657,0 l0,701 l-657,0 z" fill="#ff00fe" stroke="black" stroke-width="5"/>
<path d="M1841,1215 l176,0 l0,2357 l-176,0 z" fill="#ff00fe" stroke="black" stroke-width="5"/>
<path d="M999,5208 l416,0 l0,559 l-416,0 z" fill="#ff00fe" stroke="black" stroke-width="5"/>
<path d="M2821,8996 l1279,0 l0,1004 l-1279,0 z" fill="#ff00fe" stroke="black" stroke-width="5"/>
<path d="M3598,5793 l1276,0 l0,991 l-1276,0 z" fill="#ff00fe" stroke="black" stroke-width="5"/>
<path d="M9308,7352 l692,0 l0,1829 l-692,0 z" fill="#fe00ff" stroke="black" stroke-width="5"/>
<path d="M2161,5664 l636,0 l0,1541 l-636,0 z" fill="#fd00ff" stroke="black" stroke-width="5"/>
<path d="M0,7682 l1564,0 l0,1037 l-1564,0 z" fill="#fe00ff" stroke="black" stroke-width="5"/>
<path d="M6044,5636 l682,0 l0,361 l-682,0 z" fill="#fe00ff" stroke="black" stroke-width="5"/>
<path d="M327,534 l491,0 l0,392 l-491,0 z" fill="#ff00fe" stroke="black" stroke-width="5"/>
<path d="M1910,8269 l3174,0 l0,727 l-3174,0 z" fill="#fc00ff" stroke="black" stroke-width="5"/>
<path d="M2797,5663 l475,0 l0,2606 l-475,0 z" fill="#fe00ff" stroke="black" stroke-width="5"/>
<path d="M0,2689 l758,0 l0,1068 l-758,0 z" fill="#ff00fe" stroke="black" stroke-width="5"/>
<path d="M5738,2386 l1803,0 l0,868 l-1803,0 z" fill="#e600ff" stroke="black" stroke-width="5"/>
<path d="M2051,4651 l1774,0 l0,1012 l-1774,0 z" fill="#f600ff" stroke="black" stroke-width="5"/>
<path d="M3280,5866 l60,0 l0,60 l-60,0 z" fill="green"/>
<path d="M3310,5896 l-15.5,429.5" stroke="black" stroke-width="5"/>
<path d="M8907,7781 l60,0 l0,60 l-60,0 z" fill="green"/>
<path d="M8937,7811 l-449.5,449" stroke="black" stroke-width="5"/>
<path d="M1886,5974 l60,0 l0,60 l-60,0 z" fill="green"/>
<path d="M1916,6004 l-471.5,-40" stroke="black" stroke-width="5"/>
<path d="M591,5922 l60,0 l0,60 l-60,0 z" fill="green"/>
<path d="M621,5952 l-310,190.5" stroke="black" stroke-width="5"/>
<path d="M1364,3506 l60,0 l0,60 l-60,0 z" fill="green"/>
<path d="M1394,3536 l-94.5,-219" stroke="black" stroke-width="5"/>
<path d="M8334,5166 l60,0 l0,60 l-60,0 z" fill="green"/>
<path d="M8364,5196 l-128.5,-279" stroke="black" stroke-width="5"/>
<path d="M9125,1131 l60,0 l0,60 l-60,0 z" fill="green"/>
<path d="M9155,1161 l281,282" stroke="black" stroke-width="5"/>
<path d="M6124,4036 l60,0 l0,60 l-60,0 z" fill="green"/>
<path d="M6154,4066 l-186,-210" stroke="black" stroke-width="5"/>
<path d="M4994,380 l60,0 l0,60 l-60,0 z" fill="green"/>
<path d="M5024,410 l-1514,-91" stroke="black" stroke-width="5"/>
<path d="M8262,6219 l60,0 l0,60 l-60,0 z" fill="green"/>
<path d="M8292,6249 l-697.5,102.5" stroke="black" stroke-width="5"/>
<path d="M9316,4145 l60,0 l0,60 l-60,0 z" fill="green"/>
<path d="M9346,4175 l108,-137" stroke="black" stroke-width="5"/>
<path d="M5746,9556 l60,0 l0,60 l-60,0 z" fill="green"/>
<path d="M5776,9586 l381.5,135.5" stroke="black" stroke-width="5"/>
<path d="M9824,5616 l60,0 l0,60 l-60,0 z" fill="green"/>
<path d="M9854,5646 l-259.5,849.5" stroke="black" stroke-width="5"/>
<path d="M5017,5561 l60,0 l0,60 l-60,0 z" fill="green"/>
<path d="M5047,5591 l194,113.5" stroke="black" stroke-width="5"/>
<path d="M9158,6371 l60,0 l0,60 l-60,0 z" fill="green"/>
<path d="M9188,6401 l-95.5,-317" stroke="black" stroke-width="5"/>
<path d="M8404,9336 l60,0 l0,60 l-60,0 z" fill="green"/>
<path d="M8434,9366 l-27,9" stroke="black" stroke-width="5"/>
<path d="M4897,4082 l60,0 l0,60 l-60,0 z" fill="green"/>
<path d="M4927,4112 l11,-356" stroke="black" stroke-width="5"/>
<path d="M6767,633 l60,0 l0,60 l-60,0 z" fill="green"/>
<path d="M6797,663 l480,-78" stroke="black" stroke-width="5"/>
<path d="M2887,2619 l60,0 l0,60 l-60,0 z" fill="green"/>
<path d="M2917,2649 l-302.5,-1004.5" stroke="black" stroke-width="5"/>
<path d="M7641,9390 l60,0 l0,60 l-60,0 z" fill="green"/>
<path d="M7671,9420 l-151.5,-535" stroke="black" stroke-width="5"/>
<path d="M3552,5790 l60,0 l0,60 l-60,0 z" fill="green"/>
<path d="M3582,5820 l-124.5,1146" stroke="black" stroke-width="5"/>
<path d="M7940,742 l60,0 l0,60 l-60,0 z" fill="green"/>
<path d="M7970,772 l281,-293.5" stroke="black" stroke-width="5"/>
<path d="M1962,-20 l60,0 l0,60 l-60,0 z" fill="green"/>
<path d="M1992,10 l-994,236.5" stroke="black" stroke-width="5"/>
<path d="M1534,8391 l60,0 l0,60 l-60,0 z" fill="green"/>
<path d="M1564,8421 l173,480.5" stroke="black" stroke-width="5"/>
<path d="M4251,9057 l60,0 l0,60 l-60,0 z" fill="green"/>
<path d="M4281,9087 l268.5,196.5" stroke="black" stroke-width="5"/>
<path d="M6005,6158 l60,0 l0,60 l-60,0 z" fill="green"/>
<path d="M6035,6188 l-267.5,507" stroke="black" stroke-width="5"/>
<path d="M9303,3839 l60,0 l0,60 l-60,0 z" fill="green"/>
<path d="M9333,3869 l40,-643.5" stroke="black" stroke-width="5"/>
<path d="M8454,3360 l60,0 l0,60 l-60,0 z" fill="green"/>
<path d="M8484,3390 l7.5,-640" stroke="black" stroke-width="5"/>
<path d="M3764,3098 l60,0 l0,60 l-60,0 z" fill="green"/>
<path d="M3794,3128 l91.5,250" stroke="black" stroke-width="5"/>
<path d="M5705,2084 l60,0 l0,60 l-60,0 z" fill="green"/>
<path d="M5735,2114 l-257,381.5" stroke="black" stroke-width="5"/>
<path d="M5043,9724 l60,0 l0,60 l-60,0 z" fill="green"/>
<path d="M5073,9754 l-149.5,15" stroke="black" stroke-width="5"/>
<path d="M9006,234 l60,0 l0,60 l-60,0 z" fill="green"/>
<path d="M9036,264 l336,268" stroke="black" stroke-width="5"/>
<path d="M8789,6020 l60,0 l0,60 l-60,0 z" fill="green"/>
<path d="M8819,6050 l-26.5,-1058" stroke="black" stroke-width="5"/>
<path d="M8587,5475 l60,0 l0,60 l-60,0 z" fill="green"/>
<path d="M8617,5505 l-944,217.5" stroke="black" stroke-width="5"/>
<path d="M2201,2701 l60,0 l0,60 l-60,0 z" fill="green"/>
<path d="M2231,2731 l594,489" stroke="black" stroke-width="5"/>
<path d="M7206,9329 l60,0 l0,60 l-60,0 z" fill="green"/>
<path d="M7236,9359 l-134.5,-1374" stroke="black" stroke-width="5"/>
<path d="M3859,2786 l60,0 l0,60 l-60,0 z" fill="green"/>
<path d="M3889,2816 l634,-318.5" stroke="black" stroke-width="5"/>
<path d="M2020,4048 l60,0 l0,60 l-60,0 z" fill="green"/>
<path d="M2050,4078 l-1024.5,541.5" stroke="black" stroke-width="5"/>
<path d="M9267,7495 l60,0 l0,60 l-60,0 z" fill="green"/>
<path d="M9297,7525 l-56.5,700" stroke="black" stroke-width="5"/>
<path d="M7565,3071 l60,0 l0,60 l-60,0 z" fill="green"/>
<path d="M7595,3101 l216.5,59.5" stroke="black" stroke-width="5"/>
<path d="M7269,4239 l60,0 l0,60 l-60,0 z" fill="green"/>
<path d="M7299,4269 l194.5,464" stroke="black" stroke-width="5"/>
<path d="M3795,5442 l60,0 l0,60 l-60,0 z" fill="green"/>
<path d="M3825,5472 l395,-249.5" stroke="black" stroke-width="5"/>
<path d="M8714,1793 l60,0 l0,60 l-60,0 z" fill="green"/>
<path d="M8744,1823 l172.5,-236.5" stroke="black" stroke-width="5"/>
<path d="M6050,1211 l60,0 l0,60 l-60,0 z" fill="green"/>
<path d="M6080,1241 l684.5,1.5" stroke="black" stroke-width="5"/>
<path d="M7097,3227 l60,0 l0,60 l-60,0 z" fill="green"/>
<path d="M7127,3257 l12,504.5" stroke="black" stroke-width="5"/>
<path d="M6293,1532 l60,0 l0,60 l-60,0 z" fill="green"/>
<path d="M6323,1562 l499,393.5" stroke="black" stroke-width="5"/>
<path d="M9701,9373 l60,0 l0,60 l-60,0 z" fill="green"/>
<path d="M9731,9403 l-225,187.5" stroke="black" stroke-width="5"/>
<path d="M3324,4620 l60,0 l0,60 l-60,0 z" fill="green"/>
<path d="M3354,4650 l134.5,-95.5" stroke="black" stroke-width="5"/>
<path d="M3985,2933 l60,0 l0,60 l-60,0 z" fill="green"/>
<path d="M4015,2963 l541.5,-38" stroke="black" stroke-width="5"/>
<path d="M4734,5439 l60,0 l0,60 l-60,0 z" fill="green"/>
<path d="M4764,5469 l928,-324" stroke="black" stroke-width="5"/>
<path d="M4811,610 l60,0 l0,60 l-60,0 z" fill="green"/>
<path d="M4841,640 l-811,440.5" stroke="black" stroke-width="5"/>
<path d="M9598,4694 l60,0 l0,60 l-60,0 z" fill="green"/>
<path d="M9628,4724 l-145,183.5" stroke="black" stroke-width="5"/>
<path d="M1251,7264 l60,0 l0,60 l-60,0 z" fill="green"/>
<path d="M1281,7294 l424.5,149.5" stroke="black" stroke-width="5"/>
<path d="M7511,3035 l60,0 l0,60 l-60,0 z" fill="green"/>
<path d="M7541,3065 l254.5,-766.5" stroke="black" stroke-width="5"/>
<path d="M2130,6512 l60,0 l0,60 l-60,0 z" fill="green"/>
<path d="M2160,6542 l-251.5,76" stroke="black" stroke-width="5"/>
<path d="M5165,4430 l60,0 l0,60 l-60,0 z" fill="green"/>
<path d="M5195,4460 l667,120" stroke="black" stroke-width="5"/>
<path d="M8825,7591 l60,0 l0,60 l-60,0 z" fill="green"/>
<path d="M8855,7621 l-435,-439.5" stroke="black" stroke-width="5"/>
<path d="M1787,2525 l60,0 l0,60 l-60,0 z" fill="green"/>
<path d="M1817,2555 l-480,-1030" stroke="black" stroke-width="5"/>
<path d="M6068,1605 l60,0 l0,60 l-60,0 z" fill="green"/>
<path d="M6098,1635 l-1441.5,183" stroke="black" stroke-width="5"/>
<path d="M7635,7561 l60,0 l0,60 l-60,0 z" fill="green"/>
<path d="M7665,7591 l-155.5,-64" stroke="black" stroke-width="5"/>
<path d="M5478,349 l60,0 l0,60 l-60,0 z" fill="green"/>
<path d="M5508,379 l403.5,101" stroke="black" stroke-width="5"/>
<path d="M583,7451 l60,0 l0,60 l-60,0 z" fill="green"/>
<path d="M613,7481 l-246.5,-58.5" stroke="black" stroke-width="5"/>
<path d="M5054,9366 l60,0 l0,60 l-60,0 z" fill="green"/>
<path d="M5084,9396 l150.5,-1686" stroke="black" stroke-width="5"/>
<path d="M9811,3597 l60,0 l0,60 l-60,0 z" fill="green"/>
<path d="M9841,3627 l-9.5,-166" stroke="black" stroke-width="5"/>
<path d="M2167,9821 l60,0 l0,60 l-60,0 z" fill="green"/>
<path d="M2197,9851 l190,-357.5" stroke="black" stroke-width="5"/>
<path d="M549,8689 l60,0 l0,60 l-60,0 z" fill="green"/>
<path d="M579,8719 l169.5,640.5" stroke="black" stroke-width="5"/>
<path d="M3364,3759 l60,0 l0,60 l-60,0 z" fill="green"/>
<path d="M3394,3789 l-293.5,331" stroke="black" stroke-width="5"/>
<path d="M4723,3024 l60,0 l0,60 l-60,0 z" fill="green"/>
<path d="M4753,3054 l-3,-43" stroke="black" stroke-width="5"/>
<path d="M8884,2742 l60,0 l0,60 l-60,0 z" fill="green"/>
<path d="M8914,2772 l50.5,-42" stroke="black" stroke-width="5"/>
<path d="M8522,3616 l60,0 l0,60 l-60,0 z" fill="green"/>
<path d="M8552,3646 l-202.5,154" stroke="black" stroke-width="5"/>
<path d="M6673,9031 l60,0 l0,60 l-60,0 z" fill="green"/>
<path d="M6703,9061 l-91.5,-72.5" stroke="black" stroke-width="5"/>
<path d="M1812,2832 l60,0 l0,60 l-60,0 z" fill="green"/>
<path d="M1842,2862 l87,-468.5" stroke="black" stroke-width="5"/>
<path d="M1280,5202 l60,0 l0,60 l-60,0 z" fill="green"/>
<path d="M1310,5232 l-103,255.5" stroke="black" stroke-width="5"/>
<path d="M3463,8966 l60,0 l0,60 l-60,0 z" fill="green"/>
<path d="M3493,8996 l-32.5,502" stroke="black" stroke-width="5"/>
<path d="M3568,5796 l60,0 l0,60 l-60,0 z" fill="green"/>
<path d="M3598,5826 l638,462.5" stroke="black" stroke-width="5"/>
<path d="M9878,7322 l60,0 l0,60 l-60,0 z" fill="green"/>
<path d="M9908,7352 l-254,914.5" stroke="black" stroke-width="5"/>
<path d="M2518,6397 l60,0 l0,60 l-60,0 z" fill="green"/>
<path d="M2548,6427 l-69,7.5" stroke="black" stroke-width="5"/>
<path d="M-29,8065 l60,0 l0,60 l-60,0 z" fill="green"/>
<path d="M1,8095 l781,105.5" stroke="black" stroke-width="5"/>
<path d="M6695,5749 l60,0 l0,60 l-60,0 z" fill="green"/>
<path d="M6725,5779 l-340,37.5" stroke="black" stroke-width="5"/>
<path d="M760,804 l60,0 l0,60 l-60,0 z" fill="green"/>
<path d="M790,834 l-217.5,-104" stroke="black" stroke-width="5"/>
<path d="M3446,8744 l60,0 l0,60 l-60,0 z" fill="green"/>
<path d="M3476,8774 l21,-141.5" stroke="black" stroke-width="5"/>
<path d="M3078,5961 l60,0 l0,60 l-60,0 z" fill="green"/>
<path d="M3108,5991 l-73.5,975" stroke="black" stroke-width="5"/>
<path d="M727,2786 l60,0 l0,60 l-60,0 z" fill="green"/>
<path d="M757,2816 l-378,407" stroke="black" stroke-width="5"/>
<path d="M5929,2431 l60,0 l0,60 l-60,0 z" fill="green"/>
<path d="M5959,2461 l680.5,359" stroke="black" stroke-width="5"/>
<path d="M2908,5454 l60,0 l0,60 l-60,0 z" fill="green"/>
<path d="M2938,5484 l0,-327" stroke="black" stroke-width="5"/>
<text font-size="153.39299776947408" text-anchor="middle" x="3294.5" y="6379.187549219316">
0
</text>
<text font-size="153.39299776947408" text-anchor="middle" x="8487.5" y="8313.687549219316">
1
</text>
<text font-size="153.39299776947408" text-anchor="middle" x="1444.5" y="6017.687549219316">
2
</text>
<text font-size="153.39299776947408" text-anchor="middle" x="311" y="6196.187549219316">
3
</text>
<text font-size="153.39299776947408" text-anchor="middle" x="1299.5" y="3370.6875492193158">
4
</text>
<text font-size="153.39299776947408" text-anchor="middle" x="8235.5" y="4970.687549219316">
5
</text>
<text font-size="153.39299776947408" text-anchor="middle" x="9436" y="1496.687549219316">
6
</text>
<text font-size="153.39299776947408" text-anchor="middle" x="5968" y="3909.6875492193158">
7
</text>
<text font-size="153.39299776947408" text-anchor="middle" x="3510" y="372.68754921931594">
8
</text>
<text font-size="153.39299776947408" text-anchor="middle" x="7594.5" y="6405.187549219316">
9
</text>
<text font-size="153.39299776947408" text-anchor="middle" x="9454" y="4091.6875492193158">
10
</text>
<text font-size="153.39299776947408" text-anchor="middle" x="6157.5" y="9775.187549219316">
11
</text>
<text font-size="153.39299776947408" text-anchor="middle" x="9594.5" y="6549.187549219316">
12
</text>
<text font-size="153.39299776947408" text-anchor="middle" x="5241" y="5758.187549219316">
13
</text>
<text font-size="153.39299776947408" text-anchor="middle" x="9092.5" y="6137.687549219316">
14
</text>
<text font-size="153.39299776947408" text-anchor="middle" x="8407" y="9428.687549219316">
15
</text>
<text font-size="153.39299776947408" text-anchor="middle" x="4938" y="3809.6875492193158">
16
</text>
<text font-size="153.39299776947408" text-anchor="middle" x="7277" y="638.6875492193159">
17
</text>
<text font-size="153.39299776947408" text-anchor="middle" x="2614.5" y="1698.187549219316">
18
</text>
<text font-size="153.39299776947408" text-anchor="middle" x="7519.5" y="8938.687549219316">
19
</text>
<text font-size="153.39299776947408" text-anchor="middle" x="3457.5" y="7019.687549219316">
20
</text>
<text font-size="153.39299776947408" text-anchor="middle" x="8251" y="532.1875492193159">
21
</text>
<text font-size="153.39299776947408" text-anchor="middle" x="998" y="300.18754921931594">
22
</text>
<text font-size="153.39299776947408" text-anchor="middle" x="1737" y="8955.187549219316">
23
</text>
<text font-size="153.39299776947408" text-anchor="middle" x="4549.5" y="9337.187549219316">
24
</text>
<text font-size="153.39299776947408" text-anchor="middle" x="5767.5" y="6748.687549219316">
25
</text>
<text font-size="153.39299776947408" text-anchor="middle" x="9373" y="3279.1875492193158">
26
</text>
<text font-size="153.39299776947408" text-anchor="middle" x="8491.5" y="2803.6875492193158">
27
</text>
<text font-size="153.39299776947408" text-anchor="middle" x="3885.5" y="3431.6875492193158">
28
</text>
<text font-size="153.39299776947408" text-anchor="middle" x="5478" y="2549.1875492193158">
29
</text>
<text font-size="153.39299776947408" text-anchor="middle" x="4923.5" y="9822.687549219316">
30
</text>
<text font-size="153.39299776947408" text-anchor="middle" x="9372" y="585.6875492193159">
31
</text>
<text font-size="153.39299776947408" text-anchor="middle" x="8792.5" y="5045.687549219316">
32
</text>
<text font-size="153.39299776947408" text-anchor="middle" x="7673" y="5776.187549219316">
33
</text>
<text font-size="153.39299776947408" text-anchor="middle" x="2825" y="3273.6875492193158">
34
</text>
<text font-size="153.39299776947408" text-anchor="middle" x="7101.5" y="8038.687549219316">
35
</text>
<text font-size="153.39299776947408" text-anchor="middle" x="4523" y="2551.1875492193158">
36
</text>
<text font-size="153.39299776947408" text-anchor="middle" x="1025.5" y="4673.187549219316">
37
</text>
<text font-size="153.39299776947408" text-anchor="middle" x="9240.5" y="8278.687549219316">
38
</text>
<text font-size="153.39299776947408" text-anchor="middle" x="7811.5" y="3214.1875492193158">
39
</text>
<text font-size="153.39299776947408" text-anchor="middle" x="7493.5" y="4786.687549219316">
40
</text>
<text font-size="153.39299776947408" text-anchor="middle" x="4220" y="5276.187549219316">
41
</text>
<text font-size="153.39299776947408" text-anchor="middle" x="8916.5" y="1640.187549219316">
42
</text>
<text font-size="153.39299776947408" text-anchor="middle" x="6764.5" y="1296.187549219316">
43
</text>
<text font-size="153.39299776947408" text-anchor="middle" x="7139" y="3815.1875492193158">
44
</text>
<text font-size="153.39299776947408" text-anchor="middle" x="6822" y="2009.187549219316">
45
</text>
<text font-size="153.39299776947408" text-anchor="middle" x="9506" y="9644.187549219316">
46
</text>
<text font-size="153.39299776947408" text-anchor="middle" x="3488.5" y="4608.187549219316">
47
</text>
<text font-size="153.39299776947408" text-anchor="middle" x="4556.5" y="2978.6875492193158">
48
</text>
<text font-size="153.39299776947408" text-anchor="middle" x="5692" y="5198.687549219316">
49
</text>
<text font-size="153.39299776947408" text-anchor="middle" x="4030" y="1134.187549219316">
50
</text>
<text font-size="153.39299776947408" text-anchor="middle" x="9483" y="4961.187549219316">
51
</text>
<text font-size="153.39299776947408" text-anchor="middle" x="1705.5" y="7497.187549219316">
52
</text>
<text font-size="153.39299776947408" text-anchor="middle" x="7795.5" y="2352.1875492193158">
53
</text>
<text font-size="153.39299776947408" text-anchor="middle" x="1908.5" y="6671.687549219316">
54
</text>
<text font-size="153.39299776947408" text-anchor="middle" x="5862" y="4633.687549219316">
55
</text>
<text font-size="153.39299776947408" text-anchor="middle" x="8420" y="7235.187549219316">
56
</text>
<text font-size="153.39299776947408" text-anchor="middle" x="1337" y="1578.687549219316">
57
</text>
<text font-size="153.39299776947408" text-anchor="middle" x="4656.5" y="1871.687549219316">
58
</text>
<text font-size="153.39299776947408" text-anchor="middle" x="7509.5" y="7580.687549219316">
59
</text>
<text font-size="153.39299776947408" text-anchor="middle" x="5911.5" y="533.6875492193159">
60
</text>
<text font-size="153.39299776947408" text-anchor="middle" x="366.5" y="7476.187549219316">
61
</text>
<text font-size="153.39299776947408" text-anchor="middle" x="5234.5" y="7763.687549219316">
62
</text>
<text font-size="153.39299776947408" text-anchor="middle" x="9831.5" y="3514.6875492193158">
63
</text>
<text font-size="153.39299776947408" text-anchor="middle" x="2387" y="9547.187549219316">
64
</text>
<text font-size="153.39299776947408" text-anchor="middle" x="748.5" y="9413.187549219316">
65
</text>
<text font-size="153.39299776947408" text-anchor="middle" x="3100.5" y="4173.687549219316">
66
</text>
<text font-size="153.39299776947408" text-anchor="middle" x="4750" y="3064.6875492193158">
67
</text>
<text font-size="153.39299776947408" text-anchor="middle" x="8964.5" y="2783.6875492193158">
68
</text>
<text font-size="153.39299776947408" text-anchor="middle" x="8349.5" y="3853.6875492193158">
69
</text>
<text font-size="153.39299776947408" text-anchor="middle" x="6611.5" y="9042.187549219316">
70
</text>
<text font-size="153.39299776947408" text-anchor="middle" x="1929" y="2447.1875492193158">
71
</text>
<text font-size="153.39299776947408" text-anchor="middle" x="1207" y="5541.187549219316">
72
</text>
<text font-size="153.39299776947408" text-anchor="middle" x="3460.5" y="9551.687549219316">
73
</text>
<text font-size="153.39299776947408" text-anchor="middle" x="4236" y="6342.187549219316">
74
</text>
<text font-size="153.39299776947408" text-anchor="middle" x="9654" y="8320.187549219316">
75
</text>
<text font-size="153.39299776947408" text-anchor="middle" x="2479" y="6488.187549219316">
76
</text>
<text font-size="153.39299776947408" text-anchor="middle" x="782" y="8254.187549219316">
77
</text>
<text font-size="153.39299776947408" text-anchor="middle" x="6385" y="5870.187549219316">
78
</text>
<text font-size="153.39299776947408" text-anchor="middle" x="572.5" y="783.6875492193159">
79
</text>
<text font-size="153.39299776947408" text-anchor="middle" x="3497" y="8686.187549219316">
80
</text>
<text font-size="153.39299776947408" text-anchor="middle" x="3034.5" y="7019.687549219316">
81
</text>
<text font-size="153.39299776947408" text-anchor="middle" x="379" y="3276.6875492193158">
82
</text>
<text font-size="153.39299776947408" text-anchor="middle" x="6639.5" y="2873.6875492193158">
83
</text>
<text font-size="153.39299776947408" text-anchor="middle" x="2938" y="5210.687549219316">
84
</text>
</svg>