<svg viewBox="0 0 10000 10000" xmlns="http://www.w3.org/2000/svg">
<path d="M0,0 l10000,0 l0,10000 l-10000,0 z" fill="white"/>
<path d="M4102,2812 l371,0 l0,508 l-371,0 z" fill="#ff00fe" stroke="black" stroke-width="5"/>
<path d="M1404,3312 l562,0 l0,913 l-562,0 z" fill="#fe00ff" stroke="black" stroke-width="5"/>
<path d="M7328,1130 l434,0 l0,593 l-434,0 z" fill="#ff00fe" stroke="black" stroke-width="5"/>
<path d="M1655,5127 l3161,0 l0,259 l-3161,0 z" fill="#fe00ff" stroke="black" stroke-width="5"/>
<path d="M5401,5138 l636,0 l0,1612 l-636,0 z" fill="#ff00fe" stroke="black" stroke-width="5"/>
<path d="M977,1603 l939,0 l0,1094 l-939,0 z" fill="#fd00ff" stroke="black" stroke-width="5"/>
<path d="M6434,9205 l150,0 l0,551 l-150,0 z" fill="#ff00fe" stroke="black" stroke-width="5"/>
<path d="M367,7776 l220,0 l0,249 l-220,0 z" fill="#ff00fe" stroke="black" stroke-width="5"/>
<path d="M454,0 l716,0 l0,1601 l-716,0 z" fill="#fc00ff" stroke="black" stroke-width="5"/>
<path d="M5944,1687 l90,0 l0,258 l-90,0 z" fill="#ff00fe" stroke="black" stroke-width="5"/>
<path d="M2158,8751 l1484,0 l0,1249 l-1484,0 z" fill="#6e00ff" stroke="black" stroke-width="5"/>
<path d="M9723,7954 l265,0 l0,414 l-265,0 z" fill="#ff00fe" stroke="black" stroke-width="5"/>
<path d="M2600,54 l725,0 l0,844 l-725,0 z" fill="#ff00fe" stroke="black" stroke-width="5"/>
<path d="M0,0 l454,0 l0,1601 l-454,0 z" fill="#fd00ff" stroke="black" stroke-width="5"/>
<path d="M0,1601 l977,0 l0,1096 l-977,0 z" fill="#fd00ff" stroke="black" stroke-width="5"/>
<path d="M9248,2811 l752,0 l0,2823 l-752,0 z" fill="#cb00ff" stroke="black" stroke-width="5"/>
<path d="M87,5932 l274,0 l0,3484 l-274,0 z" fill="#ff00fe" stroke="black" stroke-width="5"/>
<path d="M6613,727 l586,0 l0,2278 l-586,0 z" fill="#fd00ff" stroke="black" stroke-width="5"/>
<path d="M4816,4188 l581,0 l0,1265 l-581,0 z" fill="#7900ff" stroke="black" stroke-width="5"/>
<path d="M4010,305 l662,0 l0,896 l-662,0 z" fill="#ff00fe" stroke="black" stroke-width="5"/>
<path d="M1907,4229 l415,0 l0,747 l-415,0 z" fill="#ff00fe" stroke="black" stroke-width="5"/>
<path d="M2282,7770 l1162,0 l0,980 l-1162,0 z" fill="#ff00fe" stroke="black" stroke-width="5"/>
<path d="M7576,6147 l577,0 l0,535 l-577,0 z" fill="#ff00fe" stroke="black" stroke-width="5"/>
<path d="M7199,2239 l410,0 l0,741 l-410,0 z" fill="#ff00fe" stroke="black" stroke-width="5"/>
<path d="M8546,2466 l951,0 l0,228 l-951,0 z" fill="#ff00fe" stroke="black" stroke-width="5"/>
<path d="M7625,2647 l340,0 l0,358 l-340,0 z" fill="#ff00fe" stroke="black" stroke-width="5"/>
<path d="M8730,4442 l342,0 l0,1035 l-342,0 z" fill="#ff00fe" stroke="black" stroke-width="5"/>
<path d="M3642,7751 l181,0 l0,1927 l-181,0 z" fill="#ff00fe" stroke="black" stroke-width="5"/>
<path d="M6584,9162 l774,0 l0,632 l-774,0 z" fill="#ff00fe" stroke="black" stroke-width="5"/>
<path d="M1967,3238 l656,0 l0,972 l-656,0 z" fill="#ff00fe" stroke="black" stroke-width="5"/>
<path d="M4838,7670 l869,0 l0,1734 l-869,0 z" fill="#ff00fe" stroke="black" stroke-width="5"/>
<path d="M5082,6760 l1471,0 l0,595 l-1471,0 z" fill="#ff00fe" stroke="black" stroke-width="5"/>
<path d="M8203,8373 l970,0 l0,1623 l-970,0 z" fill="#f900ff" stroke="black" stroke-width="5"/>
<path d="M8647,2694 l601,0 l0,1748 l-601,0 z" fill="#eb00ff" stroke="black" stroke-width="5"/>
<path d="M8074,2695 l573,0 l0,1898 l-573,0 z" fill="#e900ff" stroke="black" stroke-width="5"/>
<path d="M2965,3967 l822,0 l0,1091 l-822,0 z" fill="#ff00fe" stroke="black" stroke-width="5"/>
<path d="M4168,3470 l648,0 l0,1657 l-648,0 z" fill="#8400ff" stroke="black" stroke-width="5"/>
<path d="M0,2697 l1919,0 l0,615 l-1919,0 z" fill="#fe00ff" stroke="black" stroke-width="5"/>
<path d="M1268,4907 l381,0 l0,480 l-381,0 z" fill="#ff00fe" stroke="black" stroke-width="5"/>
<path d="M0,3974 l1093,0 l0,1907 l-1093,0 z" fill="#f600ff" stroke="black" stroke-width="5"/>
<path d="M8508,5484 l631,0 l0,1305 l-631,0 z" fill="#ff00fe" stroke="black" stroke-width="5"/>
<path d="M3117,7364 l3442,0 l0,306 l-3442,0 z" fill="#ff00fe" stroke="black" stroke-width="5"/>
<path d="M4501,2343 l256,0 l0,1127 l-256,0 z" fill="#ff00fe" stroke="black" stroke-width="5"/>
<path d="M9857,0 l143,0 l0,2811 l-143,0 z" fill="#ab00ff" stroke="black" stroke-width="5"/>
<path d="M0,3312 l1404,0 l0,662 l-1404,0 z" fill="#fd00ff" stroke="black" stroke-width="5"/>
<path d="M1124,5413 l682,0 l0,1178 l-682,0 z" fill="#ff00fe" stroke="black" stroke-width="5"/>
<path d="M8375,7952 l1348,0 l0,420 l-1348,0 z" fill="#fe00ff" stroke="black" stroke-width="5"/>
<path d="M8674,0 l938,0 l0,558 l-938,0 z" fill="#ff00fe" stroke="black" stroke-width="5"/>
<path d="M6037,727 l433,0 l0,1340 l-433,0 z" fill="#fd00ff" stroke="black" stroke-width="5"/>
<path d="M3500,2932 l578,0 l0,386 l-578,0 z" fill="#ff00fe" stroke="black" stroke-width="5"/>
<path d="M5847,3832 l804,0 l0,1237 l-804,0 z" fill="#a300ff" stroke="black" stroke-width="5"/>
<path d="M6470,1760 l92,0 l0,130 l-92,0 z" fill="#ff00fe" stroke="black" stroke-width="5"/>
<path d="M3453,21 l1227,0 l0,260 l-1227,0 z" fill="#ff00fe" stroke="black" stroke-width="5"/>
<path d="M8382,558 l1475,0 l0,1905 l-1475,0 z" fill="#ff00fe" stroke="black" stroke-width="5"/>
<path d="M4681,0 l3065,0 l0,727 l-3065,0 z" fill="#fc00ff" stroke="black" stroke-width="5"/>
<path d="M4979,1190 l371,0 l0,138 l-371,0 z" fill="#ff00fe" stroke="black" stroke-width="5"/>
<path d="M5847,3449 l804,0 l0,380 l-804,0 z" fill="#fe00ff" stroke="black" stroke-width="5"/>
<path d="M4550,5457 l733,0 l0,1278 l-733,0 z" fill="#ff00fe" stroke="black" stroke-width="5"/>
<path d="M6774,8587 l450,0 l0,440 l-450,0 z" fill="#ff00fe" stroke="black" stroke-width="5"/>
<path d="M5350,727 l592,0 l0,1883 l-592,0 z" fill="#f600ff" stroke="black" stroke-width="5"/>
<path d="M6990,5131 l415,0 l0,1432 l-415,0 z" fill="#ff00fe" stroke="black" stroke-width="5"/>
<path d="M6112,7775 l444,0 l0,636 l-444,0 z" fill="#ff00fe" stroke="black" stroke-width="5"/>
<path d="M6561,6684 l1814,0 l0,1486 l-1814,0 z" fill="#fe00ff" stroke="black" stroke-width="5"/>
<path d="M3823,9404 l2611,0 l0,596 l-2611,0 z" fill="#ee00ff" stroke="black" stroke-width="5"/>
<path d="M3794,4255 l336,0 l0,708 l-336,0 z" fill="#ff00fe" stroke="black" stroke-width="5"/>
<path d="M3286,2911 l212,0 l0,161 l-212,0 z" fill="#ff00fe" stroke="black" stroke-width="5"/>
<path d="M1928,190 l550,0 l0,840 l-550,0 z" fill="#ff00fe" stroke="black" stroke-width="5"/>
<path d="M4887,3145 l350,0 l0,1042 l-350,0 z" fill="#ff00fe" stroke="black" stroke-width="5"/>
<path d="M8505,6791 l618,0 l0,1108 l-618,0 z" fill="#ff00fe" stroke="black" stroke-width="5"/>
<path d="M0,9417 l547,0 l0,583 l-547,0 z" fill="#f100ff" stroke="black" stroke-width="5"/>
<path d="M4008,1328 l1342,0 l0,973 l-1342,0 z" fill="#fe00ff" stroke="black" stroke-width="5"/>
<path d="M8388,5484 l116,0 l0,2405 l-116,0 z" fill="#ff00fe" stroke="black" stroke-width="5"/>
<path d="M9173,8373 l827,0 l0,1627 l-827,0 z" fill="#1500ff" stroke="black" stroke-width="5"/>
<path d="M7747,55 l338,0 l0,343 l-338,0 z" fill="#ff00fe" stroke="black" stroke-width="5"/>
<path d="M1940,5386 l2597,0 l0,933 l-2597,0 z" fill="#ff00fe" stroke="black" stroke-width="5"/>
<path d="M7358,8171 l845,0 l0,1829 l-845,0 z" fill="#fa00ff" stroke="black" stroke-width="5"/>
<path d="M548,8567 l1610,0 l0,1046 l-1610,0 z" fill="#a300ff" stroke="black" stroke-width="5"/>
<path d="M7746,498 l527,0 l0,604 l-527,0 z" fill="#ff00fe" stroke="black" stroke-width="5"/>
<path d="M7809,1257 l571,0 l0,1366 l-571,0 z" fill="#ff00fe" stroke="black" stroke-width="5"/>
<path d="M378,6594 l1480,0 l0,1171 l-1480,0 z" fill="#ff00fe" stroke="black" stroke-width="5"/>
<path d="M1171,683 l649,0 l0,520 l-649,0 z" fill="#ff00fe" stroke="black" stroke-width="5"/>
<path d="M3338,6339 l1004,0 l0,763 l-1004,0 z" fill="#ff00fe" stroke="black" stroke-width="5"/>
<path d="M2271,6531 l679,0 l0,1188 l-679,0 z" fill="#ff00fe" stroke="black" stroke-width="5"/>
<path d="M1919,1032 l2089,0 l0,1871 l-2089,0 z" fill="#ff00fe" stroke="black" stroke-width="5"/>
<path d="M5942,2067 l671,0 l0,1382 l-671,0 z" fill="#fd00ff" stroke="black" stroke-width="5"/>
<path d="M1093,4225 l812,0 l0,673 l-812,0 z" fill="#ff00fe" stroke="black" stroke-width="5"/>
<path d="M5397,2610 l450,0 l0,2528 l-450,0 z" fill="#d100ff" stroke="black" stroke-width="5"/>
<path d="M2936,3473 l1232,0 l0,491 l-1232,0 z" fill="#ff00fe" stroke="black" stroke-width="5"/>
<path d="M1911,6938 l332,0 l0,1278 l-332,0 z" fill="#ff00fe" stroke="black" stroke-width="5"/>
<path d="M615,7765 l1277,0 l0,554 l-1277,0 z" fill="#ff00fe" stroke="black" stroke-width="5"/>
<path d="M547,9613 l1611,0 l0,387 l-1611,0 z" fill="#f700ff" stroke="black" stroke-width="5"/>
<path d="M527,5882 l294,0 l0,614 l-294,0 z" fill="#ff00fe" stroke="black" stroke-width="5"/>
<path d="M7422,4593 l1308,0 l0,891 l-1308,0 z" fill="#f900ff" stroke="black" stroke-width="5"/>
<path d="M6066,5070 l900,0 l0,1614 l-900,0 z" fill="#ff00fe" stroke="black" stroke-width="5"/>
<path d="M6651,3005 l1423,0 l0,1489 l-1423,0 z" fill="#fa00ff" stroke="black" stroke-width="5"/>
<path d="M6651,4494 l771,0 l0,576 l-771,0 z" fill="#fd00ff" stroke="black" stroke-width="5"/>
<path d="M9139,5634 l861,0 l0,2318 l-861,0 z" fill="#fa00ff" stroke="black" stroke-width="5"/>
<path d="M2539,4273 l393,0 l0,424 l-393,0 z" fill="#ff00fe" stroke="black" stroke-width="5"/>
<path d="M573,8319 l1452,0 l0,248 l-1452,0 z" fill="#ff00fe" stroke="black" stroke-width="5"/>
<path d="M2624,3803 l242,0 l0,394 l-242,0 z" fill="#ff00fe" stroke="black" stroke-width="5"/>
<path d="M4901,2303 l392,0 l0,710 l-392,0 z" fill="#ff00fe" stroke="black" stroke-width="5"/>
<path d="M4442,3239 l60,0 l0,60 l-60,0 z" fill="green"/>
<path d="M4472,3269 l-184.5,-203" stroke="black" stroke-width="5"/>
<path d="M1721,3708 l60,0 l0,60 l-60,0 z" fill="green"/>
<path d="M1751,3738 l-66,30.5" stroke="black" stroke-width="5"/>
<path d="M7511,1549 l60,0 l0,60 l-60,0 z" fill="green"/>
<path d="M7541,1579 l4,-152.5" stroke="black" stroke-width="5"/>
<path d="M4630,5274 l60,0 l0,60 l-60,0 z" fill="green"/>
<path d="M4660,5304 l-1424.5,-47.5" stroke="black" stroke-width="5"/>
<path d="M5827,5108 l60,0 l0,60 l-60,0 z" fill="green"/>
<path d="M5857,5138 l-138,806" stroke="black" stroke-width="5"/>
<path d="M1308,1763 l60,0 l0,60 l-60,0 z" fill="green"/>
<path d="M1338,1793 l108.5,357" stroke="black" stroke-width="5"/>
<path d="M6423,9626 l60,0 l0,60 l-60,0 z" fill="green"/>
<path d="M6453,9656 l56,-175.5" stroke="black" stroke-width="5"/>
<path d="M542,7988 l60,0 l0,60 l-60,0 z" fill="green"/>
<path d="M572,8018 l-95,-117.5" stroke="black" stroke-width="5"/>
<path d="M1040,1192 l60,0 l0,60 l-60,0 z" fill="green"/>
<path d="M1070,1222 l-258,-421.5" stroke="black" stroke-width="5"/>
<path d="M6003,1902 l60,0 l0,60 l-60,0 z" fill="green"/>
<path d="M6033,1932 l-44,-116" stroke="black" stroke-width="5"/>
<path d="M2133,9945 l60,0 l0,60 l-60,0 z" fill="green"/>
<path d="M2163,9975 l737,-599.5" stroke="black" stroke-width="5"/>
<path d="M9887,8124 l60,0 l0,60 l-60,0 z" fill="green"/>
<path d="M9917,8154 l-61.5,7" stroke="black" stroke-width="5"/>
<path d="M2579,839 l60,0 l0,60 l-60,0 z" fill="green"/>
<path d="M2609,869 l353.5,-393" stroke="black" stroke-width="5"/>
<path d="M355,925 l60,0 l0,60 l-60,0 z" fill="green"/>
<path d="M385,955 l-158,-154.5" stroke="black" stroke-width="5"/>
<path d="M533,1683 l60,0 l0,60 l-60,0 z" fill="green"/>
<path d="M563,1713 l-74.5,436" stroke="black" stroke-width="5"/>
<path d="M9865,3393 l60,0 l0,60 l-60,0 z" fill="green"/>
<path d="M9895,3423 l-271,799.5" stroke="black" stroke-width="5"/>
<path d="M309,9385 l60,0 l0,60 l-60,0 z" fill="green"/>
<path d="M339,9415 l-115,-1741" stroke="black" stroke-width="5"/>
<path d="M6605,2936 l60,0 l0,60 l-60,0 z" fill="green"/>
<path d="M6635,2966 l271,-1100" stroke="black" stroke-width="5"/>
<path d="M4977,4352 l60,0 l0,60 l-60,0 z" fill="green"/>
<path d="M5007,4382 l99.5,438.5" stroke="black" stroke-width="5"/>
<path d="M4508,848 l60,0 l0,60 l-60,0 z" fill="green"/>
<path d="M4538,878 l-197,-125" stroke="black" stroke-width="5"/>
<path d="M1904,4199 l60,0 l0,60 l-60,0 z" fill="green"/>
<path d="M1934,4229 l180.5,373.5" stroke="black" stroke-width="5"/>
<path d="M2473,8719 l60,0 l0,60 l-60,0 z" fill="green"/>
<path d="M2503,8749 l360,-489" stroke="black" stroke-width="5"/>
<path d="M7928,6650 l60,0 l0,60 l-60,0 z" fill="green"/>
<path d="M7958,6680 l-93.5,-265.5" stroke="black" stroke-width="5"/>
<path d="M7170,2901 l60,0 l0,60 l-60,0 z" fill="green"/>
<path d="M7200,2931 l204,-321.5" stroke="black" stroke-width="5"/>
<path d="M8852,2659 l60,0 l0,60 l-60,0 z" fill="green"/>
<path d="M8882,2689 l139.5,-109" stroke="black" stroke-width="5"/>
<path d="M7602,2974 l60,0 l0,60 l-60,0 z" fill="green"/>
<path d="M7632,3004 l163,-178" stroke="black" stroke-width="5"/>
<path d="M8700,4412 l60,0 l0,60 l-60,0 z" fill="green"/>
<path d="M8730,4442 l171,517.5" stroke="black" stroke-width="5"/>
<path d="M3615,9478 l60,0 l0,60 l-60,0 z" fill="green"/>
<path d="M3645,9508 l87.5,-793.5" stroke="black" stroke-width="5"/>
<path d="M7326,9567 l60,0 l0,60 l-60,0 z" fill="green"/>
<path d="M7356,9597 l-385,-119" stroke="black" stroke-width="5"/>
<path d="M1937,3823 l60,0 l0,60 l-60,0 z" fill="green"/>
<path d="M1967,3853 l328,-129" stroke="black" stroke-width="5"/>
<path d="M5454,9373 l60,0 l0,60 l-60,0 z" fill="green"/>
<path d="M5484,9403 l-211.5,-866" stroke="black" stroke-width="5"/>
<path d="M6389,6739 l60,0 l0,60 l-60,0 z" fill="green"/>
<path d="M6419,6769 l-601.5,288.5" stroke="black" stroke-width="5"/>
<path d="M9141,9932 l60,0 l0,60 l-60,0 z" fill="green"/>
<path d="M9171,9962 l-483,-777.5" stroke="black" stroke-width="5"/>
<path d="M8877,3302 l60,0 l0,60 l-60,0 z" fill="green"/>
<path d="M8907,3332 l40.5,236" stroke="black" stroke-width="5"/>
<path d="M8509,4261 l60,0 l0,60 l-60,0 z" fill="green"/>
<path d="M8539,4291 l-178.5,-647" stroke="black" stroke-width="5"/>
<path d="M3320,4287 l60,0 l0,60 l-60,0 z" fill="green"/>
<path d="M3350,4317 l26,195.5" stroke="black" stroke-width="5"/>
<path d="M4783,4886 l60,0 l0,60 l-60,0 z" fill="green"/>
<path d="M4813,4916 l-321,-617.5" stroke="black" stroke-width="5"/>
<path d="M1582,2890 l60,0 l0,60 l-60,0 z" fill="green"/>
<path d="M1612,2920 l-652.5,84.5" stroke="black" stroke-width="5"/>
<path d="M1618,4896 l60,0 l0,60 l-60,0 z" fill="green"/>
<path d="M1648,4926 l-189.5,221" stroke="black" stroke-width="5"/>
<path d="M814,5536 l60,0 l0,60 l-60,0 z" fill="green"/>
<path d="M844,5566 l-297.5,-638.5" stroke="black" stroke-width="5"/>
<path d="M9106,5912 l60,0 l0,60 l-60,0 z" fill="green"/>
<path d="M9136,5942 l-312.5,194.5" stroke="black" stroke-width="5"/>
<path d="M6528,7344 l60,0 l0,60 l-60,0 z" fill="green"/>
<path d="M6558,7374 l-1720,143" stroke="black" stroke-width="5"/>
<path d="M4621,3439 l60,0 l0,60 l-60,0 z" fill="green"/>
<path d="M4651,3469 l-22,-562.5" stroke="black" stroke-width="5"/>
<path d="M9887,2389 l60,0 l0,60 l-60,0 z" fill="green"/>
<path d="M9917,2419 l11.5,-1013.5" stroke="black" stroke-width="5"/>
<path d="M888,3854 l60,0 l0,60 l-60,0 z" fill="green"/>
<path d="M918,3884 l-216,-241" stroke="black" stroke-width="5"/>
<path d="M1751,6560 l60,0 l0,60 l-60,0 z" fill="green"/>
<path d="M1781,6590 l-316,-588" stroke="black" stroke-width="5"/>
<path d="M8711,8337 l60,0 l0,60 l-60,0 z" fill="green"/>
<path d="M8741,8367 l308,-205" stroke="black" stroke-width="5"/>
<path d="M9038,527 l60,0 l0,60 l-60,0 z" fill="green"/>
<path d="M9068,557 l75,-278" stroke="black" stroke-width="5"/>
<path d="M6132,1988 l60,0 l0,60 l-60,0 z" fill="green"/>
<path d="M6162,2018 l91.5,-621" stroke="black" stroke-width="5"/>
<path d="M4045,3121 l60,0 l0,60 l-60,0 z" fill="green"/>
<path d="M4075,3151 l-286,-26" stroke="black" stroke-width="5"/>
<path d="M6248,4840 l60,0 l0,60 l-60,0 z" fill="green"/>
<path d="M6278,4870 l-29,-419.5" stroke="black" stroke-width="5"/>
<path d="M6441,1741 l60,0 l0,60 l-60,0 z" fill="green"/>
<path d="M6471,1771 l45,54" stroke="black" stroke-width="5"/>
<path d="M4645,244 l60,0 l0,60 l-60,0 z" fill="green"/>
<path d="M4675,274 l-608.5,-123" stroke="black" stroke-width="5"/>
<path d="M9826,2432 l60,0 l0,60 l-60,0 z" fill="green"/>
<path d="M9856,2462 l-736.5,-951.5" stroke="black" stroke-width="5"/>
<path d="M5817,556 l60,0 l0,60 l-60,0 z" fill="green"/>
<path d="M5847,586 l366.5,-222.5" stroke="black" stroke-width="5"/>
<path d="M5318,1297 l60,0 l0,60 l-60,0 z" fill="green"/>
<path d="M5348,1327 l-183.5,-68" stroke="black" stroke-width="5"/>
<path d="M5825,3795 l60,0 l0,60 l-60,0 z" fill="green"/>
<path d="M5855,3825 l394,-186" stroke="black" stroke-width="5"/>
<path d="M4531,5427 l60,0 l0,60 l-60,0 z" fill="green"/>
<path d="M4561,5457 l355.5,639" stroke="black" stroke-width="5"/>
<path d="M6806,8755 l60,0 l0,60 l-60,0 z" fill="green"/>
<path d="M6836,8785 l163,22" stroke="black" stroke-width="5"/>
<path d="M5713,2579 l60,0 l0,60 l-60,0 z" fill="green"/>
<path d="M5743,2609 l-97,-940.5" stroke="black" stroke-width="5"/>
<path d="M7106,5199 l60,0 l0,60 l-60,0 z" fill="green"/>
<path d="M7136,5229 l61.5,618" stroke="black" stroke-width="5"/>
<path d="M6523,7790 l60,0 l0,60 l-60,0 z" fill="green"/>
<path d="M6553,7820 l-219,273" stroke="black" stroke-width="5"/>
<path d="M8344,8131 l60,0 l0,60 l-60,0 z" fill="green"/>
<path d="M8374,8161 l-906,-734" stroke="black" stroke-width="5"/>
<path d="M5250,9729 l60,0 l0,60 l-60,0 z" fill="green"/>
<path d="M5280,9759 l-151.5,-57" stroke="black" stroke-width="5"/>
<path d="M3990,4376 l60,0 l0,60 l-60,0 z" fill="green"/>
<path d="M4020,4406 l-58,203" stroke="black" stroke-width="5"/>
<path d="M3286,2897 l60,0 l0,60 l-60,0 z" fill="green"/>
<path d="M3316,2927 l76,64.5" stroke="black" stroke-width="5"/>
<path d="M1907,990 l60,0 l0,60 l-60,0 z" fill="green"/>
<path d="M1937,1020 l266,-410" stroke="black" stroke-width="5"/>
<path d="M5177,4151 l60,0 l0,60 l-60,0 z" fill="green"/>
<path d="M5207,4181 l-145,-515" stroke="black" stroke-width="5"/>
<path d="M8657,6761 l60,0 l0,60 l-60,0 z" fill="green"/>
<path d="M8687,6791 l127,554" stroke="black" stroke-width="5"/>
<path d="M180,9416 l60,0 l0,60 l-60,0 z" fill="green"/>
<path d="M210,9446 l63.5,262.5" stroke="black" stroke-width="5"/>
<path d="M5262,1550 l60,0 l0,60 l-60,0 z" fill="green"/>
<path d="M5292,1580 l-613,234.5" stroke="black" stroke-width="5"/>
<path d="M8473,5455 l60,0 l0,60 l-60,0 z" fill="green"/>
<path d="M8503,5485 l-57,1201.5" stroke="black" stroke-width="5"/>
<path d="M9304,9279 l60,0 l0,60 l-60,0 z" fill="green"/>
<path d="M9334,9309 l252.5,-122.5" stroke="black" stroke-width="5"/>
<path d="M7717,318 l60,0 l0,60 l-60,0 z" fill="green"/>
<path d="M7747,348 l169,-121.5" stroke="black" stroke-width="5"/>
<path d="M4506,5358 l60,0 l0,60 l-60,0 z" fill="green"/>
<path d="M4536,5388 l-1297.5,464.5" stroke="black" stroke-width="5"/>
<path d="M7836,9699 l60,0 l0,60 l-60,0 z" fill="green"/>
<path d="M7866,9729 l-85.5,-643.5" stroke="black" stroke-width="5"/>
<path d="M518,9016 l60,0 l0,60 l-60,0 z" fill="green"/>
<path d="M548,9046 l805,44" stroke="black" stroke-width="5"/>
<path d="M7734,584 l60,0 l0,60 l-60,0 z" fill="green"/>
<path d="M7764,614 l245.5,186" stroke="black" stroke-width="5"/>
<path d="M7939,2153 l60,0 l0,60 l-60,0 z" fill="green"/>
<path d="M7969,2183 l125.5,-243" stroke="black" stroke-width="5"/>
<path d="M636,6747 l60,0 l0,60 l-60,0 z" fill="green"/>
<path d="M666,6777 l452,402.5" stroke="black" stroke-width="5"/>
<path d="M1145,905 l60,0 l0,60 l-60,0 z" fill="green"/>
<path d="M1175,935 l320.5,8" stroke="black" stroke-width="5"/>
<path d="M4292,6345 l60,0 l0,60 l-60,0 z" fill="green"/>
<path d="M4322,6375 l-482,345.5" stroke="black" stroke-width="5"/>
<path d="M2403,7590 l60,0 l0,60 l-60,0 z" fill="green"/>
<path d="M2433,7620 l177.5,-495" stroke="black" stroke-width="5"/>
<path d="M1889,2661 l60,0 l0,60 l-60,0 z" fill="green"/>
<path d="M1919,2691 l1044.5,-723.5" stroke="black" stroke-width="5"/>
<path d="M6191,2319 l60,0 l0,60 l-60,0 z" fill="green"/>
<path d="M6221,2349 l56.5,409" stroke="black" stroke-width="5"/>
<path d="M1064,4470 l60,0 l0,60 l-60,0 z" fill="green"/>
<path d="M1094,4500 l405,61.5" stroke="black" stroke-width="5"/>
<path d="M5783,5053 l60,0 l0,60 l-60,0 z" fill="green"/>
<path d="M5813,5083 l-191,-1209" stroke="black" stroke-width="5"/>
<path d="M4137,3909 l60,0 l0,60 l-60,0 z" fill="green"/>
<path d="M4167,3939 l-615,-220.5" stroke="black" stroke-width="5"/>
<path d="M2087,7995 l60,0 l0,60 l-60,0 z" fill="green"/>
<path d="M2117,8025 l-40,-448" stroke="black" stroke-width="5"/>
<path d="M586,8288 l60,0 l0,60 l-60,0 z" fill="green"/>
<path d="M616,8318 l637.5,-276" stroke="black" stroke-width="5"/>
<path d="M659,9965 l60,0 l0,60 l-60,0 z" fill="green"/>
<path d="M689,9995 l663.5,-188.5" stroke="black" stroke-width="5"/>
<path d="M781,5852 l60,0 l0,60 l-60,0 z" fill="green"/>
<path d="M811,5882 l-137,307" stroke="black" stroke-width="5"/>
<path d="M8602,5409 l60,0 l0,60 l-60,0 z" fill="green"/>
<path d="M8632,5439 l-556,-400.5" stroke="black" stroke-width="5"/>
<path d="M6200,5042 l60,0 l0,60 l-60,0 z" fill="green"/>
<path d="M6230,5072 l286,805" stroke="black" stroke-width="5"/>
<path d="M8043,4235 l60,0 l0,60 l-60,0 z" fill="green"/>
<path d="M8073,4265 l-710.5,-515.5" stroke="black" stroke-width="5"/>
<path d="M6622,4585 l60,0 l0,60 l-60,0 z" fill="green"/>
<path d="M6652,4615 l384.5,167" stroke="black" stroke-width="5"/>
<path d="M9301,5612 l60,0 l0,60 l-60,0 z" fill="green"/>
<path d="M9331,5642 l238.5,1151" stroke="black" stroke-width="5"/>
<path d="M2771,4279 l60,0 l0,60 l-60,0 z" fill="green"/>
<path d="M2801,4309 l-65.5,176" stroke="black" stroke-width="5"/>
<path d="M766,8532 l60,0 l0,60 l-60,0 z" fill="green"/>
<path d="M796,8562 l503,-119" stroke="black" stroke-width="5"/>
<path d="M2790,4045 l60,0 l0,60 l-60,0 z" fill="green"/>
<path d="M2820,4075 l-75,-75" stroke="black" stroke-width="5"/>
<path d="M5210,2274 l60,0 l0,60 l-60,0 z" fill="green"/>
<path d="M5240,2304 l-143,354" stroke="black" stroke-width="5"/>
<text font-size="140.71950894605837" text-anchor="middle" x="4287.5" y="3115.2518281311204">
0
</text>
<text font-size="140.71950894605837" text-anchor="middle" x="1685" y="3817.7518281311204">
1
</text>
<text font-size="140.71950894605837" text-anchor="middle" x="7545" y="1475.7518281311204">
2
</text>
<text font-size="140.71950894605837" text-anchor="middle" x="3235.5" y="5305.75182813112">
3
</text>
<text font-size="140.71950894605837" text-anchor="middle" x="5719" y="5993.25182813112">
4
</text>
<text font-size="140.71950894605837" text-anchor="middle" x="1446.5" y="2199.2518281311204">
5
</text>
<text font-size="140.71950894605837" text-anchor="middle" x="6509" y="9529.75182813112">
6
</text>
<text font-size="140.71950894605837" text-anchor="middle" x="477" y="7949.75182813112">
7
</text>
<text font-size="140.71950894605837" text-anchor="middle" x="812" y="849.7518281311204">
8
</text>
<text font-size="140.71950894605837" text-anchor="middle" x="5989" y="1865.2518281311204">
9
</text>
<text font-size="140.71950894605837" text-anchor="middle" x="2900" y="9424.75182813112">
10
</text>
<text font-size="140.71950894605837" text-anchor="middle" x="9855.5" y="8210.25182813112">
11
</text>
<text font-size="140.71950894605837" text-anchor="middle" x="2962.5" y="525.2518281311204">
12
</text>
<text font-size="140.71950894605837" text-anchor="middle" x="227" y="849.7518281311204">
13
</text>
<text font-size="140.71950894605837" text-anchor="middle" x="488.5" y="2198.2518281311204">
14
</text>
<text font-size="140.71950894605837" text-anchor="middle" x="9624" y="4271.75182813112">
15
</text>
<text font-size="140.71950894605837" text-anchor="middle" x="224" y="7723.25182813112">
16
</text>
<text font-size="140.71950894605837" text-anchor="middle" x="6906" y="1915.2518281311204">
17
</text>
<text font-size="140.71950894605837" text-anchor="middle" x="5106.5" y="4869.75182813112">
18
</text>
<text font-size="140.71950894605837" text-anchor="middle" x="4341" y="802.2518281311204">
19
</text>
<text font-size="140.71950894605837" text-anchor="middle" x="2114.5" y="4651.75182813112">
20
</text>
<text font-size="140.71950894605837" text-anchor="middle" x="2863" y="8309.25182813112">
21
</text>
<text font-size="140.71950894605837" text-anchor="middle" x="7864.5" y="6463.75182813112">
22
</text>
<text font-size="140.71950894605837" text-anchor="middle" x="7404" y="2658.7518281311204">
23
</text>
<text font-size="140.71950894605837" text-anchor="middle" x="9021.5" y="2629.2518281311204">
24
</text>
<text font-size="140.71950894605837" text-anchor="middle" x="7795" y="2875.2518281311204">
25
</text>
<text font-size="140.71950894605837" text-anchor="middle" x="8901" y="5008.75182813112">
26
</text>
<text font-size="140.71950894605837" text-anchor="middle" x="3732.5" y="8763.75182813112">
27
</text>
<text font-size="140.71950894605837" text-anchor="middle" x="6971" y="9527.25182813112">
28
</text>
<text font-size="140.71950894605837" text-anchor="middle" x="2295" y="3773.2518281311204">
29
</text>
<text font-size="140.71950894605837" text-anchor="middle" x="5272.5" y="8586.25182813112">
30
</text>
<text font-size="140.71950894605837" text-anchor="middle" x="5817.5" y="7106.75182813112">
31
</text>
<text font-size="140.71950894605837" text-anchor="middle" x="8688" y="9233.75182813112">
32
</text>
<text font-size="140.71950894605837" text-anchor="middle" x="8947.5" y="3617.2518281311204">
33
</text>
<text font-size="140.71950894605837" text-anchor="middle" x="8360.5" y="3693.2518281311204">
34
</text>
<text font-size="140.71950894605837" text-anchor="middle" x="3376" y="4561.75182813112">
35
</text>
<text font-size="140.71950894605837" text-anchor="middle" x="4492" y="4347.75182813112">
36
</text>
<text font-size="140.71950894605837" text-anchor="middle" x="959.5" y="3053.7518281311204">
37
</text>
<text font-size="140.71950894605837" text-anchor="middle" x="1458.5" y="5196.25182813112">
38
</text>
<text font-size="140.71950894605837" text-anchor="middle" x="546.5" y="4976.75182813112">
39
</text>
<text font-size="140.71950894605837" text-anchor="middle" x="8823.5" y="6185.75182813112">
40
</text>
<text font-size="140.71950894605837" text-anchor="middle" x="4838" y="7566.25182813112">
41
</text>
<text font-size="140.71950894605837" text-anchor="middle" x="4629" y="2955.7518281311204">
42
</text>
<text font-size="140.71950894605837" text-anchor="middle" x="9928.5" y="1454.7518281311204">
43
</text>
<text font-size="140.71950894605837" text-anchor="middle" x="702" y="3692.2518281311204">
44
</text>
<text font-size="140.71950894605837" text-anchor="middle" x="1465" y="6051.25182813112">
45
</text>
<text font-size="140.71950894605837" text-anchor="middle" x="9049" y="8211.25182813112">
46
</text>
<text font-size="140.71950894605837" text-anchor="middle" x="9143" y="328.2518281311204">
47
</text>
<text font-size="140.71950894605837" text-anchor="middle" x="6253.5" y="1446.2518281311204">
48
</text>
<text font-size="140.71950894605837" text-anchor="middle" x="3789" y="3174.2518281311204">
49
</text>
<text font-size="140.71950894605837" text-anchor="middle" x="6249" y="4499.75182813112">
50
</text>
<text font-size="140.71950894605837" text-anchor="middle" x="6516" y="1874.2518281311204">
51
</text>
<text font-size="140.71950894605837" text-anchor="middle" x="4066.5" y="200.25182813112042">
52
</text>
<text font-size="140.71950894605837" text-anchor="middle" x="9119.5" y="1559.7518281311204">
53
</text>
<text font-size="140.71950894605837" text-anchor="middle" x="6213.5" y="412.7518281311204">
54
</text>
<text font-size="140.71950894605837" text-anchor="middle" x="5164.5" y="1308.2518281311204">
55
</text>
<text font-size="140.71950894605837" text-anchor="middle" x="6249" y="3688.2518281311204">
56
</text>
<text font-size="140.71950894605837" text-anchor="middle" x="4916.5" y="6145.25182813112">
57
</text>
<text font-size="140.71950894605837" text-anchor="middle" x="6999" y="8856.25182813112">
58
</text>
<text font-size="140.71950894605837" text-anchor="middle" x="5646" y="1717.7518281311204">
59
</text>
<text font-size="140.71950894605837" text-anchor="middle" x="7197.5" y="5896.25182813112">
60
</text>
<text font-size="140.71950894605837" text-anchor="middle" x="6334" y="8142.25182813112">
61
</text>
<text font-size="140.71950894605837" text-anchor="middle" x="7468" y="7476.25182813112">
62
</text>
<text font-size="140.71950894605837" text-anchor="middle" x="5128.5" y="9751.25182813112">
63
</text>
<text font-size="140.71950894605837" text-anchor="middle" x="3962" y="4658.25182813112">
64
</text>
<text font-size="140.71950894605837" text-anchor="middle" x="3392" y="3040.7518281311204">
65
</text>
<text font-size="140.71950894605837" text-anchor="middle" x="2203" y="659.2518281311204">
66
</text>
<text font-size="140.71950894605837" text-anchor="middle" x="5062" y="3715.2518281311204">
67
</text>
<text font-size="140.71950894605837" text-anchor="middle" x="8814" y="7394.25182813112">
68
</text>
<text font-size="140.71950894605837" text-anchor="middle" x="273.5" y="9757.75182813112">
69
</text>
<text font-size="140.71950894605837" text-anchor="middle" x="4679" y="1863.7518281311204">
70
</text>
<text font-size="140.71950894605837" text-anchor="middle" x="8446" y="6735.75182813112">
71
</text>
<text font-size="140.71950894605837" text-anchor="middle" x="9586.5" y="9235.75182813112">
72
</text>
<text font-size="140.71950894605837" text-anchor="middle" x="7916" y="275.7518281311204">
73
</text>
<text font-size="140.71950894605837" text-anchor="middle" x="3238.5" y="5901.75182813112">
74
</text>
<text font-size="140.71950894605837" text-anchor="middle" x="7780.5" y="9134.75182813112">
75
</text>
<text font-size="140.71950894605837" text-anchor="middle" x="1353" y="9139.25182813112">
76
</text>
<text font-size="140.71950894605837" text-anchor="middle" x="8009.5" y="849.2518281311204">
77
</text>
<text font-size="140.71950894605837" text-anchor="middle" x="8094.5" y="1989.2518281311204">
78
</text>
<text font-size="140.71950894605837" text-anchor="middle" x="1118" y="7228.75182813112">
79
</text>
<text font-size="140.71950894605837" text-anchor="middle" x="1495.5" y="992.2518281311204">
80
</text>
<text font-size="140.71950894605837" text-anchor="middle" x="3840" y="6769.75182813112">
81
</text>
<text font-size="140.71950894605837" text-anchor="middle" x="2610.5" y="7174.25182813112">
82
</text>
<text font-size="140.71950894605837" text-anchor="middle" x="2963.5" y="2016.7518281311204">
83
</text>
<text font-size="140.71950894605837" text-anchor="middle" x="6277.5" y="2807.2518281311204">
84
</text>
<text font-size="140.71950894605837" text-anchor="middle" x="1499" y="4610.75182813112">
85
</text>
<text font-size="140.71950894605837" text-anchor="middle" x="5622" y="3923.2518281311204">
86
</text>
<text font-size="140.71950894605837" text-anchor="middle" x="3552" y="3767.7518281311204">
87
</text>
<text font-size="140.71950894605837" text-anchor="middle" x="2077" y="7626.25182813112">
88
</text>
<text font-size="140.71950894605837" text-anchor="middle" x="1253.5" y="8091.25182813112">
89
</text>
<text font-size="140.71950894605837" text-anchor="middle" x="1352.5" y="9855.75182813112">
90
</text>
<text font-size="140.71950894605837" text-anchor="middle" x="674" y="6238.25182813112">
91
</text>
<text font-size="140.71950894605837" text-anchor="middle" x="8076" y="5087.75182813112">
92
</text>
<text font-size="140.71950894605837" text-anchor="middle" x="6516" y="5926.25182813112">
93
</text>
<text font-size="140.71950894605837" text-anchor="middle" x="7362.5" y="3798.7518281311204">
94
</text>
<text font-size="140.71950894605837" text-anchor="middle" x="7036.5" y="4831.25182813112">
95
</text>
<text font-size="140.71950894605837" text-anchor="middle" x="9569.5" y="6842.25182813112">
96
</text>
<text font-size="140.71950894605837" text-anchor="middle" x="2735.5" y="4534.25182813112">
97
</text>
<text font-size="140.71950894605837" text-anchor="middle" x="1299" y="8492.25182813112">
98
</text>
<text font-size="140.71950894605837" text-anchor="middle" x="2745" y="4049.2518281311204">
99
</text>
<text font-size="140.71950894605837" text-anchor="middle" x="5097" y="2707.2518281311204">
100
</text>
</svg>