<svg viewBox="0 0 10000 10000" xmlns="http://www.w3.org/2000/svg">
<path d="M0,0 l10000,0 l0,10000 l-10000,0 z" fill="white"/>
<path d="M3258,5883 l157,0 l0,278 l-157,0 z" fill="#ff00fe" stroke="black" stroke-width="5"/>
<path d="M7988,7807 l1438,0 l0,961 l-1438,0 z" fill="#ff00fe" stroke="black" stroke-width="5"/>
<path d="M1453,5858 l699,0 l0,510 l-699,0 z" fill="#ff00fe" stroke="black" stroke-width="5"/>
<path d="M25,5591 l821,0 l0,1400 l-821,0 z" fill="#ff00fe" stroke="black" stroke-width="5"/>
<path d="M0,3072 l1395,0 l0,2154 l-1395,0 z" fill="#fe00ff" stroke="black" stroke-width="5"/>
<path d="M8195,3502 l170,0 l0,1695 l-170,0 z" fill="#ff00fe" stroke="black" stroke-width="5"/>
<path d="M9108,1161 l722,0 l0,549 l-722,0 z" fill="#ff00fe" stroke="black" stroke-width="5"/>
<path d="M5996,4026 l589,0 l0,934 l-589,0 z" fill="#ff00fe" stroke="black" stroke-width="5"/>
<path d="M1994,0 l3514,0 l0,635 l-3514,0 z" fill="#4f00ff" stroke="black" stroke-width="5"/>
<path d="M7016,6247 l1756,0 l0,219 l-1756,0 z" fill="#ff00fe" stroke="black" stroke-width="5"/>
<path d="M9234,3870 l702,0 l0,306 l-702,0 z" fill="#ff00fe" stroke="black" stroke-width="5"/>
<path d="M5577,8182 l677,0 l0,1561 l-677,0 z" fill="#ff00fe" stroke="black" stroke-width="5"/>
<path d="M8823,5191 l1177,0 l0,1210 l-1177,0 z" fill="#8500ff" stroke="black" stroke-width="5"/>
<path d="M4986,5513 l174,0 l0,738 l-174,0 z" fill="#ff00fe" stroke="black" stroke-width="5"/>
<path d="M9112,6401 l239,0 l0,688 l-239,0 z" fill="#ff00fe" stroke="black" stroke-width="5"/>
<path d="M7995,8769 l1255,0 l0,1226 l-1255,0 z" fill="#fe00ff" stroke="black" stroke-width="5"/>
<path d="M3875,3961 l1320,0 l0,1508 l-1320,0 z" fill="#e600ff" stroke="black" stroke-width="5"/>
<path d="M6098,578 l1871,0 l0,285 l-1871,0 z" fill="#fa00ff" stroke="black" stroke-width="5"/>
<path d="M2611,636 l888,0 l0,2592 l-888,0 z" fill="#fc00ff" stroke="black" stroke-width="5"/>
<path d="M7267,7961 l666,0 l0,1925 l-666,0 z" fill="#ff00fe" stroke="black" stroke-width="5"/>
<path d="M899,5512 l3641,0 l0,314 l-3641,0 z" fill="#fe00ff" stroke="black" stroke-width="5"/>
<path d="M7970,601 l919,0 l0,1037 l-919,0 z" fill="#ff00fe" stroke="black" stroke-width="5"/>
<path d="M3,1 l1990,0 l0,494 l-1990,0 z" fill="#ff00fe" stroke="black" stroke-width="5"/>
<path d="M1010,7861 l1193,0 l0,578 l-1193,0 z" fill="#ff00fe" stroke="black" stroke-width="5"/>
<path d="M3902,8981 l524,0 l0,632 l-524,0 z" fill="#ff00fe" stroke="black" stroke-width="5"/>
<path d="M5620,5744 l779,0 l0,1058 l-779,0 z" fill="#ff00fe" stroke="black" stroke-width="5"/>
<path d="M9268,1745 l379,0 l0,2125 l-379,0 z" fill="#ff00fe" stroke="black" stroke-width="5"/>
<path d="M8098,1741 l629,0 l0,1699 l-629,0 z" fill="#ff00fe" stroke="black" stroke-width="5"/>
<path d="M3772,3125 l758,0 l0,564 l-758,0 z" fill="#ff00fe" stroke="black" stroke-width="5"/>
<path d="M3893,2090 l2203,0 l0,174 l-2203,0 z" fill="#fe00ff" stroke="black" stroke-width="5"/>
<path d="M4949,9462 l470,0 l0,335 l-470,0 z" fill="#ff00fe" stroke="black" stroke-width="5"/>
<path d="M8899,0 l1101,0 l0,1161 l-1101,0 z" fill="#fc00ff" stroke="black" stroke-width="5"/>
<path d="M6729,5744 l2094,0 l0,503 l-2094,0 z" fill="#f300ff" stroke="black" stroke-width="5"/>
<path d="M5195,5197 l3628,0 l0,547 l-3628,0 z" fill="#ef00ff" stroke="black" stroke-width="5"/>
<path d="M1844,638 l767,0 l0,2541 l-767,0 z" fill="#fc00ff" stroke="black" stroke-width="5"/>
<path d="M6774,8035 l493,0 l0,1623 l-493,0 z" fill="#ff00fe" stroke="black" stroke-width="5"/>
<path d="M3499,640 l393,0 l0,2485 l-393,0 z" fill="#fd00ff" stroke="black" stroke-width="5"/>
<path d="M1396,3179 l898,0 l0,2333 l-898,0 z" fill="#fd00ff" stroke="black" stroke-width="5"/>
<path d="M9078,7152 l354,0 l0,643 l-354,0 z" fill="#ff00fe" stroke="black" stroke-width="5"/>
<path d="M7585,3093 l234,0 l0,421 l-234,0 z" fill="#ff00fe" stroke="black" stroke-width="5"/>
<path d="M6623,4235 l881,0 l0,933 l-881,0 z" fill="#ff00fe" stroke="black" stroke-width="5"/>
<path d="M3356,3958 l517,0 l0,1554 l-517,0 z" fill="#fa00ff" stroke="black" stroke-width="5"/>
<path d="M8727,1762 l541,0 l0,925 l-541,0 z" fill="#ff00fe" stroke="black" stroke-width="5"/>
<path d="M4843,635 l1255,0 l0,1455 l-1255,0 z" fill="#d300ff" stroke="black" stroke-width="5"/>
<path d="M4758,3052 l2781,0 l0,638 l-2781,0 z" fill="#fb00ff" stroke="black" stroke-width="5"/>
<path d="M6101,863 l1867,0 l0,772 l-1867,0 z" fill="#2100ff" stroke="black" stroke-width="5"/>
<path d="M9250,8801 l694,0 l0,1198 l-694,0 z" fill="#ff00fe" stroke="black" stroke-width="5"/>
<path d="M3139,3400 l217,0 l0,1988 l-217,0 z" fill="#fe00ff" stroke="black" stroke-width="5"/>
<path d="M3892,2298 l175,0 l0,812 l-175,0 z" fill="#ff00fe" stroke="black" stroke-width="5"/>
<path d="M4549,5469 l399,0 l0,4501 l-399,0 z" fill="#ff00fe" stroke="black" stroke-width="5"/>
<path d="M3892,639 l951,0 l0,1450 l-951,0 z" fill="#fc00ff" stroke="black" stroke-width="5"/>
<path d="M8365,4176 l1635,0 l0,1015 l-1635,0 z" fill="#4e00ff" stroke="black" stroke-width="5"/>
<path d="M1054,6840 l1111,0 l0,959 l-1111,0 z" fill="#ff00fe" stroke="black" stroke-width="5"/>
<path d="M7539,1665 l559,0 l0,1401 l-559,0 z" fill="#ff00fe" stroke="black" stroke-width="5"/>
<path d="M1225,6443 l936,0 l0,353 l-936,0 z" fill="#ff00fe" stroke="black" stroke-width="5"/>
<path d="M5195,4174 l801,0 l0,703 l-801,0 z" fill="#fe00ff" stroke="black" stroke-width="5"/>
<path d="M7706,6466 l1369,0 l0,1341 l-1369,0 z" fill="#ff00fe" stroke="black" stroke-width="5"/>
<path d="M861,687 l957,0 l0,2141 l-957,0 z" fill="#ff00fe" stroke="black" stroke-width="5"/>
<path d="M6098,1635 l1305,0 l0,1365 l-1305,0 z" fill="#ff00fe" stroke="black" stroke-width="5"/>
<path d="M7447,7491 l231,0 l0,433 l-231,0 z" fill="#ff00fe" stroke="black" stroke-width="5"/>
<path d="M5508,0 l3391,0 l0,578 l-3391,0 z" fill="#e700ff" stroke="black" stroke-width="5"/>
<path d="M604,7027 l398,0 l0,569 l-398,0 z" fill="#ff00fe" stroke="black" stroke-width="5"/>
<path d="M4978,7608 l568,0 l0,1851 l-568,0 z" fill="#ff00fe" stroke="black" stroke-width="5"/>
<path d="M9734,2858 l263,0 l0,788 l-263,0 z" fill="#ff00fe" stroke="black" stroke-width="5"/>
<path d="M1282,9329 l1153,0 l0,650 l-1153,0 z" fill="#ff00fe" stroke="black" stroke-width="5"/>
<path d="M579,8578 l1991,0 l0,693 l-1991,0 z" fill="#ff00fe" stroke="black" stroke-width="5"/>
<path d="M3359,3690 l4836,0 l0,268 l-4836,0 z" fill="#fd00ff" stroke="black" stroke-width="5"/>
<path d="M4661,3053 l97,0 l0,127 l-97,0 z" fill="#ff00fe" stroke="black" stroke-width="5"/>
<path d="M8852,2702 l213,0 l0,162 l-213,0 z" fill="#ff00fe" stroke="black" stroke-width="5"/>
<path d="M8447,3645 l546,0 l0,462 l-546,0 z" fill="#ff00fe" stroke="black" stroke-width="5"/>
<path d="M6269,8454 l493,0 l0,935 l-493,0 z" fill="#ff00fe" stroke="black" stroke-width="5"/>
<path d="M7,2846 l1836,0 l0,226 l-1836,0 z" fill="#ff00fe" stroke="black" stroke-width="5"/>
<path d="M133,5227 l1225,0 l0,190 l-1225,0 z" fill="#ff00fe" stroke="black" stroke-width="5"/>
<path d="M2596,8922 l1252,0 l0,1027 l-1252,0 z" fill="#ff00fe" stroke="black" stroke-width="5"/>
<path d="M3419,5826 l1067,0 l0,1185 l-1067,0 z" fill="#ff00fe" stroke="black" stroke-width="5"/>
<path d="M9435,6464 l565,0 l0,2332 l-565,0 z" fill="#ff00fe" stroke="black" stroke-width="5"/>
<path d="M2215,6222 l509,0 l0,2019 l-509,0 z" fill="#ff00fe" stroke="black" stroke-width="5"/>
<path d="M1,7098 l575,0 l0,2902 l-575,0 z" fill="#fe00ff" stroke="black" stroke-width="5"/>
<path d="M6557,5777 l171,0 l0,1452 l-171,0 z" fill="#ff00fe" stroke="black" stroke-width="5"/>
<path d="M304,568 l509,0 l0,379 l-509,0 z" fill="#ff00fe" stroke="black" stroke-width="5"/>
<path d="M3183,7011 l1363,0 l0,1809 l-1363,0 z" fill="#ff00fe" stroke="black" stroke-width="5"/>
<path d="M2755,5852 l427,0 l0,2984 l-427,0 z" fill="#ff00fe" stroke="black" stroke-width="5"/>
<path d="M268,1380 l556,0 l0,1466 l-556,0 z" fill="#ff00fe" stroke="black" stroke-width="5"/>
<path d="M4067,2264 l2031,0 l0,788 l-2031,0 z" fill="#ea00ff" stroke="black" stroke-width="5"/>
<path d="M2294,3228 l844,0 l0,2281 l-844,0 z" fill="#fd00ff" stroke="black" stroke-width="5"/>
<path d="M3280,5866 l60,0 l0,60 l-60,0 z" fill="green"/>
<path d="M3310,5896 l26.5,126" stroke="black" stroke-width="5"/>
<path d="M8907,7781 l60,0 l0,60 l-60,0 z" fill="green"/>
<path d="M8937,7811 l-230,476.5" stroke="black" stroke-width="5"/>
<path d="M1886,5974 l60,0 l0,60 l-60,0 z" fill="green"/>
<path d="M1916,6004 l-113.5,109" stroke="black" stroke-width="5"/>
<path d="M591,5922 l60,0 l0,60 l-60,0 z" fill="green"/>
<path d="M621,5952 l-185.5,339" stroke="black" stroke-width="5"/>
<path d="M1364,3506 l60,0 l0,60 l-60,0 z" fill="green"/>
<path d="M1394,3536 l-696.5,613" stroke="black" stroke-width="5"/>
<path d="M8334,5166 l60,0 l0,60 l-60,0 z" fill="green"/>
<path d="M8364,5196 l-84,-846.5" stroke="black" stroke-width="5"/>
<path d="M9125,1131 l60,0 l0,60 l-60,0 z" fill="green"/>
<path d="M9155,1161 l314,274.5" stroke="black" stroke-width="5"/>
<path d="M6124,4036 l60,0 l0,60 l-60,0 z" fill="green"/>
<path d="M6154,4066 l136.5,427" stroke="black" stroke-width="5"/>
<path d="M4994,380 l60,0 l0,60 l-60,0 z" fill="green"/>
<path d="M5024,410 l-1273,-92.5" stroke="black" stroke-width="5"/>
<path d="M8262,6219 l60,0 l0,60 l-60,0 z" fill="green"/>
<path d="M8292,6249 l-398,107.5" stroke="black" stroke-width="5"/>
<path d="M9316,4145 l60,0 l0,60 l-60,0 z" fill="green"/>
<path d="M9346,4175 l239,-152" stroke="black" stroke-width="5"/>
<path d="M5746,9556 l60,0 l0,60 l-60,0 z" fill="green"/>
<path d="M5776,9586 l139.5,-623.5" stroke="black" stroke-width="5"/>
<path d="M9824,5616 l60,0 l0,60 l-60,0 z" fill="green"/>
<path d="M9854,5646 l-442.5,150" stroke="black" stroke-width="5"/>
<path d="M5017,5561 l60,0 l0,60 l-60,0 z" fill="green"/>
<path d="M5047,5591 l26,291" stroke="black" stroke-width="5"/>
<path d="M9158,6371 l60,0 l0,60 l-60,0 z" fill="green"/>
<path d="M9188,6401 l43.5,344" stroke="black" stroke-width="5"/>
<path d="M8404,9336 l60,0 l0,60 l-60,0 z" fill="green"/>
<path d="M8434,9366 l188.5,16" stroke="black" stroke-width="5"/>
<path d="M4897,4082 l60,0 l0,60 l-60,0 z" fill="green"/>
<path d="M4927,4112 l-392,603" stroke="black" stroke-width="5"/>
<path d="M6767,633 l60,0 l0,60 l-60,0 z" fill="green"/>
<path d="M6797,663 l236.5,57.5" stroke="black" stroke-width="5"/>
<path d="M2887,2619 l60,0 l0,60 l-60,0 z" fill="green"/>
<path d="M2917,2649 l138,-717" stroke="black" stroke-width="5"/>
<path d="M7641,9390 l60,0 l0,60 l-60,0 z" fill="green"/>
<path d="M7671,9420 l-71,-496.5" stroke="black" stroke-width="5"/>
<path d="M3552,5790 l60,0 l0,60 l-60,0 z" fill="green"/>
<path d="M3582,5820 l-862.5,-151" stroke="black" stroke-width="5"/>
<path d="M7940,742 l60,0 l0,60 l-60,0 z" fill="green"/>
<path d="M7970,772 l459.5,347.5" stroke="black" stroke-width="5"/>
<path d="M1962,-20 l60,0 l0,60 l-60,0 z" fill="green"/>
<path d="M1992,10 l-994,238" stroke="black" stroke-width="5"/>
<path d="M1534,8391 l60,0 l0,60 l-60,0 z" fill="green"/>
<path d="M1564,8421 l42.5,-271" stroke="black" stroke-width="5"/>
<path d="M4251,9057 l60,0 l0,60 l-60,0 z" fill="green"/>
<path d="M4281,9087 l-117,210" stroke="black" stroke-width="5"/>
<path d="M6005,6158 l60,0 l0,60 l-60,0 z" fill="green"/>
<path d="M6035,6188 l-25.5,85" stroke="black" stroke-width="5"/>
<path d="M9303,3839 l60,0 l0,60 l-60,0 z" fill="green"/>
<path d="M9333,3869 l124.5,-1061.5" stroke="black" stroke-width="5"/>
<path d="M8454,3360 l60,0 l0,60 l-60,0 z" fill="green"/>
<path d="M8484,3390 l-71.5,-799.5" stroke="black" stroke-width="5"/>
<path d="M3764,3098 l60,0 l0,60 l-60,0 z" fill="green"/>
<path d="M3794,3128 l357,279" stroke="black" stroke-width="5"/>
<path d="M5705,2084 l60,0 l0,60 l-60,0 z" fill="green"/>
<path d="M5735,2114 l-740.5,63" stroke="black" stroke-width="5"/>
<path d="M5043,9724 l60,0 l0,60 l-60,0 z" fill="green"/>
<path d="M5073,9754 l111,-124.5" stroke="black" stroke-width="5"/>
<path d="M9006,234 l60,0 l0,60 l-60,0 z" fill="green"/>
<path d="M9036,264 l413.5,316.5" stroke="black" stroke-width="5"/>
<path d="M8789,6020 l60,0 l0,60 l-60,0 z" fill="green"/>
<path d="M8819,6050 l-1043,-54.5" stroke="black" stroke-width="5"/>
<path d="M8587,5475 l60,0 l0,60 l-60,0 z" fill="green"/>
<path d="M8617,5505 l-1608,-34.5" stroke="black" stroke-width="5"/>
<path d="M2201,2701 l60,0 l0,60 l-60,0 z" fill="green"/>
<path d="M2231,2731 l-3.5,-822.5" stroke="black" stroke-width="5"/>
<path d="M7206,9329 l60,0 l0,60 l-60,0 z" fill="green"/>
<path d="M7236,9359 l-215.5,-512.5" stroke="black" stroke-width="5"/>
<path d="M3859,2786 l60,0 l0,60 l-60,0 z" fill="green"/>
<path d="M3889,2816 l-193.5,-933.5" stroke="black" stroke-width="5"/>
<path d="M2020,4048 l60,0 l0,60 l-60,0 z" fill="green"/>
<path d="M2050,4078 l-205,267.5" stroke="black" stroke-width="5"/>
<path d="M9267,7495 l60,0 l0,60 l-60,0 z" fill="green"/>
<path d="M9297,7525 l-42,-51.5" stroke="black" stroke-width="5"/>
<path d="M7565,3071 l60,0 l0,60 l-60,0 z" fill="green"/>
<path d="M7595,3101 l107,202.5" stroke="black" stroke-width="5"/>
<path d="M7269,4239 l60,0 l0,60 l-60,0 z" fill="green"/>
<path d="M7299,4269 l-235.5,432.5" stroke="black" stroke-width="5"/>
<path d="M3795,5442 l60,0 l0,60 l-60,0 z" fill="green"/>
<path d="M3825,5472 l-210.5,-737" stroke="black" stroke-width="5"/>
<path d="M8714,1793 l60,0 l0,60 l-60,0 z" fill="green"/>
<path d="M8744,1823 l253.5,401.5" stroke="black" stroke-width="5"/>
<path d="M6050,1211 l60,0 l0,60 l-60,0 z" fill="green"/>
<path d="M6080,1241 l-609.5,121.5" stroke="black" stroke-width="5"/>
<path d="M7097,3227 l60,0 l0,60 l-60,0 z" fill="green"/>
<path d="M7127,3257 l-978.5,114" stroke="black" stroke-width="5"/>
<path d="M6293,1532 l60,0 l0,60 l-60,0 z" fill="green"/>
<path d="M6323,1562 l711.5,-313" stroke="black" stroke-width="5"/>
<path d="M9701,9373 l60,0 l0,60 l-60,0 z" fill="green"/>
<path d="M9731,9403 l-134,-3" stroke="black" stroke-width="5"/>
<path d="M3324,4620 l60,0 l0,60 l-60,0 z" fill="green"/>
<path d="M3354,4650 l-106.5,-256" stroke="black" stroke-width="5"/>
<path d="M3985,2933 l60,0 l0,60 l-60,0 z" fill="green"/>
<path d="M4015,2963 l-35.5,-259" stroke="black" stroke-width="5"/>
<path d="M4734,5439 l60,0 l0,60 l-60,0 z" fill="green"/>
<path d="M4764,5469 l-15.5,2250.5" stroke="black" stroke-width="5"/>
<path d="M4811,610 l60,0 l0,60 l-60,0 z" fill="green"/>
<path d="M4841,640 l-473.5,724" stroke="black" stroke-width="5"/>
<path d="M9598,4694 l60,0 l0,60 l-60,0 z" fill="green"/>
<path d="M9628,4724 l-445.5,-40.5" stroke="black" stroke-width="5"/>
<path d="M1251,7264 l60,0 l0,60 l-60,0 z" fill="green"/>
<path d="M1281,7294 l328.5,25.5" stroke="black" stroke-width="5"/>
<path d="M7511,3035 l60,0 l0,60 l-60,0 z" fill="green"/>
<path d="M7541,3065 l277.5,-699.5" stroke="black" stroke-width="5"/>
<path d="M2130,6512 l60,0 l0,60 l-60,0 z" fill="green"/>
<path d="M2160,6542 l-467,77.5" stroke="black" stroke-width="5"/>
<path d="M5165,4430 l60,0 l0,60 l-60,0 z" fill="green"/>
<path d="M5195,4460 l400.5,65.5" stroke="black" stroke-width="5"/>
<path d="M8825,7591 l60,0 l0,60 l-60,0 z" fill="green"/>
<path d="M8855,7621 l-464.5,-484.5" stroke="black" stroke-width="5"/>
<path d="M1787,2525 l60,0 l0,60 l-60,0 z" fill="green"/>
<path d="M1817,2555 l-477.5,-797.5" stroke="black" stroke-width="5"/>
<path d="M6068,1605 l60,0 l0,60 l-60,0 z" fill="green"/>
<path d="M6098,1635 l652.5,682.5" stroke="black" stroke-width="5"/>
<path d="M7635,7561 l60,0 l0,60 l-60,0 z" fill="green"/>
<path d="M7665,7591 l-102.5,116.5" stroke="black" stroke-width="5"/>
<path d="M5478,349 l60,0 l0,60 l-60,0 z" fill="green"/>
<path d="M5508,379 l1695.5,-90" stroke="black" stroke-width="5"/>
<path d="M583,7451 l60,0 l0,60 l-60,0 z" fill="green"/>
<path d="M613,7481 l190,-169.5" stroke="black" stroke-width="5"/>
<path d="M5054,9366 l60,0 l0,60 l-60,0 z" fill="green"/>
<path d="M5084,9396 l178,-862.5" stroke="black" stroke-width="5"/>
<path d="M9811,3597 l60,0 l0,60 l-60,0 z" fill="green"/>
<path d="M9841,3627 l24.5,-375" stroke="black" stroke-width="5"/>
<path d="M2167,9821 l60,0 l0,60 l-60,0 z" fill="green"/>
<path d="M2197,9851 l-338.5,-197" stroke="black" stroke-width="5"/>
<path d="M549,8689 l60,0 l0,60 l-60,0 z" fill="green"/>
<path d="M579,8719 l995.5,205.5" stroke="black" stroke-width="5"/>
<path d="M3364,3759 l60,0 l0,60 l-60,0 z" fill="green"/>
<path d="M3394,3789 l2383,35" stroke="black" stroke-width="5"/>
<path d="M4723,3024 l60,0 l0,60 l-60,0 z" fill="green"/>
<path d="M4753,3054 l-43.5,62.5" stroke="black" stroke-width="5"/>
<path d="M8884,2742 l60,0 l0,60 l-60,0 z" fill="green"/>
<path d="M8914,2772 l44.5,11" stroke="black" stroke-width="5"/>
<path d="M8522,3616 l60,0 l0,60 l-60,0 z" fill="green"/>
<path d="M8552,3646 l168,230" stroke="black" stroke-width="5"/>
<path d="M6673,9031 l60,0 l0,60 l-60,0 z" fill="green"/>
<path d="M6703,9061 l-187.5,-139.5" stroke="black" stroke-width="5"/>
<path d="M1812,2832 l60,0 l0,60 l-60,0 z" fill="green"/>
<path d="M1842,2862 l-917,97" stroke="black" stroke-width="5"/>
<path d="M1280,5202 l60,0 l0,60 l-60,0 z" fill="green"/>
<path d="M1310,5232 l-564.5,90" stroke="black" stroke-width="5"/>
<path d="M3463,8966 l60,0 l0,60 l-60,0 z" fill="green"/>
<path d="M3493,8996 l-271,439.5" stroke="black" stroke-width="5"/>
<path d="M3568,5796 l60,0 l0,60 l-60,0 z" fill="green"/>
<path d="M3598,5826 l354.5,592.5" stroke="black" stroke-width="5"/>
<path d="M9878,7322 l60,0 l0,60 l-60,0 z" fill="green"/>
<path d="M9908,7352 l-190.5,278" stroke="black" stroke-width="5"/>
<path d="M2518,6397 l60,0 l0,60 l-60,0 z" fill="green"/>
<path d="M2548,6427 l-78.5,804.5" stroke="black" stroke-width="5"/>
<path d="M-29,8065 l60,0 l0,60 l-60,0 z" fill="green"/>
<path d="M1,8095 l287.5,454" stroke="black" stroke-width="5"/>
<path d="M6695,5749 l60,0 l0,60 l-60,0 z" fill="green"/>
<path d="M6725,5779 l-82.5,724" stroke="black" stroke-width="5"/>
<path d="M760,804 l60,0 l0,60 l-60,0 z" fill="green"/>
<path d="M790,834 l-231.5,-76.5" stroke="black" stroke-width="5"/>
<path d="M3446,8744 l60,0 l0,60 l-60,0 z" fill="green"/>
<path d="M3476,8774 l388.5,-858.5" stroke="black" stroke-width="5"/>
<path d="M3078,5961 l60,0 l0,60 l-60,0 z" fill="green"/>
<path d="M3108,5991 l-139.5,1353" stroke="black" stroke-width="5"/>
<path d="M727,2786 l60,0 l0,60 l-60,0 z" fill="green"/>
<path d="M757,2816 l-211,-703" stroke="black" stroke-width="5"/>
<path d="M5929,2431 l60,0 l0,60 l-60,0 z" fill="green"/>
<path d="M5959,2461 l-876.5,197" stroke="black" stroke-width="5"/>
<path d="M2908,5454 l60,0 l0,60 l-60,0 z" fill="green"/>
<path d="M2938,5484 l-222,-1115.5" stroke="black" stroke-width="5"/>
<text font-size="153.39299776947408" text-anchor="middle" x="3336.5" y="6075.687549219316">
0
</text>
<text font-size="153.39299776947408" text-anchor="middle" x="8707" y="8341.187549219316">
1
</text>
<text font-size="153.39299776947408" text-anchor="middle" x="1802.5" y="6166.687549219316">
2
</text>
<text font-size="153.39299776947408" text-anchor="middle" x="435.5" y="6344.687549219316">
3
</text>
<text font-size="153.39299776947408" text-anchor="middle" x="697.5" y="4202.687549219316">
4
</text>
<text font-size="153.39299776947408" text-anchor="middle" x="8280" y="4403.187549219316">
5
</text>
<text font-size="153.39299776947408" text-anchor="middle" x="9469" y="1489.187549219316">
6
</text>
<text font-size="153.39299776947408" text-anchor="middle" x="6290.5" y="4546.687549219316">
7
</text>
<text font-size="153.39299776947408" text-anchor="middle" x="3751" y="371.18754921931594">
8
</text>
<text font-size="153.39299776947408" text-anchor="middle" x="7894" y="6410.187549219316">
9
</text>
<text font-size="153.39299776947408" text-anchor="middle" x="9585" y="4076.6875492193158">
10
</text>
<text font-size="153.39299776947408" text-anchor="middle" x="5915.5" y="9016.187549219316">
11
</text>
<text font-size="153.39299776947408" text-anchor="middle" x="9411.5" y="5849.687549219316">
12
</text>
<text font-size="153.39299776947408" text-anchor="middle" x="5073" y="5935.687549219316">
13
</text>
<text font-size="153.39299776947408" text-anchor="middle" x="9231.5" y="6798.687549219316">
14
</text>
<text font-size="153.39299776947408" text-anchor="middle" x="8622.5" y="9435.687549219316">
15
</text>
<text font-size="153.39299776947408" text-anchor="middle" x="4535" y="4768.687549219316">
16
</text>
<text font-size="153.39299776947408" text-anchor="middle" x="7033.5" y="774.1875492193159">
17
</text>
<text font-size="153.39299776947408" text-anchor="middle" x="3055" y="1985.687549219316">
18
</text>
<text font-size="153.39299776947408" text-anchor="middle" x="7600" y="8977.187549219316">
19
</text>
<text font-size="153.39299776947408" text-anchor="middle" x="2719.5" y="5722.687549219316">
20
</text>
<text font-size="153.39299776947408" text-anchor="middle" x="8429.5" y="1173.187549219316">
21
</text>
<text font-size="153.39299776947408" text-anchor="middle" x="998" y="301.68754921931594">
22
</text>
<text font-size="153.39299776947408" text-anchor="middle" x="1606.5" y="8203.687549219316">
23
</text>
<text font-size="153.39299776947408" text-anchor="middle" x="4164" y="9350.687549219316">
24
</text>
<text font-size="153.39299776947408" text-anchor="middle" x="6009.5" y="6326.687549219316">
25
</text>
<text font-size="153.39299776947408" text-anchor="middle" x="9457.5" y="2861.1875492193158">
26
</text>
<text font-size="153.39299776947408" text-anchor="middle" x="8412.5" y="2644.1875492193158">
27
</text>
<text font-size="153.39299776947408" text-anchor="middle" x="4151" y="3460.6875492193158">
28
</text>
<text font-size="153.39299776947408" text-anchor="middle" x="4994.5" y="2230.6875492193158">
29
</text>
<text font-size="153.39299776947408" text-anchor="middle" x="5184" y="9683.187549219316">
30
</text>
<text font-size="153.39299776947408" text-anchor="middle" x="9449.5" y="634.1875492193159">
31
</text>
<text font-size="153.39299776947408" text-anchor="middle" x="7776" y="6049.187549219316">
32
</text>
<text font-size="153.39299776947408" text-anchor="middle" x="7009" y="5524.187549219316">
33
</text>
<text font-size="153.39299776947408" text-anchor="middle" x="2227.5" y="1962.187549219316">
34
</text>
<text font-size="153.39299776947408" text-anchor="middle" x="7020.5" y="8900.187549219316">
35
</text>
<text font-size="153.39299776947408" text-anchor="middle" x="3695.5" y="1936.187549219316">
36
</text>
<text font-size="153.39299776947408" text-anchor="middle" x="1845" y="4399.187549219316">
37
</text>
<text font-size="153.39299776947408" text-anchor="middle" x="9255" y="7527.187549219316">
38
</text>
<text font-size="153.39299776947408" text-anchor="middle" x="7702" y="3357.1875492193158">
39
</text>
<text font-size="153.39299776947408" text-anchor="middle" x="7063.5" y="4755.187549219316">
40
</text>
<text font-size="153.39299776947408" text-anchor="middle" x="3614.5" y="4788.687549219316">
41
</text>
<text font-size="153.39299776947408" text-anchor="middle" x="8997.5" y="2278.1875492193158">
42
</text>
<text font-size="153.39299776947408" text-anchor="middle" x="5470.5" y="1416.187549219316">
43
</text>
<text font-size="153.39299776947408" text-anchor="middle" x="6148.5" y="3424.6875492193158">
44
</text>
<text font-size="153.39299776947408" text-anchor="middle" x="7034.5" y="1302.687549219316">
45
</text>
<text font-size="153.39299776947408" text-anchor="middle" x="9597" y="9453.687549219316">
46
</text>
<text font-size="153.39299776947408" text-anchor="middle" x="3247.5" y="4447.687549219316">
47
</text>
<text font-size="153.39299776947408" text-anchor="middle" x="3979.5" y="2757.6875492193158">
48
</text>
<text font-size="153.39299776947408" text-anchor="middle" x="4748.5" y="7773.187549219316">
49
</text>
<text font-size="153.39299776947408" text-anchor="middle" x="4367.5" y="1417.687549219316">
50
</text>
<text font-size="153.39299776947408" text-anchor="middle" x="9182.5" y="4737.187549219316">
51
</text>
<text font-size="153.39299776947408" text-anchor="middle" x="1609.5" y="7373.187549219316">
52
</text>
<text font-size="153.39299776947408" text-anchor="middle" x="7818.5" y="2419.1875492193158">
53
</text>
<text font-size="153.39299776947408" text-anchor="middle" x="1693" y="6673.187549219316">
54
</text>
<text font-size="153.39299776947408" text-anchor="middle" x="5595.5" y="4579.187549219316">
55
</text>
<text font-size="153.39299776947408" text-anchor="middle" x="8390.5" y="7190.187549219316">
56
</text>
<text font-size="153.39299776947408" text-anchor="middle" x="1339.5" y="1811.187549219316">
57
</text>
<text font-size="153.39299776947408" text-anchor="middle" x="6750.5" y="2371.1875492193158">
58
</text>
<text font-size="153.39299776947408" text-anchor="middle" x="7562.5" y="7761.187549219316">
59
</text>
<text font-size="153.39299776947408" text-anchor="middle" x="7203.5" y="342.68754921931594">
60
</text>
<text font-size="153.39299776947408" text-anchor="middle" x="803" y="7365.187549219316">
61
</text>
<text font-size="153.39299776947408" text-anchor="middle" x="5262" y="8587.187549219316">
62
</text>
<text font-size="153.39299776947408" text-anchor="middle" x="9865.5" y="3305.6875492193158">
63
</text>
<text font-size="153.39299776947408" text-anchor="middle" x="1858.5" y="9707.687549219316">
64
</text>
<text font-size="153.39299776947408" text-anchor="middle" x="1574.5" y="8978.187549219316">
65
</text>
<text font-size="153.39299776947408" text-anchor="middle" x="5777" y="3877.6875492193158">
66
</text>
<text font-size="153.39299776947408" text-anchor="middle" x="4709.5" y="3170.1875492193158">
67
</text>
<text font-size="153.39299776947408" text-anchor="middle" x="8958.5" y="2836.6875492193158">
68
</text>
<text font-size="153.39299776947408" text-anchor="middle" x="8720" y="3929.6875492193158">
69
</text>
<text font-size="153.39299776947408" text-anchor="middle" x="6515.5" y="8975.187549219316">
70
</text>
<text font-size="153.39299776947408" text-anchor="middle" x="925" y="3012.6875492193158">
71
</text>
<text font-size="153.39299776947408" text-anchor="middle" x="745.5" y="5375.687549219316">
72
</text>
<text font-size="153.39299776947408" text-anchor="middle" x="3222" y="9489.187549219316">
73
</text>
<text font-size="153.39299776947408" text-anchor="middle" x="3952.5" y="6472.187549219316">
74
</text>
<text font-size="153.39299776947408" text-anchor="middle" x="9717.5" y="7683.687549219316">
75
</text>
<text font-size="153.39299776947408" text-anchor="middle" x="2469.5" y="7285.187549219316">
76
</text>
<text font-size="153.39299776947408" text-anchor="middle" x="288.5" y="8602.687549219316">
77
</text>
<text font-size="153.39299776947408" text-anchor="middle" x="6642.5" y="6556.687549219316">
78
</text>
<text font-size="153.39299776947408" text-anchor="middle" x="558.5" y="811.1875492193159">
79
</text>
<text font-size="153.39299776947408" text-anchor="middle" x="3864.5" y="7969.187549219316">
80
</text>
<text font-size="153.39299776947408" text-anchor="middle" x="2968.5" y="7397.687549219316">
81
</text>
<text font-size="153.39299776947408" text-anchor="middle" x="546" y="2166.6875492193158">
82
</text>
<text font-size="153.39299776947408" text-anchor="middle" x="5082.5" y="2711.6875492193158">
83
</text>
<text font-size="153.39299776947408" text-anchor="middle" x="2716" y="4422.187549219316">
84
</text>
</svg>