<svg viewBox="0 0 10000 10000" xmlns="http://www.w3.org/2000/svg">
<path d="M0,0 l10000,0 l0,10000 l-10000,0 z" fill="white"/>
<path d="M4447,1888 l75,0 l0,2494 l-75,0 z" fill="#fe00ff" stroke="black" stroke-width="5"/>
<path d="M1426,3449 l483,0 l0,1057 l-483,0 z" fill="#fe00ff" stroke="black" stroke-width="5"/>
<path d="M6567,1449 l1620,0 l0,166 l-1620,0 z" fill="#ff00fd" stroke="black" stroke-width="5"/>
<path d="M4537,4920 l866,0 l0,533 l-866,0 z" fill="#9100ff" stroke="black" stroke-width="5"/>
<path d="M5814,3835 l227,0 l0,2932 l-227,0 z" fill="#b900ff" stroke="black" stroke-width="5"/>
<path d="M566,1719 l3199,0 l0,323 l-3199,0 z" fill="#fe00ff" stroke="black" stroke-width="5"/>
<path d="M6415,8073 l47,0 l0,1812 l-47,0 z" fill="#ff00fe" stroke="black" stroke-width="5"/>
<path d="M104,7969 l1135,0 l0,50 l-1135,0 z" fill="#ff00fd" stroke="black" stroke-width="5"/>
<path d="M571,937 l1363,0 l0,782 l-1363,0 z" fill="#f400ff" stroke="black" stroke-width="5"/>
<path d="M6018,774 l19,0 l0,1253 l-19,0 z" fill="#ff00fe" stroke="black" stroke-width="5"/>
<path d="M1758,8751 l1884,0 l0,1249 l-1884,0 z" fill="#9e00ff" stroke="black" stroke-width="5"/>
<path d="M9912,6904 l83,0 l0,1251 l-83,0 z" fill="#fd00ff" stroke="black" stroke-width="5"/>
<path d="M1552,580 l2035,0 l0,314 l-2035,0 z" fill="#ff00fd" stroke="black" stroke-width="5"/>
<path d="M0,98 l571,0 l0,1343 l-571,0 z" fill="#ff00fe" stroke="black" stroke-width="5"/>
<path d="M0,1462 l566,0 l0,1966 l-566,0 z" fill="#fe00ff" stroke="black" stroke-width="5"/>
<path d="M8974,2670 l1026,0 l0,1704 l-1026,0 z" fill="#9e00ff" stroke="black" stroke-width="5"/>
<path d="M338,9175 l350,0 l0,825 l-350,0 z" fill="#3500ff" stroke="black" stroke-width="5"/>
<path d="M6473,1777 l726,0 l0,1476 l-726,0 z" fill="#de00ff" stroke="black" stroke-width="5"/>
<path d="M4538,4185 l865,0 l0,577 l-865,0 z" fill="#3e00ff" stroke="black" stroke-width="5"/>
<path d="M3936,404 l673,0 l0,915 l-673,0 z" fill="#ff00fe" stroke="black" stroke-width="5"/>
<path d="M1934,4182 l718,0 l0,437 l-718,0 z" fill="#ff00fe" stroke="black" stroke-width="5"/>
<path d="M2491,7668 l1073,0 l0,1082 l-1073,0 z" fill="#ff00fe" stroke="black" stroke-width="5"/>
<path d="M7488,6220 l602,0 l0,533 l-602,0 z" fill="#ff00fd" stroke="black" stroke-width="5"/>
<path d="M7200,2468 l642,0 l0,481 l-642,0 z" fill="#ff00fe" stroke="black" stroke-width="5"/>
<path d="M7842,2475 l1041,0 l0,215 l-1041,0 z" fill="#ff00fe" stroke="black" stroke-width="5"/>
<path d="M7201,2971 l879,0 l0,142 l-879,0 z" fill="#ff00fe" stroke="black" stroke-width="5"/>
<path d="M8726,3819 l235,0 l0,1464 l-235,0 z" fill="#fe00ff" stroke="black" stroke-width="5"/>
<path d="M3642,5984 l87,0 l0,4016 l-87,0 z" fill="#ff00fe" stroke="black" stroke-width="5"/>
<path d="M6486,9308 l1745,0 l0,290 l-1745,0 z" fill="#ff00fe" stroke="black" stroke-width="5"/>
<path d="M1909,3471 l899,0 l0,711 l-899,0 z" fill="#ff00fe" stroke="black" stroke-width="5"/>
<path d="M4714,7974 l1093,0 l0,1430 l-1093,0 z" fill="#ff00fe" stroke="black" stroke-width="5"/>
<path d="M4482,6767 l2349,0 l0,358 l-2349,0 z" fill="#fe00ff" stroke="black" stroke-width="5"/>
<path d="M8296,9310 l1704,0 l0,690 l-1704,0 z" fill="#c200ff" stroke="black" stroke-width="5"/>
<path d="M8080,2690 l894,0 l0,1129 l-894,0 z" fill="#e300ff" stroke="black" stroke-width="5"/>
<path d="M8079,3819 l647,0 l0,1497 l-647,0 z" fill="#d100ff" stroke="black" stroke-width="5"/>
<path d="M2888,2952 l613,0 l0,1455 l-613,0 z" fill="#fe00ff" stroke="black" stroke-width="5"/>
<path d="M4537,4762 l866,0 l0,158 l-866,0 z" fill="#0200ff" stroke="black" stroke-width="5"/>
<path d="M570,2918 l2242,0 l0,527 l-2242,0 z" fill="#fe00ff" stroke="black" stroke-width="5"/>
<path d="M1635,4571 l53,0 l0,3541 l-53,0 z" fill="#ff00fe" stroke="black" stroke-width="5"/>
<path d="M0,4506 l1635,0 l0,1371 l-1635,0 z" fill="#fd00ff" stroke="black" stroke-width="5"/>
<path d="M9136,5942 l864,0 l0,962 l-864,0 z" fill="#ff00fe" stroke="black" stroke-width="5"/>
<path d="M4587,7223 l1989,0 l0,541 l-1989,0 z" fill="#ff00fe" stroke="black" stroke-width="5"/>
<path d="M4529,3013 l650,0 l0,463 l-650,0 z" fill="#ff00fd" stroke="black" stroke-width="5"/>
<path d="M9857,0 l143,0 l0,2670 l-143,0 z" fill="#9f00ff" stroke="black" stroke-width="5"/>
<path d="M0,3445 l1420,0 l0,672 l-1420,0 z" fill="#fe00ff" stroke="black" stroke-width="5"/>
<path d="M1759,6381 l1321,0 l0,625 l-1321,0 z" fill="#ff00fe" stroke="black" stroke-width="5"/>
<path d="M7005,8367 l1741,0 l0,327 l-1741,0 z" fill="#fe00ff" stroke="black" stroke-width="5"/>
<path d="M8107,2 l1007,0 l0,556 l-1007,0 z" fill="#ff00fc" stroke="black" stroke-width="5"/>
<path d="M6037,745 l433,0 l0,1282 l-433,0 z" fill="#fa00ff" stroke="black" stroke-width="5"/>
<path d="M4073,1952 l188,0 l0,1202 l-188,0 z" fill="#ff00fe" stroke="black" stroke-width="5"/>
<path d="M6278,3528 l373,0 l0,3239 l-373,0 z" fill="#d000ff" stroke="black" stroke-width="5"/>
<path d="M6471,1769 l2044,0 l0,6 l-2044,0 z" fill="#ff00fe" stroke="black" stroke-width="5"/>
<path d="M1372,220 l3304,0 l0,100 l-3304,0 z" fill="#ff00fe" stroke="black" stroke-width="5"/>
<path d="M8885,561 l972,0 l0,2109 l-972,0 z" fill="#d300ff" stroke="black" stroke-width="5"/>
<path d="M4678,0 l3041,0 l0,745 l-3041,0 z" fill="#fd00ff" stroke="black" stroke-width="5"/>
<path d="M1993,1321 l3987,0 l0,13 l-3987,0 z" fill="#ff00fe" stroke="black" stroke-width="5"/>
<path d="M5223,3534 l1055,0 l0,297 l-1055,0 z" fill="#ff00fe" stroke="black" stroke-width="5"/>
<path d="M1692,5454 l3706,0 l0,256 l-3706,0 z" fill="#ff00fe" stroke="black" stroke-width="5"/>
<path d="M6803,8366 l202,0 l0,942 l-202,0 z" fill="#fe00ff" stroke="black" stroke-width="5"/>
<path d="M5241,1899 l671,0 l0,1635 l-671,0 z" fill="#f300ff" stroke="black" stroke-width="5"/>
<path d="M7060,5121 l601,0 l0,1021 l-601,0 z" fill="#ff00fe" stroke="black" stroke-width="5"/>
<path d="M4459,7782 l2097,0 l0,136 l-2097,0 z" fill="#ff00fe" stroke="black" stroke-width="5"/>
<path d="M6576,7145 l2170,0 l0,1221 l-2170,0 z" fill="#fe00ff" stroke="black" stroke-width="5"/>
<path d="M3729,9406 l2680,0 l0,594 l-2680,0 z" fill="#f200ff" stroke="black" stroke-width="5"/>
<path d="M3604,4093 l757,0 l0,317 l-757,0 z" fill="#ff00fe" stroke="black" stroke-width="5"/>
<path d="M2877,2922 l1191,0 l0,29 l-1191,0 z" fill="#ff00fe" stroke="black" stroke-width="5"/>
<path d="M1937,950 l1849,0 l0,261 l-1849,0 z" fill="#ff00fd" stroke="black" stroke-width="5"/>
<path d="M4527,3631 l686,0 l0,551 l-686,0 z" fill="#ff00fe" stroke="black" stroke-width="5"/>
<path d="M6831,6791 l2110,0 l0,321 l-2110,0 z" fill="#fe00ff" stroke="black" stroke-width="5"/>
<path d="M0,9175 l338,0 l0,825 l-338,0 z" fill="#d800ff" stroke="black" stroke-width="5"/>
<path d="M3765,1334 l2245,0 l0,554 l-2245,0 z" fill="#fc00ff" stroke="black" stroke-width="5"/>
<path d="M7698,5386 l806,0 l0,363 l-806,0 z" fill="#ff00fd" stroke="black" stroke-width="5"/>
<path d="M8746,8155 l1254,0 l0,1155 l-1254,0 z" fill="#1900ff" stroke="black" stroke-width="5"/>
<path d="M7723,98 l233,0 l0,501 l-233,0 z" fill="#ff00fe" stroke="black" stroke-width="5"/>
<path d="M2802,4410 l1735,0 l0,1043 l-1735,0 z" fill="#d800ff" stroke="black" stroke-width="5"/>
<path d="M6462,9598 l1834,0 l0,402 l-1834,0 z" fill="#6600ff" stroke="black" stroke-width="5"/>
<path d="M0,8609 l1756,0 l0,566 l-1756,0 z" fill="#4500ff" stroke="black" stroke-width="5"/>
<path d="M7719,610 l417,0 l0,790 l-417,0 z" fill="#ff00fe" stroke="black" stroke-width="5"/>
<path d="M7392,1792 l1421,0 l0,587 l-1421,0 z" fill="#ff00fc" stroke="black" stroke-width="5"/>
<path d="M337,6014 l1159,0 l0,1563 l-1159,0 z" fill="#ff00fd" stroke="black" stroke-width="5"/>
<path d="M833,1 l373,0 l0,935 l-373,0 z" fill="#ff00fe" stroke="black" stroke-width="5"/>
<path d="M4253,5758 l206,0 l0,3641 l-206,0 z" fill="#fe00ff" stroke="black" stroke-width="5"/>
<path d="M1728,7255 l1901,0 l0,413 l-1901,0 z" fill="#fe00ff" stroke="black" stroke-width="5"/>
<path d="M570,2042 l3503,0 l0,876 l-3503,0 z" fill="#e300ff" stroke="black" stroke-width="5"/>
<path d="M5912,2027 l561,0 l0,1499 l-561,0 z" fill="#f300ff" stroke="black" stroke-width="5"/>
<path d="M0,4117 l1426,0 l0,387 l-1426,0 z" fill="#ff00fe" stroke="black" stroke-width="5"/>
<path d="M5403,3835 l411,0 l0,2932 l-411,0 z" fill="#dd00ff" stroke="black" stroke-width="5"/>
<path d="M3501,3219 l860,0 l0,724 l-860,0 z" fill="#ff00fe" stroke="black" stroke-width="5"/>
<path d="M1981,7670 l423,0 l0,1027 l-423,0 z" fill="#ff00fe" stroke="black" stroke-width="5"/>
<path d="M0,8019 l796,0 l0,590 l-796,0 z" fill="#be00ff" stroke="black" stroke-width="5"/>
<path d="M689,9325 l1069,0 l0,671 l-1069,0 z" fill="#ff00fe" stroke="black" stroke-width="5"/>
<path d="M97,5881 l1430,0 l0,130 l-1430,0 z" fill="#ff00fe" stroke="black" stroke-width="5"/>
<path d="M8505,5316 l624,0 l0,1475 l-624,0 z" fill="#d000ff" stroke="black" stroke-width="5"/>
<path d="M6041,3831 l237,0 l0,2936 l-237,0 z" fill="#7700ff" stroke="black" stroke-width="5"/>
<path d="M6651,3253 l1425,0 l0,1359 l-1425,0 z" fill="#ee00ff" stroke="black" stroke-width="5"/>
<path d="M6652,4613 l1423,0 l0,338 l-1423,0 z" fill="#ff00fe" stroke="black" stroke-width="5"/>
<path d="M9129,4374 l871,0 l0,1567 l-871,0 z" fill="#b100ff" stroke="black" stroke-width="5"/>
<path d="M2659,4236 l143,0 l0,1180 l-143,0 z" fill="#ff00fe" stroke="black" stroke-width="5"/>
<path d="M796,8252 l1078,0 l0,339 l-1078,0 z" fill="#ff00fe" stroke="black" stroke-width="5"/>
<path d="M2812,2918 l64,0 l0,1489 l-64,0 z" fill="#ff00fe" stroke="black" stroke-width="5"/>
<path d="M4597,2070 l644,0 l0,458 l-644,0 z" fill="#ff00fc" stroke="black" stroke-width="5"/>
<path d="M4442,3239 l60,0 l0,60 l-60,0 z" fill="green"/>
<path d="M4472,3269 l12.5,-134" stroke="black" stroke-width="5"/>
<path d="M1721,3708 l60,0 l0,60 l-60,0 z" fill="green"/>
<path d="M1751,3738 l-83.5,239.5" stroke="black" stroke-width="5"/>
<path d="M7511,1549 l60,0 l0,60 l-60,0 z" fill="green"/>
<path d="M7541,1579 l-164,-47" stroke="black" stroke-width="5"/>
<path d="M4630,5274 l60,0 l0,60 l-60,0 z" fill="green"/>
<path d="M4660,5304 l310,-117.5" stroke="black" stroke-width="5"/>
<path d="M5827,5108 l60,0 l0,60 l-60,0 z" fill="green"/>
<path d="M5857,5138 l70.5,163" stroke="black" stroke-width="5"/>
<path d="M1308,1763 l60,0 l0,60 l-60,0 z" fill="green"/>
<path d="M1338,1793 l827.5,87.5" stroke="black" stroke-width="5"/>
<path d="M6423,9626 l60,0 l0,60 l-60,0 z" fill="green"/>
<path d="M6453,9656 l-14.5,-677" stroke="black" stroke-width="5"/>
<path d="M542,7988 l60,0 l0,60 l-60,0 z" fill="green"/>
<path d="M572,8018 l99.5,-24" stroke="black" stroke-width="5"/>
<path d="M1040,1192 l60,0 l0,60 l-60,0 z" fill="green"/>
<path d="M1070,1222 l182.5,106" stroke="black" stroke-width="5"/>
<path d="M6003,1902 l60,0 l0,60 l-60,0 z" fill="green"/>
<path d="M6033,1932 l-5.5,-531.5" stroke="black" stroke-width="5"/>
<path d="M2133,9945 l60,0 l0,60 l-60,0 z" fill="green"/>
<path d="M2163,9975 l537,-599.5" stroke="black" stroke-width="5"/>
<path d="M9887,8124 l60,0 l0,60 l-60,0 z" fill="green"/>
<path d="M9917,8154 l36.5,-624.5" stroke="black" stroke-width="5"/>
<path d="M2579,839 l60,0 l0,60 l-60,0 z" fill="green"/>
<path d="M2609,869 l-39.5,-132" stroke="black" stroke-width="5"/>
<path d="M355,925 l60,0 l0,60 l-60,0 z" fill="green"/>
<path d="M385,955 l-99.5,-185.5" stroke="black" stroke-width="5"/>
<path d="M533,1683 l60,0 l0,60 l-60,0 z" fill="green"/>
<path d="M563,1713 l-280,732" stroke="black" stroke-width="5"/>
<path d="M9865,3393 l60,0 l0,60 l-60,0 z" fill="green"/>
<path d="M9895,3423 l-408,99" stroke="black" stroke-width="5"/>
<path d="M309,9385 l60,0 l0,60 l-60,0 z" fill="green"/>
<path d="M339,9415 l174,172.5" stroke="black" stroke-width="5"/>
<path d="M6605,2936 l60,0 l0,60 l-60,0 z" fill="green"/>
<path d="M6635,2966 l201,-451" stroke="black" stroke-width="5"/>
<path d="M4977,4352 l60,0 l0,60 l-60,0 z" fill="green"/>
<path d="M5007,4382 l-36.5,91.5" stroke="black" stroke-width="5"/>
<path d="M4508,848 l60,0 l0,60 l-60,0 z" fill="green"/>
<path d="M4538,878 l-265.5,-16.5" stroke="black" stroke-width="5"/>
<path d="M1904,4199 l60,0 l0,60 l-60,0 z" fill="green"/>
<path d="M1934,4229 l359,171.5" stroke="black" stroke-width="5"/>
<path d="M2473,8719 l60,0 l0,60 l-60,0 z" fill="green"/>
<path d="M2503,8749 l524.5,-540" stroke="black" stroke-width="5"/>
<path d="M7928,6650 l60,0 l0,60 l-60,0 z" fill="green"/>
<path d="M7958,6680 l-169,-193.5" stroke="black" stroke-width="5"/>
<path d="M7170,2901 l60,0 l0,60 l-60,0 z" fill="green"/>
<path d="M7200,2931 l321,-222.5" stroke="black" stroke-width="5"/>
<path d="M8852,2659 l60,0 l0,60 l-60,0 z" fill="green"/>
<path d="M8882,2689 l-519.5,-106.5" stroke="black" stroke-width="5"/>
<path d="M7602,2974 l60,0 l0,60 l-60,0 z" fill="green"/>
<path d="M7632,3004 l8.5,38" stroke="black" stroke-width="5"/>
<path d="M8700,4412 l60,0 l0,60 l-60,0 z" fill="green"/>
<path d="M8730,4442 l113.5,109" stroke="black" stroke-width="5"/>
<path d="M3615,9478 l60,0 l0,60 l-60,0 z" fill="green"/>
<path d="M3645,9508 l40.5,-1516" stroke="black" stroke-width="5"/>
<path d="M7326,9567 l60,0 l0,60 l-60,0 z" fill="green"/>
<path d="M7356,9597 l2.5,-144" stroke="black" stroke-width="5"/>
<path d="M1937,3823 l60,0 l0,60 l-60,0 z" fill="green"/>
<path d="M1967,3853 l391.5,-26.5" stroke="black" stroke-width="5"/>
<path d="M5454,9373 l60,0 l0,60 l-60,0 z" fill="green"/>
<path d="M5484,9403 l-223.5,-714" stroke="black" stroke-width="5"/>
<path d="M6389,6739 l60,0 l0,60 l-60,0 z" fill="green"/>
<path d="M6419,6769 l-762.5,177" stroke="black" stroke-width="5"/>
<path d="M9141,9932 l60,0 l0,60 l-60,0 z" fill="green"/>
<path d="M9171,9962 l-23,-307" stroke="black" stroke-width="5"/>
<path d="M8877,3302 l60,0 l0,60 l-60,0 z" fill="green"/>
<path d="M8907,3332 l-380,-77.5" stroke="black" stroke-width="5"/>
<path d="M8509,4261 l60,0 l0,60 l-60,0 z" fill="green"/>
<path d="M8539,4291 l-136.5,276.5" stroke="black" stroke-width="5"/>
<path d="M3320,4287 l60,0 l0,60 l-60,0 z" fill="green"/>
<path d="M3350,4317 l-155.5,-637.5" stroke="black" stroke-width="5"/>
<path d="M4783,4886 l60,0 l0,60 l-60,0 z" fill="green"/>
<path d="M4813,4916 l157,-75" stroke="black" stroke-width="5"/>
<path d="M1582,2890 l60,0 l0,60 l-60,0 z" fill="green"/>
<path d="M1612,2920 l79,261.5" stroke="black" stroke-width="5"/>
<path d="M1618,4896 l60,0 l0,60 l-60,0 z" fill="green"/>
<path d="M1648,4926 l13.5,1415.5" stroke="black" stroke-width="5"/>
<path d="M814,5536 l60,0 l0,60 l-60,0 z" fill="green"/>
<path d="M844,5566 l-26.5,-374.5" stroke="black" stroke-width="5"/>
<path d="M9106,5912 l60,0 l0,60 l-60,0 z" fill="green"/>
<path d="M9136,5942 l432,481" stroke="black" stroke-width="5"/>
<path d="M6528,7344 l60,0 l0,60 l-60,0 z" fill="green"/>
<path d="M6558,7374 l-976.5,119.5" stroke="black" stroke-width="5"/>
<path d="M4621,3439 l60,0 l0,60 l-60,0 z" fill="green"/>
<path d="M4651,3469 l203,-224.5" stroke="black" stroke-width="5"/>
<path d="M9887,2389 l60,0 l0,60 l-60,0 z" fill="green"/>
<path d="M9917,2419 l11.5,-1084" stroke="black" stroke-width="5"/>
<path d="M888,3854 l60,0 l0,60 l-60,0 z" fill="green"/>
<path d="M918,3884 l-208,-103" stroke="black" stroke-width="5"/>
<path d="M1751,6560 l60,0 l0,60 l-60,0 z" fill="green"/>
<path d="M1781,6590 l638.5,103.5" stroke="black" stroke-width="5"/>
<path d="M8711,8337 l60,0 l0,60 l-60,0 z" fill="green"/>
<path d="M8741,8367 l-865.5,163.5" stroke="black" stroke-width="5"/>
<path d="M9038,527 l60,0 l0,60 l-60,0 z" fill="green"/>
<path d="M9068,557 l-457.5,-277" stroke="black" stroke-width="5"/>
<path d="M6132,1988 l60,0 l0,60 l-60,0 z" fill="green"/>
<path d="M6162,2018 l91.5,-632" stroke="black" stroke-width="5"/>
<path d="M4045,3121 l60,0 l0,60 l-60,0 z" fill="green"/>
<path d="M4075,3151 l92,-598" stroke="black" stroke-width="5"/>
<path d="M6248,4840 l60,0 l0,60 l-60,0 z" fill="green"/>
<path d="M6278,4870 l186.5,277.5" stroke="black" stroke-width="5"/>
<path d="M6441,1741 l60,0 l0,60 l-60,0 z" fill="green"/>
<path d="M6471,1771 l1022,1" stroke="black" stroke-width="5"/>
<path d="M4645,244 l60,0 l0,60 l-60,0 z" fill="green"/>
<path d="M4675,274 l-1651,-4" stroke="black" stroke-width="5"/>
<path d="M9826,2432 l60,0 l0,60 l-60,0 z" fill="green"/>
<path d="M9856,2462 l-485,-846.5" stroke="black" stroke-width="5"/>
<path d="M5817,556 l60,0 l0,60 l-60,0 z" fill="green"/>
<path d="M5847,586 l351.5,-213.5" stroke="black" stroke-width="5"/>
<path d="M5318,1297 l60,0 l0,60 l-60,0 z" fill="green"/>
<path d="M5348,1327 l-1361.5,0.5" stroke="black" stroke-width="5"/>
<path d="M5825,3795 l60,0 l0,60 l-60,0 z" fill="green"/>
<path d="M5855,3825 l-104.5,-142.5" stroke="black" stroke-width="5"/>
<path d="M4531,5427 l60,0 l0,60 l-60,0 z" fill="green"/>
<path d="M4561,5457 l-1016,125" stroke="black" stroke-width="5"/>
<path d="M6806,8755 l60,0 l0,60 l-60,0 z" fill="green"/>
<path d="M6836,8785 l68,52" stroke="black" stroke-width="5"/>
<path d="M5713,2579 l60,0 l0,60 l-60,0 z" fill="green"/>
<path d="M5743,2609 l-166.5,107.5" stroke="black" stroke-width="5"/>
<path d="M7106,5199 l60,0 l0,60 l-60,0 z" fill="green"/>
<path d="M7136,5229 l224.5,402.5" stroke="black" stroke-width="5"/>
<path d="M6523,7790 l60,0 l0,60 l-60,0 z" fill="green"/>
<path d="M6553,7820 l-1045.5,30" stroke="black" stroke-width="5"/>
<path d="M8344,8131 l60,0 l0,60 l-60,0 z" fill="green"/>
<path d="M8374,8161 l-713,-405.5" stroke="black" stroke-width="5"/>
<path d="M5250,9729 l60,0 l0,60 l-60,0 z" fill="green"/>
<path d="M5280,9759 l-211,-56" stroke="black" stroke-width="5"/>
<path d="M3990,4376 l60,0 l0,60 l-60,0 z" fill="green"/>
<path d="M4020,4406 l-37.5,-154.5" stroke="black" stroke-width="5"/>
<path d="M3286,2897 l60,0 l0,60 l-60,0 z" fill="green"/>
<path d="M3316,2927 l156.5,9.5" stroke="black" stroke-width="5"/>
<path d="M1907,990 l60,0 l0,60 l-60,0 z" fill="green"/>
<path d="M1937,1020 l924.5,60.5" stroke="black" stroke-width="5"/>
<path d="M5177,4151 l60,0 l0,60 l-60,0 z" fill="green"/>
<path d="M5207,4181 l-337,-274.5" stroke="black" stroke-width="5"/>
<path d="M8657,6761 l60,0 l0,60 l-60,0 z" fill="green"/>
<path d="M8687,6791 l-801,160.5" stroke="black" stroke-width="5"/>
<path d="M180,9416 l60,0 l0,60 l-60,0 z" fill="green"/>
<path d="M210,9446 l-41,141.5" stroke="black" stroke-width="5"/>
<path d="M5262,1550 l60,0 l0,60 l-60,0 z" fill="green"/>
<path d="M5292,1580 l-404.5,31" stroke="black" stroke-width="5"/>
<path d="M8473,5455 l60,0 l0,60 l-60,0 z" fill="green"/>
<path d="M8503,5485 l-402,82.5" stroke="black" stroke-width="5"/>
<path d="M9304,9279 l60,0 l0,60 l-60,0 z" fill="green"/>
<path d="M9334,9309 l39,-576.5" stroke="black" stroke-width="5"/>
<path d="M7717,318 l60,0 l0,60 l-60,0 z" fill="green"/>
<path d="M7747,348 l92.5,0.5" stroke="black" stroke-width="5"/>
<path d="M4506,5358 l60,0 l0,60 l-60,0 z" fill="green"/>
<path d="M4536,5388 l-866.5,-456.5" stroke="black" stroke-width="5"/>
<path d="M7836,9699 l60,0 l0,60 l-60,0 z" fill="green"/>
<path d="M7866,9729 l-487,70" stroke="black" stroke-width="5"/>
<path d="M518,9016 l60,0 l0,60 l-60,0 z" fill="green"/>
<path d="M548,9046 l330,-154" stroke="black" stroke-width="5"/>
<path d="M7734,584 l60,0 l0,60 l-60,0 z" fill="green"/>
<path d="M7764,614 l163.5,391" stroke="black" stroke-width="5"/>
<path d="M7939,2153 l60,0 l0,60 l-60,0 z" fill="green"/>
<path d="M7969,2183 l133.5,-97.5" stroke="black" stroke-width="5"/>
<path d="M636,6747 l60,0 l0,60 l-60,0 z" fill="green"/>
<path d="M666,6777 l250.5,18.5" stroke="black" stroke-width="5"/>
<path d="M1145,905 l60,0 l0,60 l-60,0 z" fill="green"/>
<path d="M1175,935 l-155.5,-466.5" stroke="black" stroke-width="5"/>
<path d="M4292,6345 l60,0 l0,60 l-60,0 z" fill="green"/>
<path d="M4322,6375 l34,1203.5" stroke="black" stroke-width="5"/>
<path d="M2403,7590 l60,0 l0,60 l-60,0 z" fill="green"/>
<path d="M2433,7620 l245.5,-158.5" stroke="black" stroke-width="5"/>
<path d="M1889,2661 l60,0 l0,60 l-60,0 z" fill="green"/>
<path d="M1919,2691 l402.5,-211" stroke="black" stroke-width="5"/>
<path d="M6191,2319 l60,0 l0,60 l-60,0 z" fill="green"/>
<path d="M6221,2349 l-28.5,427.5" stroke="black" stroke-width="5"/>
<path d="M1064,4470 l60,0 l0,60 l-60,0 z" fill="green"/>
<path d="M1094,4500 l-381,-189.5" stroke="black" stroke-width="5"/>
<path d="M5783,5053 l60,0 l0,60 l-60,0 z" fill="green"/>
<path d="M5813,5083 l-204.5,218" stroke="black" stroke-width="5"/>
<path d="M4137,3909 l60,0 l0,60 l-60,0 z" fill="green"/>
<path d="M4167,3939 l-236,-358" stroke="black" stroke-width="5"/>
<path d="M2087,7995 l60,0 l0,60 l-60,0 z" fill="green"/>
<path d="M2117,8025 l75.5,158.5" stroke="black" stroke-width="5"/>
<path d="M586,8288 l60,0 l0,60 l-60,0 z" fill="green"/>
<path d="M616,8318 l-218,-4" stroke="black" stroke-width="5"/>
<path d="M659,9965 l60,0 l0,60 l-60,0 z" fill="green"/>
<path d="M689,9995 l534.5,-334.5" stroke="black" stroke-width="5"/>
<path d="M781,5852 l60,0 l0,60 l-60,0 z" fill="green"/>
<path d="M811,5882 l1,64" stroke="black" stroke-width="5"/>
<path d="M8602,5409 l60,0 l0,60 l-60,0 z" fill="green"/>
<path d="M8632,5439 l185,614.5" stroke="black" stroke-width="5"/>
<path d="M6200,5042 l60,0 l0,60 l-60,0 z" fill="green"/>
<path d="M6230,5072 l-70.5,227" stroke="black" stroke-width="5"/>
<path d="M8043,4235 l60,0 l0,60 l-60,0 z" fill="green"/>
<path d="M8073,4265 l-709.5,-332.5" stroke="black" stroke-width="5"/>
<path d="M6622,4585 l60,0 l0,60 l-60,0 z" fill="green"/>
<path d="M6652,4615 l711.5,167" stroke="black" stroke-width="5"/>
<path d="M9301,5612 l60,0 l0,60 l-60,0 z" fill="green"/>
<path d="M9331,5642 l233.5,-484.5" stroke="black" stroke-width="5"/>
<path d="M2771,4279 l60,0 l0,60 l-60,0 z" fill="green"/>
<path d="M2801,4309 l-70.5,517" stroke="black" stroke-width="5"/>
<path d="M766,8532 l60,0 l0,60 l-60,0 z" fill="green"/>
<path d="M796,8562 l539,-140.5" stroke="black" stroke-width="5"/>
<path d="M2790,4045 l60,0 l0,60 l-60,0 z" fill="green"/>
<path d="M2820,4075 l24,-412.5" stroke="black" stroke-width="5"/>
<path d="M5210,2274 l60,0 l0,60 l-60,0 z" fill="green"/>
<path d="M5240,2304 l-321,-5" stroke="black" stroke-width="5"/>
<text font-size="140.71950894605837" text-anchor="middle" x="4484.5" y="3184.2518281311204">
0
</text>
<text font-size="140.71950894605837" text-anchor="middle" x="1667.5" y="4026.7518281311204">
1
</text>
<text font-size="140.71950894605837" text-anchor="middle" x="7377" y="1581.2518281311204">
2
</text>
<text font-size="140.71950894605837" text-anchor="middle" x="4970" y="5235.75182813112">
3
</text>
<text font-size="140.71950894605837" text-anchor="middle" x="5927.5" y="5350.25182813112">
4
</text>
<text font-size="140.71950894605837" text-anchor="middle" x="2165.5" y="1929.7518281311204">
5
</text>
<text font-size="140.71950894605837" text-anchor="middle" x="6438.5" y="9028.25182813112">
6
</text>
<text font-size="140.71950894605837" text-anchor="middle" x="671.5" y="8043.25182813112">
7
</text>
<text font-size="140.71950894605837" text-anchor="middle" x="1252.5" y="1377.2518281311204">
8
</text>
<text font-size="140.71950894605837" text-anchor="middle" x="6027.5" y="1449.7518281311204">
9
</text>
<text font-size="140.71950894605837" text-anchor="middle" x="2700" y="9424.75182813112">
10
</text>
<text font-size="140.71950894605837" text-anchor="middle" x="9953.5" y="7578.75182813112">
11
</text>
<text font-size="140.71950894605837" text-anchor="middle" x="2569.5" y="786.2518281311204">
12
</text>
<text font-size="140.71950894605837" text-anchor="middle" x="285.5" y="818.7518281311204">
13
</text>
<text font-size="140.71950894605837" text-anchor="middle" x="283" y="2494.2518281311204">
14
</text>
<text font-size="140.71950894605837" text-anchor="middle" x="9487" y="3571.2518281311204">
15
</text>
<text font-size="140.71950894605837" text-anchor="middle" x="513" y="9636.75182813112">
16
</text>
<text font-size="140.71950894605837" text-anchor="middle" x="6836" y="2564.2518281311204">
17
</text>
<text font-size="140.71950894605837" text-anchor="middle" x="4970.5" y="4522.75182813112">
18
</text>
<text font-size="140.71950894605837" text-anchor="middle" x="4272.5" y="910.7518281311204">
19
</text>
<text font-size="140.71950894605837" text-anchor="middle" x="2293" y="4449.75182813112">
20
</text>
<text font-size="140.71950894605837" text-anchor="middle" x="3027.5" y="8258.25182813112">
21
</text>
<text font-size="140.71950894605837" text-anchor="middle" x="7789" y="6535.75182813112">
22
</text>
<text font-size="140.71950894605837" text-anchor="middle" x="7521" y="2757.7518281311204">
23
</text>
<text font-size="140.71950894605837" text-anchor="middle" x="8362.5" y="2631.7518281311204">
24
</text>
<text font-size="140.71950894605837" text-anchor="middle" x="7640.5" y="3091.2518281311204">
25
</text>
<text font-size="140.71950894605837" text-anchor="middle" x="8843.5" y="4600.25182813112">
26
</text>
<text font-size="140.71950894605837" text-anchor="middle" x="3685.5" y="8041.25182813112">
27
</text>
<text font-size="140.71950894605837" text-anchor="middle" x="7358.5" y="9502.25182813112">
28
</text>
<text font-size="140.71950894605837" text-anchor="middle" x="2358.5" y="3875.7518281311204">
29
</text>
<text font-size="140.71950894605837" text-anchor="middle" x="5260.5" y="8738.25182813112">
30
</text>
<text font-size="140.71950894605837" text-anchor="middle" x="5656.5" y="6995.25182813112">
31
</text>
<text font-size="140.71950894605837" text-anchor="middle" x="9148" y="9704.25182813112">
32
</text>
<text font-size="140.71950894605837" text-anchor="middle" x="8527" y="3303.7518281311204">
33
</text>
<text font-size="140.71950894605837" text-anchor="middle" x="8402.5" y="4616.75182813112">
34
</text>
<text font-size="140.71950894605837" text-anchor="middle" x="3194.5" y="3728.7518281311204">
35
</text>
<text font-size="140.71950894605837" text-anchor="middle" x="4970" y="4890.25182813112">
36
</text>
<text font-size="140.71950894605837" text-anchor="middle" x="1691" y="3230.7518281311204">
37
</text>
<text font-size="140.71950894605837" text-anchor="middle" x="1661.5" y="6390.75182813112">
38
</text>
<text font-size="140.71950894605837" text-anchor="middle" x="817.5" y="5240.75182813112">
39
</text>
<text font-size="140.71950894605837" text-anchor="middle" x="9568" y="6472.25182813112">
40
</text>
<text font-size="140.71950894605837" text-anchor="middle" x="5581.5" y="7542.75182813112">
41
</text>
<text font-size="140.71950894605837" text-anchor="middle" x="4854" y="3293.7518281311204">
42
</text>
<text font-size="140.71950894605837" text-anchor="middle" x="9928.5" y="1384.2518281311204">
43
</text>
<text font-size="140.71950894605837" text-anchor="middle" x="710" y="3830.2518281311204">
44
</text>
<text font-size="140.71950894605837" text-anchor="middle" x="2419.5" y="6742.75182813112">
45
</text>
<text font-size="140.71950894605837" text-anchor="middle" x="7875.5" y="8579.75182813112">
46
</text>
<text font-size="140.71950894605837" text-anchor="middle" x="8610.5" y="329.2518281311204">
47
</text>
<text font-size="140.71950894605837" text-anchor="middle" x="6253.5" y="1435.2518281311204">
48
</text>
<text font-size="140.71950894605837" text-anchor="middle" x="4167" y="2602.2518281311204">
49
</text>
<text font-size="140.71950894605837" text-anchor="middle" x="6464.5" y="5196.75182813112">
50
</text>
<text font-size="140.71950894605837" text-anchor="middle" x="7493" y="1821.2518281311204">
51
</text>
<text font-size="140.71950894605837" text-anchor="middle" x="3024" y="319.2518281311204">
52
</text>
<text font-size="140.71950894605837" text-anchor="middle" x="9371" y="1664.7518281311204">
53
</text>
<text font-size="140.71950894605837" text-anchor="middle" x="6198.5" y="421.7518281311204">
54
</text>
<text font-size="140.71950894605837" text-anchor="middle" x="3986.5" y="1376.7518281311204">
55
</text>
<text font-size="140.71950894605837" text-anchor="middle" x="5750.5" y="3731.7518281311204">
56
</text>
<text font-size="140.71950894605837" text-anchor="middle" x="3545" y="5631.25182813112">
57
</text>
<text font-size="140.71950894605837" text-anchor="middle" x="6904" y="8886.25182813112">
58
</text>
<text font-size="140.71950894605837" text-anchor="middle" x="5576.5" y="2765.7518281311204">
59
</text>
<text font-size="140.71950894605837" text-anchor="middle" x="7360.5" y="5680.75182813112">
60
</text>
<text font-size="140.71950894605837" text-anchor="middle" x="5507.5" y="7899.25182813112">
61
</text>
<text font-size="140.71950894605837" text-anchor="middle" x="7661" y="7804.75182813112">
62
</text>
<text font-size="140.71950894605837" text-anchor="middle" x="5069" y="9752.25182813112">
63
</text>
<text font-size="140.71950894605837" text-anchor="middle" x="3982.5" y="4300.75182813112">
64
</text>
<text font-size="140.71950894605837" text-anchor="middle" x="3472.5" y="2985.7518281311204">
65
</text>
<text font-size="140.71950894605837" text-anchor="middle" x="2861.5" y="1129.7518281311204">
66
</text>
<text font-size="140.71950894605837" text-anchor="middle" x="4870" y="3955.7518281311204">
67
</text>
<text font-size="140.71950894605837" text-anchor="middle" x="7886" y="7000.75182813112">
68
</text>
<text font-size="140.71950894605837" text-anchor="middle" x="169" y="9636.75182813112">
69
</text>
<text font-size="140.71950894605837" text-anchor="middle" x="4887.5" y="1660.2518281311204">
70
</text>
<text font-size="140.71950894605837" text-anchor="middle" x="8101" y="5616.75182813112">
71
</text>
<text font-size="140.71950894605837" text-anchor="middle" x="9373" y="8781.75182813112">
72
</text>
<text font-size="140.71950894605837" text-anchor="middle" x="7839.5" y="397.7518281311204">
73
</text>
<text font-size="140.71950894605837" text-anchor="middle" x="3669.5" y="4980.75182813112">
74
</text>
<text font-size="140.71950894605837" text-anchor="middle" x="7379" y="9848.25182813112">
75
</text>
<text font-size="140.71950894605837" text-anchor="middle" x="878" y="8941.25182813112">
76
</text>
<text font-size="140.71950894605837" text-anchor="middle" x="7927.5" y="1054.2518281311204">
77
</text>
<text font-size="140.71950894605837" text-anchor="middle" x="8102.5" y="2134.7518281311204">
78
</text>
<text font-size="140.71950894605837" text-anchor="middle" x="916.5" y="6844.75182813112">
79
</text>
<text font-size="140.71950894605837" text-anchor="middle" x="1019.5" y="517.7518281311204">
80
</text>
<text font-size="140.71950894605837" text-anchor="middle" x="4356" y="7627.75182813112">
81
</text>
<text font-size="140.71950894605837" text-anchor="middle" x="2678.5" y="7510.75182813112">
82
</text>
<text font-size="140.71950894605837" text-anchor="middle" x="2321.5" y="2529.2518281311204">
83
</text>
<text font-size="140.71950894605837" text-anchor="middle" x="6192.5" y="2825.7518281311204">
84
</text>
<text font-size="140.71950894605837" text-anchor="middle" x="713" y="4359.75182813112">
85
</text>
<text font-size="140.71950894605837" text-anchor="middle" x="5608.5" y="5350.25182813112">
86
</text>
<text font-size="140.71950894605837" text-anchor="middle" x="3931" y="3630.2518281311204">
87
</text>
<text font-size="140.71950894605837" text-anchor="middle" x="2192.5" y="8232.75182813112">
88
</text>
<text font-size="140.71950894605837" text-anchor="middle" x="398" y="8363.25182813112">
89
</text>
<text font-size="140.71950894605837" text-anchor="middle" x="1223.5" y="9709.75182813112">
90
</text>
<text font-size="140.71950894605837" text-anchor="middle" x="812" y="5995.25182813112">
91
</text>
<text font-size="140.71950894605837" text-anchor="middle" x="8817" y="6102.75182813112">
92
</text>
<text font-size="140.71950894605837" text-anchor="middle" x="6159.5" y="5348.25182813112">
93
</text>
<text font-size="140.71950894605837" text-anchor="middle" x="7363.5" y="3981.7518281311204">
94
</text>
<text font-size="140.71950894605837" text-anchor="middle" x="7363.5" y="4831.25182813112">
95
</text>
<text font-size="140.71950894605837" text-anchor="middle" x="9564.5" y="5206.75182813112">
96
</text>
<text font-size="140.71950894605837" text-anchor="middle" x="2730.5" y="4875.25182813112">
97
</text>
<text font-size="140.71950894605837" text-anchor="middle" x="1335" y="8470.75182813112">
98
</text>
<text font-size="140.71950894605837" text-anchor="middle" x="2844" y="3711.7518281311204">
99
</text>
<text font-size="140.71950894605837" text-anchor="middle" x="4919" y="2348.2518281311204">
100
</text>
</svg>