<svg viewBox="0 0 10000 10000" xmlns="http://www.w3.org/2000/svg">
<path d="M0,0 l10000,0 l0,10000 l-10000,0 z" fill="white"/>
<path d="M4174,2888 l332,0 l0,567 l-332,0 z" fill="#ff00fe" stroke="black" stroke-width="5"/>
<path d="M1157,3424 l1591,0 l0,326 l-1591,0 z" fill="#ff00fe" stroke="black" stroke-width="5"/>
<path d="M7091,1228 l525,0 l0,491 l-525,0 z" fill="#ff00fe" stroke="black" stroke-width="5"/>
<path d="M579,5113 l4362,0 l0,192 l-4362,0 z" fill="#fe00ff" stroke="black" stroke-width="5"/>
<path d="M5378,5138 l481,0 l0,2132 l-481,0 z" fill="#ff00fe" stroke="black" stroke-width="5"/>
<path d="M664,1590 l836,0 l0,1285 l-836,0 z" fill="#ff00fe" stroke="black" stroke-width="5"/>
<path d="M6453,9450 l196,0 l0,422 l-196,0 z" fill="#ff00fe" stroke="black" stroke-width="5"/>
<path d="M572,7843 l310,0 l0,176 l-310,0 z" fill="#ff00fe" stroke="black" stroke-width="5"/>
<path d="M952,1028 l2205,0 l0,555 l-2205,0 z" fill="#ff00fe" stroke="black" stroke-width="5"/>
<path d="M5925,1749 l115,0 l0,201 l-115,0 z" fill="#ff00fe" stroke="black" stroke-width="5"/>
<path d="M1777,8750 l1861,0 l0,1250 l-1861,0 z" fill="#9c00ff" stroke="black" stroke-width="5"/>
<path d="M9913,7450 l87,0 l0,1264 l-87,0 z" fill="#ff00fe" stroke="black" stroke-width="5"/>
<path d="M2164,84 l718,0 l0,852 l-718,0 z" fill="#ff00fe" stroke="black" stroke-width="5"/>
<path d="M65,95 l835,0 l0,918 l-835,0 z" fill="#ff00fe" stroke="black" stroke-width="5"/>
<path d="M59,1013 l605,0 l0,1851 l-605,0 z" fill="#fe00ff" stroke="black" stroke-width="5"/>
<path d="M9158,2692 l842,0 l0,2196 l-842,0 z" fill="#ab00ff" stroke="black" stroke-width="5"/>
<path d="M0,9048 l1777,0 l0,397 l-1777,0 z" fill="#d600ff" stroke="black" stroke-width="5"/>
<path d="M6635,2532 l565,0 l0,1999 l-565,0 z" fill="#e900ff" stroke="black" stroke-width="5"/>
<path d="M4954,4191 l406,0 l0,3169 l-406,0 z" fill="#f100ff" stroke="black" stroke-width="5"/>
<path d="M3281,477 l1312,0 l0,451 l-1312,0 z" fill="#fe00ff" stroke="black" stroke-width="5"/>
<path d="M1887,4229 l414,0 l0,753 l-414,0 z" fill="#ff00fe" stroke="black" stroke-width="5"/>
<path d="M2503,7736 l1118,0 l0,1014 l-1118,0 z" fill="#ff00fe" stroke="black" stroke-width="5"/>
<path d="M7459,6565 l635,0 l0,484 l-635,0 z" fill="#ff00fe" stroke="black" stroke-width="5"/>
<path d="M7200,2831 l260,0 l0,1170 l-260,0 z" fill="#ff00fe" stroke="black" stroke-width="5"/>
<path d="M8814,2465 l965,0 l0,225 l-965,0 z" fill="#ff00fe" stroke="black" stroke-width="5"/>
<path d="M7520,2720 l427,0 l0,285 l-427,0 z" fill="#ff00fe" stroke="black" stroke-width="5"/>
<path d="M8540,4339 l618,0 l0,549 l-618,0 z" fill="#fe00ff" stroke="black" stroke-width="5"/>
<path d="M3639,7525 l176,0 l0,1984 l-176,0 z" fill="#ff00fe" stroke="black" stroke-width="5"/>
<path d="M6649,9039 l708,0 l0,691 l-708,0 z" fill="#ff00fe" stroke="black" stroke-width="5"/>
<path d="M1188,3751 l1335,0 l0,478 l-1335,0 z" fill="#ff00fe" stroke="black" stroke-width="5"/>
<path d="M4870,7818 l950,0 l0,1586 l-950,0 z" fill="#ff00fe" stroke="black" stroke-width="5"/>
<path d="M5859,6519 l1600,0 l0,528 l-1600,0 z" fill="#fe00ff" stroke="black" stroke-width="5"/>
<path d="M8277,9310 l1723,0 l0,690 l-1723,0 z" fill="#c500ff" stroke="black" stroke-width="5"/>
<path d="M8540,2691 l618,0 l0,1648 l-618,0 z" fill="#e500ff" stroke="black" stroke-width="5"/>
<path d="M8092,2465 l448,0 l0,2870 l-448,0 z" fill="#fd00ff" stroke="black" stroke-width="5"/>
<path d="M2837,3479 l592,0 l0,1523 l-592,0 z" fill="#ff00fe" stroke="black" stroke-width="5"/>
<path d="M4168,3470 l786,0 l0,1643 l-786,0 z" fill="#ac00ff" stroke="black" stroke-width="5"/>
<path d="M1016,2888 l2241,0 l0,536 l-2241,0 z" fill="#fe00ff" stroke="black" stroke-width="5"/>
<path d="M1388,4636 l417,0 l0,438 l-417,0 z" fill="#ff00fe" stroke="black" stroke-width="5"/>
<path d="M844,5467 l2945,0 l0,801 l-2945,0 z" fill="#fe00ff" stroke="black" stroke-width="5"/>
<path d="M8694,5642 l445,0 l0,1804 l-445,0 z" fill="#fe00ff" stroke="black" stroke-width="5"/>
<path d="M4330,7360 l2231,0 l0,458 l-2231,0 z" fill="#fe00ff" stroke="black" stroke-width="5"/>
<path d="M4511,1598 l154,0 l0,1872 l-154,0 z" fill="#ff00fe" stroke="black" stroke-width="5"/>
<path d="M9857,0 l143,0 l0,2692 l-143,0 z" fill="#a100ff" stroke="black" stroke-width="5"/>
<path d="M3,2917 l1013,0 l0,968 l-1013,0 z" fill="#ff00fe" stroke="black" stroke-width="5"/>
<path d="M1451,6270 l2249,0 l0,356 l-2249,0 z" fill="#ff00fe" stroke="black" stroke-width="5"/>
<path d="M8435,7461 l307,0 l0,1844 l-307,0 z" fill="#fe00ff" stroke="black" stroke-width="5"/>
<path d="M8782,64 l938,0 l0,558 l-938,0 z" fill="#ff00fe" stroke="black" stroke-width="5"/>
<path d="M6040,1772 l1921,0 l0,302 l-1921,0 z" fill="#fd00ff" stroke="black" stroke-width="5"/>
<path d="M3607,2973 l554,0 l0,401 l-554,0 z" fill="#ff00fe" stroke="black" stroke-width="5"/>
<path d="M6103,2532 l532,0 l0,2539 l-532,0 z" fill="#e700ff" stroke="black" stroke-width="5"/>
<path d="M6362,1712 l197,0 l0,60 l-197,0 z" fill="#ff00fe" stroke="black" stroke-width="5"/>
<path d="M4432,26 l825,0 l0,386 l-825,0 z" fill="#ff00fe" stroke="black" stroke-width="5"/>
<path d="M8321,635 l1536,0 l0,1830 l-1536,0 z" fill="#ff00fe" stroke="black" stroke-width="5"/>
<path d="M5325,52 l2060,0 l0,1141 l-2060,0 z" fill="#fe00ff" stroke="black" stroke-width="5"/>
<path d="M5329,1249 l226,0 l0,226 l-226,0 z" fill="#ff00fe" stroke="black" stroke-width="5"/>
<path d="M5412,3306 l604,0 l0,520 l-604,0 z" fill="#ff00fe" stroke="black" stroke-width="5"/>
<path d="M3923,5457 l1025,0 l0,908 l-1025,0 z" fill="#fe00ff" stroke="black" stroke-width="5"/>
<path d="M6792,8453 l517,0 l0,383 l-517,0 z" fill="#ff00fe" stroke="black" stroke-width="5"/>
<path d="M4665,2309 l1268,0 l0,991 l-1268,0 z" fill="#fe00ff" stroke="black" stroke-width="5"/>
<path d="M7064,5070 l400,0 l0,1449 l-400,0 z" fill="#fe00ff" stroke="black" stroke-width="5"/>
<path d="M5830,7820 l724,0 l0,386 l-724,0 z" fill="#fe00ff" stroke="black" stroke-width="5"/>
<path d="M6561,7049 l1874,0 l0,1319 l-1874,0 z" fill="#f800ff" stroke="black" stroke-width="5"/>
<path d="M3815,9404 l2637,0 l0,596 l-2637,0 z" fill="#f000ff" stroke="black" stroke-width="5"/>
<path d="M3633,4337 l428,0 l0,553 l-428,0 z" fill="#ff00fe" stroke="black" stroke-width="5"/>
<path d="M3260,2927 l150,0 l0,225 l-150,0 z" fill="#fe00ff" stroke="black" stroke-width="5"/>
<path d="M1566,167 l535,0 l0,859 l-535,0 z" fill="#ff00fe" stroke="black" stroke-width="5"/>
<path d="M4954,3300 l406,0 l0,890 l-406,0 z" fill="#fe00ff" stroke="black" stroke-width="5"/>
<path d="M8094,5941 l600,0 l0,1106 l-600,0 z" fill="#fe00ff" stroke="black" stroke-width="5"/>
<path d="M0,9445 l1777,0 l0,201 l-1777,0 z" fill="#fd00ff" stroke="black" stroke-width="5"/>
<path d="M3224,949 l2101,0 l0,632 l-2101,0 z" fill="#ff00fe" stroke="black" stroke-width="5"/>
<path d="M8091,5335 l456,0 l0,606 l-456,0 z" fill="#ff00fe" stroke="black" stroke-width="5"/>
<path d="M8744,7446 l1169,0 l0,1864 l-1169,0 z" fill="#3600ff" stroke="black" stroke-width="5"/>
<path d="M7434,2 l332,0 l0,349 l-332,0 z" fill="#ff00fe" stroke="black" stroke-width="5"/>
<path d="M555,5305 l4399,0 l0,152 l-4399,0 z" fill="#2d00ff" stroke="black" stroke-width="5"/>
<path d="M7357,8368 l920,0 l0,1632 l-920,0 z" fill="#f700ff" stroke="black" stroke-width="5"/>
<path d="M0,3891 l549,0 l0,5156 l-549,0 z" fill="#fe00ff" stroke="black" stroke-width="5"/>
<path d="M7385,415 l571,0 l0,558 l-571,0 z" fill="#ff00fe" stroke="black" stroke-width="5"/>
<path d="M7961,202 l360,0 l0,2153 l-360,0 z" fill="#fe00ff" stroke="black" stroke-width="5"/>
<path d="M634,6640 l3338,0 l0,519 l-3338,0 z" fill="#ff00fe" stroke="black" stroke-width="5"/>
<path d="M1032,210 l432,0 l0,781 l-432,0 z" fill="#ff00fe" stroke="black" stroke-width="5"/>
<path d="M4065,6375 l259,0 l0,2959 l-259,0 z" fill="#ff00fe" stroke="black" stroke-width="5"/>
<path d="M2028,7159 l1420,0 l0,565 l-1420,0 z" fill="#ff00fe" stroke="black" stroke-width="5"/>
<path d="M1529,1585 l2972,0 l0,1303 l-2972,0 z" fill="#fe00ff" stroke="black" stroke-width="5"/>
<path d="M5933,2074 l2028,0 l0,458 l-2028,0 z" fill="#fd00ff" stroke="black" stroke-width="5"/>
<path d="M553,4038 l635,0 l0,857 l-635,0 z" fill="#fe00ff" stroke="black" stroke-width="5"/>
<path d="M5360,3828 l743,0 l0,1310 l-743,0 z" fill="#ad00ff" stroke="black" stroke-width="5"/>
<path d="M3429,3415 l739,0 l0,816 l-739,0 z" fill="#ff00fe" stroke="black" stroke-width="5"/>
<path d="M2017,7795 l478,0 l0,888 l-478,0 z" fill="#ff00fe" stroke="black" stroke-width="5"/>
<path d="M552,8021 l1355,0 l0,522 l-1355,0 z" fill="#ff00fe" stroke="black" stroke-width="5"/>
<path d="M0,9646 l1777,0 l0,354 l-1777,0 z" fill="#f800ff" stroke="black" stroke-width="5"/>
<path d="M551,5619 l293,0 l0,616 l-293,0 z" fill="#ff00fe" stroke="black" stroke-width="5"/>
<path d="M8547,4888 l1453,0 l0,754 l-1453,0 z" fill="#f100ff" stroke="black" stroke-width="5"/>
<path d="M6107,5072 l957,0 l0,1445 l-957,0 z" fill="#fd00ff" stroke="black" stroke-width="5"/>
<path d="M7466,3007 l625,0 l0,3558 l-625,0 z" fill="#fd00ff" stroke="black" stroke-width="5"/>
<path d="M6635,4531 l831,0 l0,539 l-831,0 z" fill="#fe00ff" stroke="black" stroke-width="5"/>
<path d="M9139,5642 l861,0 l0,1804 l-861,0 z" fill="#cf00ff" stroke="black" stroke-width="5"/>
<path d="M2478,4260 l352,0 l0,473 l-352,0 z" fill="#ff00fe" stroke="black" stroke-width="5"/>
<path d="M696,8553 l741,0 l0,488 l-741,0 z" fill="#ff00fe" stroke="black" stroke-width="5"/>
<path d="M2539,3766 l295,0 l0,321 l-295,0 z" fill="#fe00ff" stroke="black" stroke-width="5"/>
<path d="M5235,1613 l400,0 l0,696 l-400,0 z" fill="#ff00fe" stroke="black" stroke-width="5"/>
<path d="M4442,3239 l60,0 l0,60 l-60,0 z" fill="green"/>
<path d="M4472,3269 l-132,-97.5" stroke="black" stroke-width="5"/>
<path d="M1721,3708 l60,0 l0,60 l-60,0 z" fill="green"/>
<path d="M1751,3738 l201.5,-151" stroke="black" stroke-width="5"/>
<path d="M7511,1549 l60,0 l0,60 l-60,0 z" fill="green"/>
<path d="M7541,1579 l-187.5,-105.5" stroke="black" stroke-width="5"/>
<path d="M4630,5274 l60,0 l0,60 l-60,0 z" fill="green"/>
<path d="M4660,5304 l-1900,-95" stroke="black" stroke-width="5"/>
<path d="M5827,5108 l60,0 l0,60 l-60,0 z" fill="green"/>
<path d="M5857,5138 l-238.5,1066" stroke="black" stroke-width="5"/>
<path d="M1308,1763 l60,0 l0,60 l-60,0 z" fill="green"/>
<path d="M1338,1793 l-256,439.5" stroke="black" stroke-width="5"/>
<path d="M6423,9626 l60,0 l0,60 l-60,0 z" fill="green"/>
<path d="M6453,9656 l98,5" stroke="black" stroke-width="5"/>
<path d="M542,7988 l60,0 l0,60 l-60,0 z" fill="green"/>
<path d="M572,8018 l155,-87" stroke="black" stroke-width="5"/>
<path d="M1040,1192 l60,0 l0,60 l-60,0 z" fill="green"/>
<path d="M1070,1222 l984.5,83.5" stroke="black" stroke-width="5"/>
<path d="M6003,1902 l60,0 l0,60 l-60,0 z" fill="green"/>
<path d="M6033,1932 l-50.5,-82.5" stroke="black" stroke-width="5"/>
<path d="M2133,9945 l60,0 l0,60 l-60,0 z" fill="green"/>
<path d="M2163,9975 l544.5,-600" stroke="black" stroke-width="5"/>
<path d="M9887,8124 l60,0 l0,60 l-60,0 z" fill="green"/>
<path d="M9917,8154 l39.5,-72" stroke="black" stroke-width="5"/>
<path d="M2579,839 l60,0 l0,60 l-60,0 z" fill="green"/>
<path d="M2609,869 l-86,-359" stroke="black" stroke-width="5"/>
<path d="M355,925 l60,0 l0,60 l-60,0 z" fill="green"/>
<path d="M385,955 l97.5,-401" stroke="black" stroke-width="5"/>
<path d="M533,1683 l60,0 l0,60 l-60,0 z" fill="green"/>
<path d="M563,1713 l-201.5,225.5" stroke="black" stroke-width="5"/>
<path d="M9865,3393 l60,0 l0,60 l-60,0 z" fill="green"/>
<path d="M9895,3423 l-316,367" stroke="black" stroke-width="5"/>
<path d="M309,9385 l60,0 l0,60 l-60,0 z" fill="green"/>
<path d="M339,9415 l549.5,-168.5" stroke="black" stroke-width="5"/>
<path d="M6605,2936 l60,0 l0,60 l-60,0 z" fill="green"/>
<path d="M6635,2966 l282.5,565.5" stroke="black" stroke-width="5"/>
<path d="M4977,4352 l60,0 l0,60 l-60,0 z" fill="green"/>
<path d="M5007,4382 l150,1393.5" stroke="black" stroke-width="5"/>
<path d="M4508,848 l60,0 l0,60 l-60,0 z" fill="green"/>
<path d="M4538,878 l-601,-175.5" stroke="black" stroke-width="5"/>
<path d="M1904,4199 l60,0 l0,60 l-60,0 z" fill="green"/>
<path d="M1934,4229 l160,376.5" stroke="black" stroke-width="5"/>
<path d="M2473,8719 l60,0 l0,60 l-60,0 z" fill="green"/>
<path d="M2503,8749 l559,-506" stroke="black" stroke-width="5"/>
<path d="M7928,6650 l60,0 l0,60 l-60,0 z" fill="green"/>
<path d="M7958,6680 l-181.5,127" stroke="black" stroke-width="5"/>
<path d="M7170,2901 l60,0 l0,60 l-60,0 z" fill="green"/>
<path d="M7200,2931 l130,485" stroke="black" stroke-width="5"/>
<path d="M8852,2659 l60,0 l0,60 l-60,0 z" fill="green"/>
<path d="M8882,2689 l414.5,-111.5" stroke="black" stroke-width="5"/>
<path d="M7602,2974 l60,0 l0,60 l-60,0 z" fill="green"/>
<path d="M7632,3004 l101.5,-141.5" stroke="black" stroke-width="5"/>
<path d="M8700,4412 l60,0 l0,60 l-60,0 z" fill="green"/>
<path d="M8730,4442 l119,171.5" stroke="black" stroke-width="5"/>
<path d="M3615,9478 l60,0 l0,60 l-60,0 z" fill="green"/>
<path d="M3645,9508 l82,-991" stroke="black" stroke-width="5"/>
<path d="M7326,9567 l60,0 l0,60 l-60,0 z" fill="green"/>
<path d="M7356,9597 l-353,-212.5" stroke="black" stroke-width="5"/>
<path d="M1937,3823 l60,0 l0,60 l-60,0 z" fill="green"/>
<path d="M1967,3853 l-111.5,137" stroke="black" stroke-width="5"/>
<path d="M5454,9373 l60,0 l0,60 l-60,0 z" fill="green"/>
<path d="M5484,9403 l-139,-792" stroke="black" stroke-width="5"/>
<path d="M6389,6739 l60,0 l0,60 l-60,0 z" fill="green"/>
<path d="M6419,6769 l240,14" stroke="black" stroke-width="5"/>
<path d="M9141,9932 l60,0 l0,60 l-60,0 z" fill="green"/>
<path d="M9171,9962 l-32.5,-307" stroke="black" stroke-width="5"/>
<path d="M8877,3302 l60,0 l0,60 l-60,0 z" fill="green"/>
<path d="M8907,3332 l-58,183" stroke="black" stroke-width="5"/>
<path d="M8509,4261 l60,0 l0,60 l-60,0 z" fill="green"/>
<path d="M8539,4291 l-223,-391" stroke="black" stroke-width="5"/>
<path d="M3320,4287 l60,0 l0,60 l-60,0 z" fill="green"/>
<path d="M3350,4317 l-217,-76.5" stroke="black" stroke-width="5"/>
<path d="M4783,4886 l60,0 l0,60 l-60,0 z" fill="green"/>
<path d="M4813,4916 l-252,-624.5" stroke="black" stroke-width="5"/>
<path d="M1582,2890 l60,0 l0,60 l-60,0 z" fill="green"/>
<path d="M1612,2920 l524.5,236" stroke="black" stroke-width="5"/>
<path d="M1618,4896 l60,0 l0,60 l-60,0 z" fill="green"/>
<path d="M1648,4926 l-51.5,-71" stroke="black" stroke-width="5"/>
<path d="M814,5536 l60,0 l0,60 l-60,0 z" fill="green"/>
<path d="M844,5566 l1472.5,301.5" stroke="black" stroke-width="5"/>
<path d="M9106,5912 l60,0 l0,60 l-60,0 z" fill="green"/>
<path d="M9136,5942 l-219.5,602" stroke="black" stroke-width="5"/>
<path d="M6528,7344 l60,0 l0,60 l-60,0 z" fill="green"/>
<path d="M6558,7374 l-1112.5,215" stroke="black" stroke-width="5"/>
<path d="M4621,3439 l60,0 l0,60 l-60,0 z" fill="green"/>
<path d="M4651,3469 l-63,-935" stroke="black" stroke-width="5"/>
<path d="M9887,2389 l60,0 l0,60 l-60,0 z" fill="green"/>
<path d="M9917,2419 l11.5,-1073" stroke="black" stroke-width="5"/>
<path d="M888,3854 l60,0 l0,60 l-60,0 z" fill="green"/>
<path d="M918,3884 l-408.5,-483" stroke="black" stroke-width="5"/>
<path d="M1751,6560 l60,0 l0,60 l-60,0 z" fill="green"/>
<path d="M1781,6590 l794.5,-142" stroke="black" stroke-width="5"/>
<path d="M8711,8337 l60,0 l0,60 l-60,0 z" fill="green"/>
<path d="M8741,8367 l-152.5,16" stroke="black" stroke-width="5"/>
<path d="M9038,527 l60,0 l0,60 l-60,0 z" fill="green"/>
<path d="M9068,557 l183,-214" stroke="black" stroke-width="5"/>
<path d="M6132,1988 l60,0 l0,60 l-60,0 z" fill="green"/>
<path d="M6162,2018 l838.5,-95" stroke="black" stroke-width="5"/>
<path d="M4045,3121 l60,0 l0,60 l-60,0 z" fill="green"/>
<path d="M4075,3151 l-191,22.5" stroke="black" stroke-width="5"/>
<path d="M6248,4840 l60,0 l0,60 l-60,0 z" fill="green"/>
<path d="M6278,4870 l91,-1068.5" stroke="black" stroke-width="5"/>
<path d="M6441,1741 l60,0 l0,60 l-60,0 z" fill="green"/>
<path d="M6471,1771 l-10.5,-29" stroke="black" stroke-width="5"/>
<path d="M4645,244 l60,0 l0,60 l-60,0 z" fill="green"/>
<path d="M4675,274 l169.5,-55" stroke="black" stroke-width="5"/>
<path d="M9826,2432 l60,0 l0,60 l-60,0 z" fill="green"/>
<path d="M9856,2462 l-767,-912" stroke="black" stroke-width="5"/>
<path d="M5817,556 l60,0 l0,60 l-60,0 z" fill="green"/>
<path d="M5847,586 l508,36.5" stroke="black" stroke-width="5"/>
<path d="M5318,1297 l60,0 l0,60 l-60,0 z" fill="green"/>
<path d="M5348,1327 l94,35" stroke="black" stroke-width="5"/>
<path d="M5825,3795 l60,0 l0,60 l-60,0 z" fill="green"/>
<path d="M5855,3825 l-141,-259" stroke="black" stroke-width="5"/>
<path d="M4531,5427 l60,0 l0,60 l-60,0 z" fill="green"/>
<path d="M4561,5457 l-125.5,454" stroke="black" stroke-width="5"/>
<path d="M6806,8755 l60,0 l0,60 l-60,0 z" fill="green"/>
<path d="M6836,8785 l214.5,-140.5" stroke="black" stroke-width="5"/>
<path d="M5713,2579 l60,0 l0,60 l-60,0 z" fill="green"/>
<path d="M5743,2609 l-444,195.5" stroke="black" stroke-width="5"/>
<path d="M7106,5199 l60,0 l0,60 l-60,0 z" fill="green"/>
<path d="M7136,5229 l128,565.5" stroke="black" stroke-width="5"/>
<path d="M6523,7790 l60,0 l0,60 l-60,0 z" fill="green"/>
<path d="M6553,7820 l-361,193" stroke="black" stroke-width="5"/>
<path d="M8344,8131 l60,0 l0,60 l-60,0 z" fill="green"/>
<path d="M8374,8161 l-876,-452.5" stroke="black" stroke-width="5"/>
<path d="M5250,9729 l60,0 l0,60 l-60,0 z" fill="green"/>
<path d="M5280,9759 l-146.5,-57" stroke="black" stroke-width="5"/>
<path d="M3990,4376 l60,0 l0,60 l-60,0 z" fill="green"/>
<path d="M4020,4406 l-173,207.5" stroke="black" stroke-width="5"/>
<path d="M3286,2897 l60,0 l0,60 l-60,0 z" fill="green"/>
<path d="M3316,2927 l19,112.5" stroke="black" stroke-width="5"/>
<path d="M1907,990 l60,0 l0,60 l-60,0 z" fill="green"/>
<path d="M1937,1020 l-103.5,-423.5" stroke="black" stroke-width="5"/>
<path d="M5177,4151 l60,0 l0,60 l-60,0 z" fill="green"/>
<path d="M5207,4181 l-50,-436" stroke="black" stroke-width="5"/>
<path d="M8657,6761 l60,0 l0,60 l-60,0 z" fill="green"/>
<path d="M8687,6791 l-293,-297" stroke="black" stroke-width="5"/>
<path d="M180,9416 l60,0 l0,60 l-60,0 z" fill="green"/>
<path d="M210,9446 l678.5,99.5" stroke="black" stroke-width="5"/>
<path d="M5262,1550 l60,0 l0,60 l-60,0 z" fill="green"/>
<path d="M5292,1580 l-1017.5,-315" stroke="black" stroke-width="5"/>
<path d="M8473,5455 l60,0 l0,60 l-60,0 z" fill="green"/>
<path d="M8503,5485 l-184,153" stroke="black" stroke-width="5"/>
<path d="M9304,9279 l60,0 l0,60 l-60,0 z" fill="green"/>
<path d="M9334,9309 l-5.5,-931" stroke="black" stroke-width="5"/>
<path d="M7717,318 l60,0 l0,60 l-60,0 z" fill="green"/>
<path d="M7747,348 l-147,-171.5" stroke="black" stroke-width="5"/>
<path d="M4506,5358 l60,0 l0,60 l-60,0 z" fill="green"/>
<path d="M4536,5388 l-1781.5,-7" stroke="black" stroke-width="5"/>
<path d="M7836,9699 l60,0 l0,60 l-60,0 z" fill="green"/>
<path d="M7866,9729 l-49,-545" stroke="black" stroke-width="5"/>
<path d="M518,9016 l60,0 l0,60 l-60,0 z" fill="green"/>
<path d="M548,9046 l-273.5,-2577" stroke="black" stroke-width="5"/>
<path d="M7734,584 l60,0 l0,60 l-60,0 z" fill="green"/>
<path d="M7764,614 l-93.5,80" stroke="black" stroke-width="5"/>
<path d="M7939,2153 l60,0 l0,60 l-60,0 z" fill="green"/>
<path d="M7969,2183 l172,-904.5" stroke="black" stroke-width="5"/>
<path d="M636,6747 l60,0 l0,60 l-60,0 z" fill="green"/>
<path d="M666,6777 l1637,122.5" stroke="black" stroke-width="5"/>
<path d="M1145,905 l60,0 l0,60 l-60,0 z" fill="green"/>
<path d="M1175,935 l73,-334.5" stroke="black" stroke-width="5"/>
<path d="M4292,6345 l60,0 l0,60 l-60,0 z" fill="green"/>
<path d="M4322,6375 l-127.5,1479.5" stroke="black" stroke-width="5"/>
<path d="M2403,7590 l60,0 l0,60 l-60,0 z" fill="green"/>
<path d="M2433,7620 l305,-178.5" stroke="black" stroke-width="5"/>
<path d="M1889,2661 l60,0 l0,60 l-60,0 z" fill="green"/>
<path d="M1919,2691 l1096,-454.5" stroke="black" stroke-width="5"/>
<path d="M6191,2319 l60,0 l0,60 l-60,0 z" fill="green"/>
<path d="M6221,2349 l726,-46" stroke="black" stroke-width="5"/>
<path d="M1064,4470 l60,0 l0,60 l-60,0 z" fill="green"/>
<path d="M1094,4500 l-223.5,-33.5" stroke="black" stroke-width="5"/>
<path d="M5783,5053 l60,0 l0,60 l-60,0 z" fill="green"/>
<path d="M5813,5083 l-81.5,-600" stroke="black" stroke-width="5"/>
<path d="M4137,3909 l60,0 l0,60 l-60,0 z" fill="green"/>
<path d="M4167,3939 l-368.5,-116" stroke="black" stroke-width="5"/>
<path d="M2087,7995 l60,0 l0,60 l-60,0 z" fill="green"/>
<path d="M2117,8025 l139,214" stroke="black" stroke-width="5"/>
<path d="M586,8288 l60,0 l0,60 l-60,0 z" fill="green"/>
<path d="M616,8318 l613.5,-36" stroke="black" stroke-width="5"/>
<path d="M659,9965 l60,0 l0,60 l-60,0 z" fill="green"/>
<path d="M689,9995 l199.5,-172" stroke="black" stroke-width="5"/>
<path d="M781,5852 l60,0 l0,60 l-60,0 z" fill="green"/>
<path d="M811,5882 l-113.5,45" stroke="black" stroke-width="5"/>
<path d="M8602,5409 l60,0 l0,60 l-60,0 z" fill="green"/>
<path d="M8632,5439 l641.5,-174" stroke="black" stroke-width="5"/>
<path d="M6200,5042 l60,0 l0,60 l-60,0 z" fill="green"/>
<path d="M6230,5072 l355.5,722.5" stroke="black" stroke-width="5"/>
<path d="M8043,4235 l60,0 l0,60 l-60,0 z" fill="green"/>
<path d="M8073,4265 l-294.5,521" stroke="black" stroke-width="5"/>
<path d="M6622,4585 l60,0 l0,60 l-60,0 z" fill="green"/>
<path d="M6652,4615 l398.5,185.5" stroke="black" stroke-width="5"/>
<path d="M9301,5612 l60,0 l0,60 l-60,0 z" fill="green"/>
<path d="M9331,5642 l238.5,902" stroke="black" stroke-width="5"/>
<path d="M2771,4279 l60,0 l0,60 l-60,0 z" fill="green"/>
<path d="M2801,4309 l-147,187.5" stroke="black" stroke-width="5"/>
<path d="M766,8532 l60,0 l0,60 l-60,0 z" fill="green"/>
<path d="M796,8562 l270.5,235" stroke="black" stroke-width="5"/>
<path d="M2790,4045 l60,0 l0,60 l-60,0 z" fill="green"/>
<path d="M2820,4075 l-133.5,-148.5" stroke="black" stroke-width="5"/>
<path d="M5210,2274 l60,0 l0,60 l-60,0 z" fill="green"/>
<path d="M5240,2304 l195,-343" stroke="black" stroke-width="5"/>
<text font-size="140.71950894605837" text-anchor="middle" x="4340" y="3220.7518281311204">
0
</text>
<text font-size="140.71950894605837" text-anchor="middle" x="1952.5" y="3636.2518281311204">
1
</text>
<text font-size="140.71950894605837" text-anchor="middle" x="7353.5" y="1522.7518281311204">
2
</text>
<text font-size="140.71950894605837" text-anchor="middle" x="2760" y="5258.25182813112">
3
</text>
<text font-size="140.71950894605837" text-anchor="middle" x="5618.5" y="6253.25182813112">
4
</text>
<text font-size="140.71950894605837" text-anchor="middle" x="1082" y="2281.7518281311204">
5
</text>
<text font-size="140.71950894605837" text-anchor="middle" x="6551" y="9710.25182813112">
6
</text>
<text font-size="140.71950894605837" text-anchor="middle" x="727" y="7980.25182813112">
7
</text>
<text font-size="140.71950894605837" text-anchor="middle" x="2054.5" y="1354.7518281311204">
8
</text>
<text font-size="140.71950894605837" text-anchor="middle" x="5982.5" y="1898.7518281311204">
9
</text>
<text font-size="140.71950894605837" text-anchor="middle" x="2707.5" y="9424.25182813112">
10
</text>
<text font-size="140.71950894605837" text-anchor="middle" x="9956.5" y="8131.25182813112">
11
</text>
<text font-size="140.71950894605837" text-anchor="middle" x="2523" y="559.2518281311204">
12
</text>
<text font-size="140.71950894605837" text-anchor="middle" x="482.5" y="603.2518281311204">
13
</text>
<text font-size="140.71950894605837" text-anchor="middle" x="361.5" y="1987.7518281311204">
14
</text>
<text font-size="140.71950894605837" text-anchor="middle" x="9579" y="3839.2518281311204">
15
</text>
<text font-size="140.71950894605837" text-anchor="middle" x="888.5" y="9295.75182813112">
16
</text>
<text font-size="140.71950894605837" text-anchor="middle" x="6917.5" y="3580.7518281311204">
17
</text>
<text font-size="140.71950894605837" text-anchor="middle" x="5157" y="5824.75182813112">
18
</text>
<text font-size="140.71950894605837" text-anchor="middle" x="3937" y="751.7518281311204">
19
</text>
<text font-size="140.71950894605837" text-anchor="middle" x="2094" y="4654.75182813112">
20
</text>
<text font-size="140.71950894605837" text-anchor="middle" x="3062" y="8292.25182813112">
21
</text>
<text font-size="140.71950894605837" text-anchor="middle" x="7776.5" y="6856.25182813112">
22
</text>
<text font-size="140.71950894605837" text-anchor="middle" x="7330" y="3465.2518281311204">
23
</text>
<text font-size="140.71950894605837" text-anchor="middle" x="9296.5" y="2626.7518281311204">
24
</text>
<text font-size="140.71950894605837" text-anchor="middle" x="7733.5" y="2911.7518281311204">
25
</text>
<text font-size="140.71950894605837" text-anchor="middle" x="8849" y="4662.75182813112">
26
</text>
<text font-size="140.71950894605837" text-anchor="middle" x="3727" y="8566.25182813112">
27
</text>
<text font-size="140.71950894605837" text-anchor="middle" x="7003" y="9433.75182813112">
28
</text>
<text font-size="140.71950894605837" text-anchor="middle" x="1855.5" y="4039.2518281311204">
29
</text>
<text font-size="140.71950894605837" text-anchor="middle" x="5345" y="8660.25182813112">
30
</text>
<text font-size="140.71950894605837" text-anchor="middle" x="6659" y="6832.25182813112">
31
</text>
<text font-size="140.71950894605837" text-anchor="middle" x="9138.5" y="9704.25182813112">
32
</text>
<text font-size="140.71950894605837" text-anchor="middle" x="8849" y="3564.2518281311204">
33
</text>
<text font-size="140.71950894605837" text-anchor="middle" x="8316" y="3949.2518281311204">
34
</text>
<text font-size="140.71950894605837" text-anchor="middle" x="3133" y="4289.75182813112">
35
</text>
<text font-size="140.71950894605837" text-anchor="middle" x="4561" y="4340.75182813112">
36
</text>
<text font-size="140.71950894605837" text-anchor="middle" x="2136.5" y="3205.2518281311204">
37
</text>
<text font-size="140.71950894605837" text-anchor="middle" x="1596.5" y="4904.25182813112">
38
</text>
<text font-size="140.71950894605837" text-anchor="middle" x="2316.5" y="5916.75182813112">
39
</text>
<text font-size="140.71950894605837" text-anchor="middle" x="8916.5" y="6593.25182813112">
40
</text>
<text font-size="140.71950894605837" text-anchor="middle" x="5445.5" y="7638.25182813112">
41
</text>
<text font-size="140.71950894605837" text-anchor="middle" x="4588" y="2583.2518281311204">
42
</text>
<text font-size="140.71950894605837" text-anchor="middle" x="9928.5" y="1395.2518281311204">
43
</text>
<text font-size="140.71950894605837" text-anchor="middle" x="509.5" y="3450.2518281311204">
44
</text>
<text font-size="140.71950894605837" text-anchor="middle" x="2575.5" y="6497.25182813112">
45
</text>
<text font-size="140.71950894605837" text-anchor="middle" x="8588.5" y="8432.25182813112">
46
</text>
<text font-size="140.71950894605837" text-anchor="middle" x="9251" y="392.2518281311204">
47
</text>
<text font-size="140.71950894605837" text-anchor="middle" x="7000.5" y="1972.2518281311204">
48
</text>
<text font-size="140.71950894605837" text-anchor="middle" x="3884" y="3222.7518281311204">
49
</text>
<text font-size="140.71950894605837" text-anchor="middle" x="6369" y="3850.7518281311204">
50
</text>
<text font-size="140.71950894605837" text-anchor="middle" x="6460.5" y="1791.2518281311204">
51
</text>
<text font-size="140.71950894605837" text-anchor="middle" x="4844.5" y="268.2518281311204">
52
</text>
<text font-size="140.71950894605837" text-anchor="middle" x="9089" y="1599.2518281311204">
53
</text>
<text font-size="140.71950894605837" text-anchor="middle" x="6355" y="671.7518281311204">
54
</text>
<text font-size="140.71950894605837" text-anchor="middle" x="5442" y="1411.2518281311204">
55
</text>
<text font-size="140.71950894605837" text-anchor="middle" x="5714" y="3615.2518281311204">
56
</text>
<text font-size="140.71950894605837" text-anchor="middle" x="4435.5" y="5960.25182813112">
57
</text>
<text font-size="140.71950894605837" text-anchor="middle" x="7050.5" y="8693.75182813112">
58
</text>
<text font-size="140.71950894605837" text-anchor="middle" x="5299" y="2853.7518281311204">
59
</text>
<text font-size="140.71950894605837" text-anchor="middle" x="7264" y="5843.75182813112">
60
</text>
<text font-size="140.71950894605837" text-anchor="middle" x="6192" y="8062.25182813112">
61
</text>
<text font-size="140.71950894605837" text-anchor="middle" x="7498" y="7757.75182813112">
62
</text>
<text font-size="140.71950894605837" text-anchor="middle" x="5133.5" y="9751.25182813112">
63
</text>
<text font-size="140.71950894605837" text-anchor="middle" x="3847" y="4662.75182813112">
64
</text>
<text font-size="140.71950894605837" text-anchor="middle" x="3335" y="3088.7518281311204">
65
</text>
<text font-size="140.71950894605837" text-anchor="middle" x="1833.5" y="645.7518281311204">
66
</text>
<text font-size="140.71950894605837" text-anchor="middle" x="5157" y="3794.2518281311204">
67
</text>
<text font-size="140.71950894605837" text-anchor="middle" x="8394" y="6543.25182813112">
68
</text>
<text font-size="140.71950894605837" text-anchor="middle" x="888.5" y="9594.75182813112">
69
</text>
<text font-size="140.71950894605837" text-anchor="middle" x="4274.5" y="1314.2518281311204">
70
</text>
<text font-size="140.71950894605837" text-anchor="middle" x="8319" y="5687.25182813112">
71
</text>
<text font-size="140.71950894605837" text-anchor="middle" x="9328.5" y="8427.25182813112">
72
</text>
<text font-size="140.71950894605837" text-anchor="middle" x="7600" y="225.75182813112042">
73
</text>
<text font-size="140.71950894605837" text-anchor="middle" x="2754.5" y="5430.25182813112">
74
</text>
<text font-size="140.71950894605837" text-anchor="middle" x="7817" y="9233.25182813112">
75
</text>
<text font-size="140.71950894605837" text-anchor="middle" x="274.5" y="6518.25182813112">
76
</text>
<text font-size="140.71950894605837" text-anchor="middle" x="7670.5" y="743.2518281311204">
77
</text>
<text font-size="140.71950894605837" text-anchor="middle" x="8141" y="1327.7518281311204">
78
</text>
<text font-size="140.71950894605837" text-anchor="middle" x="2303" y="6948.75182813112">
79
</text>
<text font-size="140.71950894605837" text-anchor="middle" x="1248" y="649.7518281311204">
80
</text>
<text font-size="140.71950894605837" text-anchor="middle" x="4194.5" y="7903.75182813112">
81
</text>
<text font-size="140.71950894605837" text-anchor="middle" x="2738" y="7490.75182813112">
82
</text>
<text font-size="140.71950894605837" text-anchor="middle" x="3015" y="2285.7518281311204">
83
</text>
<text font-size="140.71950894605837" text-anchor="middle" x="6947" y="2352.2518281311204">
84
</text>
<text font-size="140.71950894605837" text-anchor="middle" x="870.5" y="4515.75182813112">
85
</text>
<text font-size="140.71950894605837" text-anchor="middle" x="5731.5" y="4532.25182813112">
86
</text>
<text font-size="140.71950894605837" text-anchor="middle" x="3798.5" y="3872.2518281311204">
87
</text>
<text font-size="140.71950894605837" text-anchor="middle" x="2256" y="8288.25182813112">
88
</text>
<text font-size="140.71950894605837" text-anchor="middle" x="1229.5" y="8331.25182813112">
89
</text>
<text font-size="140.71950894605837" text-anchor="middle" x="888.5" y="9872.25182813112">
90
</text>
<text font-size="140.71950894605837" text-anchor="middle" x="697.5" y="5976.25182813112">
91
</text>
<text font-size="140.71950894605837" text-anchor="middle" x="9273.5" y="5314.25182813112">
92
</text>
<text font-size="140.71950894605837" text-anchor="middle" x="6585.5" y="5843.75182813112">
93
</text>
<text font-size="140.71950894605837" text-anchor="middle" x="7778.5" y="4835.25182813112">
94
</text>
<text font-size="140.71950894605837" text-anchor="middle" x="7050.5" y="4849.75182813112">
95
</text>
<text font-size="140.71950894605837" text-anchor="middle" x="9569.5" y="6593.25182813112">
96
</text>
<text font-size="140.71950894605837" text-anchor="middle" x="2654" y="4545.75182813112">
97
</text>
<text font-size="140.71950894605837" text-anchor="middle" x="1066.5" y="8846.25182813112">
98
</text>
<text font-size="140.71950894605837" text-anchor="middle" x="2686.5" y="3975.7518281311204">
99
</text>
<text font-size="140.71950894605837" text-anchor="middle" x="5435" y="2010.2518281311204">
100
</text>
</svg>