<svg viewBox="0 0 10000 10000" xmlns="http://www.w3.org/2000/svg">
<path d="M0,0 l10000,0 l0,10000 l-10000,0 z" fill="white"/>
<path d="M4116,2748 l361,0 l0,522 l-361,0 z" fill="#ff00fe" stroke="black" stroke-width="5"/>
<path d="M1145,3571 l607,0 l0,852 l-607,0 z" fill="#ff00fe" stroke="black" stroke-width="5"/>
<path d="M7096,1204 l462,0 l0,557 l-462,0 z" fill="#ff00fe" stroke="black" stroke-width="5"/>
<path d="M3352,4709 l1322,0 l0,596 l-1322,0 z" fill="#fc00ff" stroke="black" stroke-width="5"/>
<path d="M5426,5138 l432,0 l0,2381 l-432,0 z" fill="#ff00fe" stroke="black" stroke-width="5"/>
<path d="M809,1695 l875,0 l0,1219 l-875,0 z" fill="#fe00ff" stroke="black" stroke-width="5"/>
<path d="M6445,8661 l83,0 l0,996 l-83,0 z" fill="#ff00fe" stroke="black" stroke-width="5"/>
<path d="M358,7902 l215,0 l0,253 l-215,0 z" fill="#ff00fe" stroke="black" stroke-width="5"/>
<path d="M0,956 l1625,0 l0,739 l-1625,0 z" fill="#fe00ff" stroke="black" stroke-width="5"/>
<path d="M6033,1779 l127,0 l0,183 l-127,0 z" fill="#ff00fe" stroke="black" stroke-width="5"/>
<path d="M1109,9418 l2273,0 l0,582 l-2273,0 z" fill="#3d00ff" stroke="black" stroke-width="5"/>
<path d="M9191,8004 l733,0 l0,151 l-733,0 z" fill="#ff00fe" stroke="black" stroke-width="5"/>
<path d="M2439,129 l703,0 l0,862 l-703,0 z" fill="#fe00ff" stroke="black" stroke-width="5"/>
<path d="M21,35 l834,0 l0,921 l-834,0 z" fill="#ff00fe" stroke="black" stroke-width="5"/>
<path d="M0,1695 l809,0 l0,1388 l-809,0 z" fill="#ff00fe" stroke="black" stroke-width="5"/>
<path d="M9234,2977 l766,0 l0,2665 l-766,0 z" fill="#c200ff" stroke="black" stroke-width="5"/>
<path d="M212,9149 l3168,0 l0,269 l-3168,0 z" fill="#f700ff" stroke="black" stroke-width="5"/>
<path d="M4480,2703 l2180,0 l0,584 l-2180,0 z" fill="#fa00ff" stroke="black" stroke-width="5"/>
<path d="M4169,3471 l1006,0 l0,1238 l-1006,0 z" fill="#eb00ff" stroke="black" stroke-width="5"/>
<path d="M3580,504 l989,0 l0,599 l-989,0 z" fill="#ff00fe" stroke="black" stroke-width="5"/>
<path d="M1837,4211 l575,0 l0,539 l-575,0 z" fill="#ff00fe" stroke="black" stroke-width="5"/>
<path d="M2480,7761 l1146,0 l0,989 l-1146,0 z" fill="#ff00fe" stroke="black" stroke-width="5"/>
<path d="M7755,6372 l536,0 l0,569 l-536,0 z" fill="#fe00ff" stroke="black" stroke-width="5"/>
<path d="M6686,2660 l873,0 l0,348 l-873,0 z" fill="#ff00fe" stroke="black" stroke-width="5"/>
<path d="M8800,2464 l932,0 l0,233 l-932,0 z" fill="#ff00fe" stroke="black" stroke-width="5"/>
<path d="M7570,2488 l236,0 l0,518 l-236,0 z" fill="#ff00fe" stroke="black" stroke-width="5"/>
<path d="M7632,4441 l1099,0 l0,323 l-1099,0 z" fill="#ff00fe" stroke="black" stroke-width="5"/>
<path d="M3382,9151 l388,0 l0,849 l-388,0 z" fill="#fd00ff" stroke="black" stroke-width="5"/>
<path d="M7354,8892 l659,0 l0,740 l-659,0 z" fill="#fe00ff" stroke="black" stroke-width="5"/>
<path d="M1765,3541 l950,0 l0,670 l-950,0 z" fill="#ff00fe" stroke="black" stroke-width="5"/>
<path d="M5484,8075 l961,0 l0,1567 l-961,0 z" fill="#ff00fe" stroke="black" stroke-width="5"/>
<path d="M5858,6488 l1872,0 l0,459 l-1872,0 z" fill="#fe00ff" stroke="black" stroke-width="5"/>
<path d="M8112,8557 l1060,0 l0,1443 l-1060,0 z" fill="#f600ff" stroke="black" stroke-width="5"/>
<path d="M8732,2697 l502,0 l0,2116 l-502,0 z" fill="#ec00ff" stroke="black" stroke-width="5"/>
<path d="M8084,2463 l648,0 l0,1975 l-648,0 z" fill="#fd00ff" stroke="black" stroke-width="5"/>
<path d="M2805,4259 l546,0 l0,1641 l-546,0 z" fill="#ff00fe" stroke="black" stroke-width="5"/>
<path d="M4675,4710 l500,0 l0,4037 l-500,0 z" fill="#fe00ff" stroke="black" stroke-width="5"/>
<path d="M1166,2920 l1952,0 l0,621 l-1952,0 z" fill="#fe00ff" stroke="black" stroke-width="5"/>
<path d="M1648,4897 l498,0 l0,367 l-498,0 z" fill="#ff00fe" stroke="black" stroke-width="5"/>
<path d="M0,4503 l1646,0 l0,1379 l-1646,0 z" fill="#fe00ff" stroke="black" stroke-width="5"/>
<path d="M7415,5896 l1722,0 l0,471 l-1722,0 z" fill="#fe00ff" stroke="black" stroke-width="5"/>
<path d="M5859,6947 l2432,0 l0,431 l-2432,0 z" fill="#fe00ff" stroke="black" stroke-width="5"/>
<path d="M3169,3294 l1631,0 l0,177 l-1631,0 z" fill="#ff00fe" stroke="black" stroke-width="5"/>
<path d="M9857,0 l143,0 l0,2977 l-143,0 z" fill="#b800ff" stroke="black" stroke-width="5"/>
<path d="M0,3083 l1090,0 l0,899 l-1090,0 z" fill="#ff00fe" stroke="black" stroke-width="5"/>
<path d="M1729,5715 l890,0 l0,897 l-890,0 z" fill="#fe00ff" stroke="black" stroke-width="5"/>
<path d="M8719,7183 l418,0 l0,1374 l-418,0 z" fill="#fe00ff" stroke="black" stroke-width="5"/>
<path d="M8824,17 l912,0 l0,574 l-912,0 z" fill="#ff00fe" stroke="black" stroke-width="5"/>
<path d="M6162,0 l300,0 l0,2019 l-300,0 z" fill="#ff00fe" stroke="black" stroke-width="5"/>
<path d="M3595,2827 l516,0 l0,431 l-516,0 z" fill="#ff00fe" stroke="black" stroke-width="5"/>
<path d="M5990,3287 l662,0 l0,1783 l-662,0 z" fill="#ca00ff" stroke="black" stroke-width="5"/>
<path d="M6462,1682 l96,0 l0,123 l-96,0 z" fill="#ff00fe" stroke="black" stroke-width="5"/>
<path d="M3571,156 l1105,0 l0,288 l-1105,0 z" fill="#ff00fe" stroke="black" stroke-width="5"/>
<path d="M8355,591 l1502,0 l0,1872 l-1502,0 z" fill="#ff00fe" stroke="black" stroke-width="5"/>
<path d="M4676,0 l1486,0 l0,1231 l-1486,0 z" fill="#de00ff" stroke="black" stroke-width="5"/>
<path d="M5295,1327 l54,0 l0,946 l-54,0 z" fill="#ff00fe" stroke="black" stroke-width="5"/>
<path d="M5279,3300 l594,0 l0,528 l-594,0 z" fill="#ff00fe" stroke="black" stroke-width="5"/>
<path d="M3546,5457 l1093,0 l0,857 l-1093,0 z" fill="#ff00fe" stroke="black" stroke-width="5"/>
<path d="M6650,8761 l376,0 l0,525 l-376,0 z" fill="#ff00fe" stroke="black" stroke-width="5"/>
<path d="M5350,1231 l681,0 l0,1472 l-681,0 z" fill="#e400ff" stroke="black" stroke-width="5"/>
<path d="M6998,5062 l407,0 l0,1426 l-407,0 z" fill="#fe00ff" stroke="black" stroke-width="5"/>
<path d="M5582,7783 l972,0 l0,289 l-972,0 z" fill="#ff00fe" stroke="black" stroke-width="5"/>
<path d="M6554,7378 l2165,0 l0,1179 l-2165,0 z" fill="#fb00ff" stroke="black" stroke-width="5"/>
<path d="M3770,9149 l1708,0 l0,851 l-1708,0 z" fill="#e100ff" stroke="black" stroke-width="5"/>
<path d="M3444,4157 l633,0 l0,375 l-633,0 z" fill="#ff00fe" stroke="black" stroke-width="5"/>
<path d="M3311,2783 l167,0 l0,204 l-167,0 z" fill="#ff00fe" stroke="black" stroke-width="5"/>
<path d="M1795,384 l644,0 l0,713 l-644,0 z" fill="#ff00fe" stroke="black" stroke-width="5"/>
<path d="M5175,4026 l79,0 l0,4627 l-79,0 z" fill="#ff00fe" stroke="black" stroke-width="5"/>
<path d="M8291,6370 l844,0 l0,813 l-844,0 z" fill="#ff00fe" stroke="black" stroke-width="5"/>
<path d="M95,6227 l116,0 l0,3220 l-116,0 z" fill="#ff00fe" stroke="black" stroke-width="5"/>
<path d="M1625,1231 l3668,0 l0,352 l-3668,0 z" fill="#fe00ff" stroke="black" stroke-width="5"/>
<path d="M8130,5485 l669,0 l0,411 l-669,0 z" fill="#fe00ff" stroke="black" stroke-width="5"/>
<path d="M9172,8155 l828,0 l0,1845 l-828,0 z" fill="#1b00ff" stroke="black" stroke-width="5"/>
<path d="M7442,0 l332,0 l0,349 l-332,0 z" fill="#ff00fe" stroke="black" stroke-width="5"/>
<path d="M3354,5305 l1320,0 l0,152 l-1320,0 z" fill="#0400ff" stroke="black" stroke-width="5"/>
<path d="M5478,9657 l2634,0 l0,343 l-2634,0 z" fill="#8d00ff" stroke="black" stroke-width="5"/>
<path d="M215,8750 l5269,0 l0,399 l-5269,0 z" fill="#d600ff" stroke="black" stroke-width="5"/>
<path d="M7579,540 l666,0 l0,478 l-666,0 z" fill="#ff00fe" stroke="black" stroke-width="5"/>
<path d="M7569,1366 l734,0 l0,1062 l-734,0 z" fill="#ff00fe" stroke="black" stroke-width="5"/>
<path d="M415,6350 l1307,0 l0,1325 l-1307,0 z" fill="#ff00fe" stroke="black" stroke-width="5"/>
<path d="M1009,250 l492,0 l0,686 l-492,0 z" fill="#ff00fe" stroke="black" stroke-width="5"/>
<path d="M3783,6330 l635,0 l0,1205 l-635,0 z" fill="#ff00fe" stroke="black" stroke-width="5"/>
<path d="M2364,6879 l910,0 l0,882 l-910,0 z" fill="#ff00fe" stroke="black" stroke-width="5"/>
<path d="M1684,1583 l3308,0 l0,1120 l-3308,0 z" fill="#fd00ff" stroke="black" stroke-width="5"/>
<path d="M6049,2020 l1520,0 l0,640 l-1520,0 z" fill="#ff00fe" stroke="black" stroke-width="5"/>
<path d="M89,3983 l1053,0 l0,518 l-1053,0 z" fill="#ff00fe" stroke="black" stroke-width="5"/>
<path d="M5254,3828 l736,0 l0,1310 l-736,0 z" fill="#ab00ff" stroke="black" stroke-width="5"/>
<path d="M2990,3582 l1178,0 l0,512 l-1178,0 z" fill="#ff00fe" stroke="black" stroke-width="5"/>
<path d="M1821,7779 l504,0 l0,836 l-504,0 z" fill="#fe00ff" stroke="black" stroke-width="5"/>
<path d="M577,7740 l1225,0 l0,579 l-1225,0 z" fill="#ff00fe" stroke="black" stroke-width="5"/>
<path d="M0,9447 l1109,0 l0,553 l-1109,0 z" fill="#f500ff" stroke="black" stroke-width="5"/>
<path d="M502,5882 l418,0 l0,432 l-418,0 z" fill="#ff00fe" stroke="black" stroke-width="5"/>
<path d="M7405,4813 l1824,0 l0,672 l-1824,0 z" fill="#fd00ff" stroke="black" stroke-width="5"/>
<path d="M5990,5072 l1008,0 l0,1411 l-1008,0 z" fill="#fe00ff" stroke="black" stroke-width="5"/>
<path d="M6660,3008 l1424,0 l0,1432 l-1424,0 z" fill="#f500ff" stroke="black" stroke-width="5"/>
<path d="M6652,4445 l753,0 l0,614 l-753,0 z" fill="#fe00ff" stroke="black" stroke-width="5"/>
<path d="M9137,5642 l863,0 l0,2362 l-863,0 z" fill="#fc00ff" stroke="black" stroke-width="5"/>
<path d="M2444,4276 l358,0 l0,461 l-358,0 z" fill="#fe00ff" stroke="black" stroke-width="5"/>
<path d="M796,8320 l854,0 l0,422 l-854,0 z" fill="#ff00fe" stroke="black" stroke-width="5"/>
<path d="M2749,3670 l212,0 l0,448 l-212,0 z" fill="#ff00fe" stroke="black" stroke-width="5"/>
<path d="M4999,1669 l287,0 l0,968 l-287,0 z" fill="#ff00fe" stroke="black" stroke-width="5"/>
<path d="M4442,3239 l60,0 l0,60 l-60,0 z" fill="green"/>
<path d="M4472,3269 l-175.5,-260" stroke="black" stroke-width="5"/>
<path d="M1721,3708 l60,0 l0,60 l-60,0 z" fill="green"/>
<path d="M1751,3738 l-302.5,259" stroke="black" stroke-width="5"/>
<path d="M7511,1549 l60,0 l0,60 l-60,0 z" fill="green"/>
<path d="M7541,1579 l-214,-96.5" stroke="black" stroke-width="5"/>
<path d="M4630,5274 l60,0 l0,60 l-60,0 z" fill="green"/>
<path d="M4660,5304 l-647,-297" stroke="black" stroke-width="5"/>
<path d="M5827,5108 l60,0 l0,60 l-60,0 z" fill="green"/>
<path d="M5857,5138 l-215,1190.5" stroke="black" stroke-width="5"/>
<path d="M1308,1763 l60,0 l0,60 l-60,0 z" fill="green"/>
<path d="M1338,1793 l-91.5,511.5" stroke="black" stroke-width="5"/>
<path d="M6423,9626 l60,0 l0,60 l-60,0 z" fill="green"/>
<path d="M6453,9656 l33.5,-497" stroke="black" stroke-width="5"/>
<path d="M542,7988 l60,0 l0,60 l-60,0 z" fill="green"/>
<path d="M572,8018 l-106.5,10.5" stroke="black" stroke-width="5"/>
<path d="M1040,1192 l60,0 l0,60 l-60,0 z" fill="green"/>
<path d="M1070,1222 l-257.5,103.5" stroke="black" stroke-width="5"/>
<path d="M6003,1902 l60,0 l0,60 l-60,0 z" fill="green"/>
<path d="M6033,1932 l63.5,-61.5" stroke="black" stroke-width="5"/>
<path d="M2133,9945 l60,0 l0,60 l-60,0 z" fill="green"/>
<path d="M2163,9975 l82.5,-266" stroke="black" stroke-width="5"/>
<path d="M9887,8124 l60,0 l0,60 l-60,0 z" fill="green"/>
<path d="M9917,8154 l-359.5,-74.5" stroke="black" stroke-width="5"/>
<path d="M2579,839 l60,0 l0,60 l-60,0 z" fill="green"/>
<path d="M2609,869 l181.5,-309" stroke="black" stroke-width="5"/>
<path d="M355,925 l60,0 l0,60 l-60,0 z" fill="green"/>
<path d="M385,955 l53,-459.5" stroke="black" stroke-width="5"/>
<path d="M533,1683 l60,0 l0,60 l-60,0 z" fill="green"/>
<path d="M563,1713 l-158.5,676" stroke="black" stroke-width="5"/>
<path d="M9865,3393 l60,0 l0,60 l-60,0 z" fill="green"/>
<path d="M9895,3423 l-278,886.5" stroke="black" stroke-width="5"/>
<path d="M309,9385 l60,0 l0,60 l-60,0 z" fill="green"/>
<path d="M339,9415 l1457,-131.5" stroke="black" stroke-width="5"/>
<path d="M6605,2936 l60,0 l0,60 l-60,0 z" fill="green"/>
<path d="M6635,2966 l-1065,29" stroke="black" stroke-width="5"/>
<path d="M4977,4352 l60,0 l0,60 l-60,0 z" fill="green"/>
<path d="M5007,4382 l-335,-292" stroke="black" stroke-width="5"/>
<path d="M4508,848 l60,0 l0,60 l-60,0 z" fill="green"/>
<path d="M4538,878 l-463.5,-74.5" stroke="black" stroke-width="5"/>
<path d="M1904,4199 l60,0 l0,60 l-60,0 z" fill="green"/>
<path d="M1934,4229 l190.5,251.5" stroke="black" stroke-width="5"/>
<path d="M2473,8719 l60,0 l0,60 l-60,0 z" fill="green"/>
<path d="M2503,8749 l550,-493.5" stroke="black" stroke-width="5"/>
<path d="M7928,6650 l60,0 l0,60 l-60,0 z" fill="green"/>
<path d="M7958,6680 l65,-23.5" stroke="black" stroke-width="5"/>
<path d="M7170,2901 l60,0 l0,60 l-60,0 z" fill="green"/>
<path d="M7200,2931 l-77.5,-97" stroke="black" stroke-width="5"/>
<path d="M8852,2659 l60,0 l0,60 l-60,0 z" fill="green"/>
<path d="M8882,2689 l384,-108.5" stroke="black" stroke-width="5"/>
<path d="M7602,2974 l60,0 l0,60 l-60,0 z" fill="green"/>
<path d="M7632,3004 l56,-257" stroke="black" stroke-width="5"/>
<path d="M8700,4412 l60,0 l0,60 l-60,0 z" fill="green"/>
<path d="M8730,4442 l-548.5,160.5" stroke="black" stroke-width="5"/>
<path d="M3615,9478 l60,0 l0,60 l-60,0 z" fill="green"/>
<path d="M3645,9508 l-69,67.5" stroke="black" stroke-width="5"/>
<path d="M7326,9567 l60,0 l0,60 l-60,0 z" fill="green"/>
<path d="M7356,9597 l327.5,-335" stroke="black" stroke-width="5"/>
<path d="M1937,3823 l60,0 l0,60 l-60,0 z" fill="green"/>
<path d="M1967,3853 l273,23" stroke="black" stroke-width="5"/>
<path d="M5454,9373 l60,0 l0,60 l-60,0 z" fill="green"/>
<path d="M5484,9403 l480.5,-544.5" stroke="black" stroke-width="5"/>
<path d="M6389,6739 l60,0 l0,60 l-60,0 z" fill="green"/>
<path d="M6419,6769 l375,-51.5" stroke="black" stroke-width="5"/>
<path d="M9141,9932 l60,0 l0,60 l-60,0 z" fill="green"/>
<path d="M9171,9962 l-529,-683.5" stroke="black" stroke-width="5"/>
<path d="M8877,3302 l60,0 l0,60 l-60,0 z" fill="green"/>
<path d="M8907,3332 l76,423" stroke="black" stroke-width="5"/>
<path d="M8509,4261 l60,0 l0,60 l-60,0 z" fill="green"/>
<path d="M8539,4291 l-131,-840.5" stroke="black" stroke-width="5"/>
<path d="M3320,4287 l60,0 l0,60 l-60,0 z" fill="green"/>
<path d="M3350,4317 l-272,762.5" stroke="black" stroke-width="5"/>
<path d="M4783,4886 l60,0 l0,60 l-60,0 z" fill="green"/>
<path d="M4813,4916 l112,1812.5" stroke="black" stroke-width="5"/>
<path d="M1582,2890 l60,0 l0,60 l-60,0 z" fill="green"/>
<path d="M1612,2920 l530,310.5" stroke="black" stroke-width="5"/>
<path d="M1618,4896 l60,0 l0,60 l-60,0 z" fill="green"/>
<path d="M1648,4926 l249,154.5" stroke="black" stroke-width="5"/>
<path d="M814,5536 l60,0 l0,60 l-60,0 z" fill="green"/>
<path d="M844,5566 l-21,-373.5" stroke="black" stroke-width="5"/>
<path d="M9106,5912 l60,0 l0,60 l-60,0 z" fill="green"/>
<path d="M9136,5942 l-860,189.5" stroke="black" stroke-width="5"/>
<path d="M6528,7344 l60,0 l0,60 l-60,0 z" fill="green"/>
<path d="M6558,7374 l517,-211.5" stroke="black" stroke-width="5"/>
<path d="M4621,3439 l60,0 l0,60 l-60,0 z" fill="green"/>
<path d="M4651,3469 l-666.5,-86.5" stroke="black" stroke-width="5"/>
<path d="M9887,2389 l60,0 l0,60 l-60,0 z" fill="green"/>
<path d="M9917,2419 l11.5,-930.5" stroke="black" stroke-width="5"/>
<path d="M888,3854 l60,0 l0,60 l-60,0 z" fill="green"/>
<path d="M918,3884 l-373,-351.5" stroke="black" stroke-width="5"/>
<path d="M1751,6560 l60,0 l0,60 l-60,0 z" fill="green"/>
<path d="M1781,6590 l393,-426.5" stroke="black" stroke-width="5"/>
<path d="M8711,8337 l60,0 l0,60 l-60,0 z" fill="green"/>
<path d="M8741,8367 l187,-497" stroke="black" stroke-width="5"/>
<path d="M9038,527 l60,0 l0,60 l-60,0 z" fill="green"/>
<path d="M9068,557 l212,-253" stroke="black" stroke-width="5"/>
<path d="M6132,1988 l60,0 l0,60 l-60,0 z" fill="green"/>
<path d="M6162,2018 l150,-1008.5" stroke="black" stroke-width="5"/>
<path d="M4045,3121 l60,0 l0,60 l-60,0 z" fill="green"/>
<path d="M4075,3151 l-222,-108.5" stroke="black" stroke-width="5"/>
<path d="M6248,4840 l60,0 l0,60 l-60,0 z" fill="green"/>
<path d="M6278,4870 l43,-691.5" stroke="black" stroke-width="5"/>
<path d="M6441,1741 l60,0 l0,60 l-60,0 z" fill="green"/>
<path d="M6471,1771 l39,-27.5" stroke="black" stroke-width="5"/>
<path d="M4645,244 l60,0 l0,60 l-60,0 z" fill="green"/>
<path d="M4675,274 l-551.5,26" stroke="black" stroke-width="5"/>
<path d="M9826,2432 l60,0 l0,60 l-60,0 z" fill="green"/>
<path d="M9856,2462 l-750,-935" stroke="black" stroke-width="5"/>
<path d="M5817,556 l60,0 l0,60 l-60,0 z" fill="green"/>
<path d="M5847,586 l-428,29.5" stroke="black" stroke-width="5"/>
<path d="M5318,1297 l60,0 l0,60 l-60,0 z" fill="green"/>
<path d="M5348,1327 l-26,473" stroke="black" stroke-width="5"/>
<path d="M5825,3795 l60,0 l0,60 l-60,0 z" fill="green"/>
<path d="M5855,3825 l-279,-261" stroke="black" stroke-width="5"/>
<path d="M4531,5427 l60,0 l0,60 l-60,0 z" fill="green"/>
<path d="M4561,5457 l-468.5,428.5" stroke="black" stroke-width="5"/>
<path d="M6806,8755 l60,0 l0,60 l-60,0 z" fill="green"/>
<path d="M6836,8785 l2,238.5" stroke="black" stroke-width="5"/>
<path d="M5713,2579 l60,0 l0,60 l-60,0 z" fill="green"/>
<path d="M5743,2609 l-52.5,-642" stroke="black" stroke-width="5"/>
<path d="M7106,5199 l60,0 l0,60 l-60,0 z" fill="green"/>
<path d="M7136,5229 l65.5,546" stroke="black" stroke-width="5"/>
<path d="M6523,7790 l60,0 l0,60 l-60,0 z" fill="green"/>
<path d="M6553,7820 l-485,107.5" stroke="black" stroke-width="5"/>
<path d="M8344,8131 l60,0 l0,60 l-60,0 z" fill="green"/>
<path d="M8374,8161 l-737.5,-193.5" stroke="black" stroke-width="5"/>
<path d="M5250,9729 l60,0 l0,60 l-60,0 z" fill="green"/>
<path d="M5280,9759 l-656,-184.5" stroke="black" stroke-width="5"/>
<path d="M3990,4376 l60,0 l0,60 l-60,0 z" fill="green"/>
<path d="M4020,4406 l-259.5,-61.5" stroke="black" stroke-width="5"/>
<path d="M3286,2897 l60,0 l0,60 l-60,0 z" fill="green"/>
<path d="M3316,2927 l78.5,-42" stroke="black" stroke-width="5"/>
<path d="M1907,990 l60,0 l0,60 l-60,0 z" fill="green"/>
<path d="M1937,1020 l180,-279.5" stroke="black" stroke-width="5"/>
<path d="M5177,4151 l60,0 l0,60 l-60,0 z" fill="green"/>
<path d="M5207,4181 l7.5,2158.5" stroke="black" stroke-width="5"/>
<path d="M8657,6761 l60,0 l0,60 l-60,0 z" fill="green"/>
<path d="M8687,6791 l26,-14.5" stroke="black" stroke-width="5"/>
<path d="M180,9416 l60,0 l0,60 l-60,0 z" fill="green"/>
<path d="M210,9446 l-57,-1609" stroke="black" stroke-width="5"/>
<path d="M5262,1550 l60,0 l0,60 l-60,0 z" fill="green"/>
<path d="M5292,1580 l-1833,-173" stroke="black" stroke-width="5"/>
<path d="M8473,5455 l60,0 l0,60 l-60,0 z" fill="green"/>
<path d="M8503,5485 l-38.5,205.5" stroke="black" stroke-width="5"/>
<path d="M9304,9279 l60,0 l0,60 l-60,0 z" fill="green"/>
<path d="M9334,9309 l252,-231.5" stroke="black" stroke-width="5"/>
<path d="M7717,318 l60,0 l0,60 l-60,0 z" fill="green"/>
<path d="M7747,348 l-139,-173.5" stroke="black" stroke-width="5"/>
<path d="M4506,5358 l60,0 l0,60 l-60,0 z" fill="green"/>
<path d="M4536,5388 l-522,-7" stroke="black" stroke-width="5"/>
<path d="M7836,9699 l60,0 l0,60 l-60,0 z" fill="green"/>
<path d="M7866,9729 l-1071,99.5" stroke="black" stroke-width="5"/>
<path d="M518,9016 l60,0 l0,60 l-60,0 z" fill="green"/>
<path d="M548,9046 l2301.5,-96.5" stroke="black" stroke-width="5"/>
<path d="M7734,584 l60,0 l0,60 l-60,0 z" fill="green"/>
<path d="M7764,614 l148,165" stroke="black" stroke-width="5"/>
<path d="M7939,2153 l60,0 l0,60 l-60,0 z" fill="green"/>
<path d="M7969,2183 l-33,-286" stroke="black" stroke-width="5"/>
<path d="M636,6747 l60,0 l0,60 l-60,0 z" fill="green"/>
<path d="M666,6777 l402.5,235.5" stroke="black" stroke-width="5"/>
<path d="M1145,905 l60,0 l0,60 l-60,0 z" fill="green"/>
<path d="M1175,935 l80,-342" stroke="black" stroke-width="5"/>
<path d="M4292,6345 l60,0 l0,60 l-60,0 z" fill="green"/>
<path d="M4322,6375 l-221.5,557.5" stroke="black" stroke-width="5"/>
<path d="M2403,7590 l60,0 l0,60 l-60,0 z" fill="green"/>
<path d="M2433,7620 l386,-300" stroke="black" stroke-width="5"/>
<path d="M1889,2661 l60,0 l0,60 l-60,0 z" fill="green"/>
<path d="M1919,2691 l1419,-548" stroke="black" stroke-width="5"/>
<path d="M6191,2319 l60,0 l0,60 l-60,0 z" fill="green"/>
<path d="M6221,2349 l588,-9" stroke="black" stroke-width="5"/>
<path d="M1064,4470 l60,0 l0,60 l-60,0 z" fill="green"/>
<path d="M1094,4500 l-478.5,-258" stroke="black" stroke-width="5"/>
<path d="M5783,5053 l60,0 l0,60 l-60,0 z" fill="green"/>
<path d="M5813,5083 l-191,-600" stroke="black" stroke-width="5"/>
<path d="M4137,3909 l60,0 l0,60 l-60,0 z" fill="green"/>
<path d="M4167,3939 l-588,-101" stroke="black" stroke-width="5"/>
<path d="M2087,7995 l60,0 l0,60 l-60,0 z" fill="green"/>
<path d="M2117,8025 l-44,172" stroke="black" stroke-width="5"/>
<path d="M586,8288 l60,0 l0,60 l-60,0 z" fill="green"/>
<path d="M616,8318 l573.5,-288.5" stroke="black" stroke-width="5"/>
<path d="M659,9965 l60,0 l0,60 l-60,0 z" fill="green"/>
<path d="M689,9995 l-134.5,-271.5" stroke="black" stroke-width="5"/>
<path d="M781,5852 l60,0 l0,60 l-60,0 z" fill="green"/>
<path d="M811,5882 l-100,216" stroke="black" stroke-width="5"/>
<path d="M8602,5409 l60,0 l0,60 l-60,0 z" fill="green"/>
<path d="M8632,5439 l-315,-290" stroke="black" stroke-width="5"/>
<path d="M6200,5042 l60,0 l0,60 l-60,0 z" fill="green"/>
<path d="M6230,5072 l264,705.5" stroke="black" stroke-width="5"/>
<path d="M8043,4235 l60,0 l0,60 l-60,0 z" fill="green"/>
<path d="M8073,4265 l-701,-541" stroke="black" stroke-width="5"/>
<path d="M6622,4585 l60,0 l0,60 l-60,0 z" fill="green"/>
<path d="M6652,4615 l376.5,137" stroke="black" stroke-width="5"/>
<path d="M9301,5612 l60,0 l0,60 l-60,0 z" fill="green"/>
<path d="M9331,5642 l237.5,1181" stroke="black" stroke-width="5"/>
<path d="M2771,4279 l60,0 l0,60 l-60,0 z" fill="green"/>
<path d="M2801,4309 l-178,197.5" stroke="black" stroke-width="5"/>
<path d="M766,8532 l60,0 l0,60 l-60,0 z" fill="green"/>
<path d="M796,8562 l427,-31" stroke="black" stroke-width="5"/>
<path d="M2790,4045 l60,0 l0,60 l-60,0 z" fill="green"/>
<path d="M2820,4075 l35,-181" stroke="black" stroke-width="5"/>
<path d="M5210,2274 l60,0 l0,60 l-60,0 z" fill="green"/>
<path d="M5240,2304 l-97.5,-151" stroke="black" stroke-width="5"/>
<text font-size="140.71950894605837" text-anchor="middle" x="4296.5" y="3058.2518281311204">
0
</text>
<text font-size="140.71950894605837" text-anchor="middle" x="1448.5" y="4046.2518281311204">
1
</text>
<text font-size="140.71950894605837" text-anchor="middle" x="7327" y="1531.7518281311204">
2
</text>
<text font-size="140.71950894605837" text-anchor="middle" x="4013" y="5056.25182813112">
3
</text>
<text font-size="140.71950894605837" text-anchor="middle" x="5642" y="6377.75182813112">
4
</text>
<text font-size="140.71950894605837" text-anchor="middle" x="1246.5" y="2353.7518281311204">
5
</text>
<text font-size="140.71950894605837" text-anchor="middle" x="6486.5" y="9208.25182813112">
6
</text>
<text font-size="140.71950894605837" text-anchor="middle" x="465.5" y="8077.75182813112">
7
</text>
<text font-size="140.71950894605837" text-anchor="middle" x="812.5" y="1374.7518281311204">
8
</text>
<text font-size="140.71950894605837" text-anchor="middle" x="6096.5" y="1919.7518281311204">
9
</text>
<text font-size="140.71950894605837" text-anchor="middle" x="2245.5" y="9758.25182813112">
10
</text>
<text font-size="140.71950894605837" text-anchor="middle" x="9557.5" y="8128.75182813112">
11
</text>
<text font-size="140.71950894605837" text-anchor="middle" x="2790.5" y="609.2518281311204">
12
</text>
<text font-size="140.71950894605837" text-anchor="middle" x="438" y="544.7518281311204">
13
</text>
<text font-size="140.71950894605837" text-anchor="middle" x="404.5" y="2438.2518281311204">
14
</text>
<text font-size="140.71950894605837" text-anchor="middle" x="9617" y="4358.75182813112">
15
</text>
<text font-size="140.71950894605837" text-anchor="middle" x="1796" y="9332.75182813112">
16
</text>
<text font-size="140.71950894605837" text-anchor="middle" x="5570" y="3044.2518281311204">
17
</text>
<text font-size="140.71950894605837" text-anchor="middle" x="4672" y="4139.25182813112">
18
</text>
<text font-size="140.71950894605837" text-anchor="middle" x="4074.5" y="852.7518281311204">
19
</text>
<text font-size="140.71950894605837" text-anchor="middle" x="2124.5" y="4529.75182813112">
20
</text>
<text font-size="140.71950894605837" text-anchor="middle" x="3053" y="8304.75182813112">
21
</text>
<text font-size="140.71950894605837" text-anchor="middle" x="8023" y="6705.75182813112">
22
</text>
<text font-size="140.71950894605837" text-anchor="middle" x="7122.5" y="2883.2518281311204">
23
</text>
<text font-size="140.71950894605837" text-anchor="middle" x="9266" y="2629.7518281311204">
24
</text>
<text font-size="140.71950894605837" text-anchor="middle" x="7688" y="2796.2518281311204">
25
</text>
<text font-size="140.71950894605837" text-anchor="middle" x="8181.5" y="4651.75182813112">
26
</text>
<text font-size="140.71950894605837" text-anchor="middle" x="3576" y="9624.75182813112">
27
</text>
<text font-size="140.71950894605837" text-anchor="middle" x="7683.5" y="9311.25182813112">
28
</text>
<text font-size="140.71950894605837" text-anchor="middle" x="2240" y="3925.2518281311204">
29
</text>
<text font-size="140.71950894605837" text-anchor="middle" x="5964.5" y="8907.75182813112">
30
</text>
<text font-size="140.71950894605837" text-anchor="middle" x="6794" y="6766.75182813112">
31
</text>
<text font-size="140.71950894605837" text-anchor="middle" x="8642" y="9327.75182813112">
32
</text>
<text font-size="140.71950894605837" text-anchor="middle" x="8983" y="3804.2518281311204">
33
</text>
<text font-size="140.71950894605837" text-anchor="middle" x="8408" y="3499.7518281311204">
34
</text>
<text font-size="140.71950894605837" text-anchor="middle" x="3078" y="5128.75182813112">
35
</text>
<text font-size="140.71950894605837" text-anchor="middle" x="4925" y="6777.75182813112">
36
</text>
<text font-size="140.71950894605837" text-anchor="middle" x="2142" y="3279.7518281311204">
37
</text>
<text font-size="140.71950894605837" text-anchor="middle" x="1897" y="5129.75182813112">
38
</text>
<text font-size="140.71950894605837" text-anchor="middle" x="823" y="5241.75182813112">
39
</text>
<text font-size="140.71950894605837" text-anchor="middle" x="8276" y="6180.75182813112">
40
</text>
<text font-size="140.71950894605837" text-anchor="middle" x="7075" y="7211.75182813112">
41
</text>
<text font-size="140.71950894605837" text-anchor="middle" x="3984.5" y="3431.7518281311204">
42
</text>
<text font-size="140.71950894605837" text-anchor="middle" x="9928.5" y="1537.7518281311204">
43
</text>
<text font-size="140.71950894605837" text-anchor="middle" x="545" y="3581.7518281311204">
44
</text>
<text font-size="140.71950894605837" text-anchor="middle" x="2174" y="6212.75182813112">
45
</text>
<text font-size="140.71950894605837" text-anchor="middle" x="8928" y="7919.25182813112">
46
</text>
<text font-size="140.71950894605837" text-anchor="middle" x="9280" y="353.2518281311204">
47
</text>
<text font-size="140.71950894605837" text-anchor="middle" x="6312" y="1058.7518281311204">
48
</text>
<text font-size="140.71950894605837" text-anchor="middle" x="3853" y="3091.7518281311204">
49
</text>
<text font-size="140.71950894605837" text-anchor="middle" x="6321" y="4227.75182813112">
50
</text>
<text font-size="140.71950894605837" text-anchor="middle" x="6510" y="1792.7518281311204">
51
</text>
<text font-size="140.71950894605837" text-anchor="middle" x="4123.5" y="349.2518281311204">
52
</text>
<text font-size="140.71950894605837" text-anchor="middle" x="9106" y="1576.2518281311204">
53
</text>
<text font-size="140.71950894605837" text-anchor="middle" x="5419" y="664.7518281311204">
54
</text>
<text font-size="140.71950894605837" text-anchor="middle" x="5322" y="1849.2518281311204">
55
</text>
<text font-size="140.71950894605837" text-anchor="middle" x="5576" y="3613.2518281311204">
56
</text>
<text font-size="140.71950894605837" text-anchor="middle" x="4092.5" y="5934.75182813112">
57
</text>
<text font-size="140.71950894605837" text-anchor="middle" x="6838" y="9072.75182813112">
58
</text>
<text font-size="140.71950894605837" text-anchor="middle" x="5690.5" y="2016.2518281311204">
59
</text>
<text font-size="140.71950894605837" text-anchor="middle" x="7201.5" y="5824.25182813112">
60
</text>
<text font-size="140.71950894605837" text-anchor="middle" x="6068" y="7976.75182813112">
61
</text>
<text font-size="140.71950894605837" text-anchor="middle" x="7636.5" y="8016.75182813112">
62
</text>
<text font-size="140.71950894605837" text-anchor="middle" x="4624" y="9623.75182813112">
63
</text>
<text font-size="140.71950894605837" text-anchor="middle" x="3760.5" y="4393.75182813112">
64
</text>
<text font-size="140.71950894605837" text-anchor="middle" x="3394.5" y="2934.2518281311204">
65
</text>
<text font-size="140.71950894605837" text-anchor="middle" x="2117" y="789.7518281311204">
66
</text>
<text font-size="140.71950894605837" text-anchor="middle" x="5214.5" y="6388.75182813112">
67
</text>
<text font-size="140.71950894605837" text-anchor="middle" x="8713" y="6825.75182813112">
68
</text>
<text font-size="140.71950894605837" text-anchor="middle" x="153" y="7886.25182813112">
69
</text>
<text font-size="140.71950894605837" text-anchor="middle" x="3459" y="1456.2518281311204">
70
</text>
<text font-size="140.71950894605837" text-anchor="middle" x="8464.5" y="5739.75182813112">
71
</text>
<text font-size="140.71950894605837" text-anchor="middle" x="9586" y="9126.75182813112">
72
</text>
<text font-size="140.71950894605837" text-anchor="middle" x="7608" y="223.75182813112042">
73
</text>
<text font-size="140.71950894605837" text-anchor="middle" x="4014" y="5430.25182813112">
74
</text>
<text font-size="140.71950894605837" text-anchor="middle" x="6795" y="9877.75182813112">
75
</text>
<text font-size="140.71950894605837" text-anchor="middle" x="2849.5" y="8998.75182813112">
76
</text>
<text font-size="140.71950894605837" text-anchor="middle" x="7912" y="828.2518281311204">
77
</text>
<text font-size="140.71950894605837" text-anchor="middle" x="7936" y="1946.2518281311204">
78
</text>
<text font-size="140.71950894605837" text-anchor="middle" x="1068.5" y="7061.75182813112">
79
</text>
<text font-size="140.71950894605837" text-anchor="middle" x="1255" y="642.2518281311204">
80
</text>
<text font-size="140.71950894605837" text-anchor="middle" x="4100.5" y="6981.75182813112">
81
</text>
<text font-size="140.71950894605837" text-anchor="middle" x="2819" y="7369.25182813112">
82
</text>
<text font-size="140.71950894605837" text-anchor="middle" x="3338" y="2192.2518281311204">
83
</text>
<text font-size="140.71950894605837" text-anchor="middle" x="6809" y="2389.2518281311204">
84
</text>
<text font-size="140.71950894605837" text-anchor="middle" x="615.5" y="4291.25182813112">
85
</text>
<text font-size="140.71950894605837" text-anchor="middle" x="5622" y="4532.25182813112">
86
</text>
<text font-size="140.71950894605837" text-anchor="middle" x="3579" y="3887.2518281311204">
87
</text>
<text font-size="140.71950894605837" text-anchor="middle" x="2073" y="8246.25182813112">
88
</text>
<text font-size="140.71950894605837" text-anchor="middle" x="1189.5" y="8078.75182813112">
89
</text>
<text font-size="140.71950894605837" text-anchor="middle" x="554.5" y="9772.75182813112">
90
</text>
<text font-size="140.71950894605837" text-anchor="middle" x="711" y="6147.25182813112">
91
</text>
<text font-size="140.71950894605837" text-anchor="middle" x="8317" y="5198.25182813112">
92
</text>
<text font-size="140.71950894605837" text-anchor="middle" x="6494" y="5826.75182813112">
93
</text>
<text font-size="140.71950894605837" text-anchor="middle" x="7372" y="3773.2518281311204">
94
</text>
<text font-size="140.71950894605837" text-anchor="middle" x="7028.5" y="4801.25182813112">
95
</text>
<text font-size="140.71950894605837" text-anchor="middle" x="9568.5" y="6872.25182813112">
96
</text>
<text font-size="140.71950894605837" text-anchor="middle" x="2623" y="4555.75182813112">
97
</text>
<text font-size="140.71950894605837" text-anchor="middle" x="1223" y="8580.25182813112">
98
</text>
<text font-size="140.71950894605837" text-anchor="middle" x="2855" y="3943.2518281311204">
99
</text>
<text font-size="140.71950894605837" text-anchor="middle" x="5142.5" y="2202.2518281311204">
100
</text>
</svg>