<svg viewBox="0 0 10000 10000" xmlns="http://www.w3.org/2000/svg">
<path d="M0,0 l10000,0 l0,10000 l-10000,0 z" fill="white"/>
<path d="M4413,2822 l417,0 l0,452 l-417,0 z" fill="#ff00fe" stroke="black" stroke-width="5"/>
<path d="M63,3584 l1764,0 l0,298 l-1764,0 z" fill="#ff00fe" stroke="black" stroke-width="5"/>
<path d="M7059,1195 l505,0 l0,510 l-505,0 z" fill="#ff00fe" stroke="black" stroke-width="5"/>
<path d="M2545,4915 l2168,0 l0,390 l-2168,0 z" fill="#ff00fe" stroke="black" stroke-width="5"/>
<path d="M5207,5138 l723,0 l0,1385 l-723,0 z" fill="#fe00ff" stroke="black" stroke-width="5"/>
<path d="M890,1792 l971,0 l0,1110 l-971,0 z" fill="#ff00fe" stroke="black" stroke-width="5"/>
<path d="M6453,9631 l377,0 l0,219 l-377,0 z" fill="#ff00fe" stroke="black" stroke-width="5"/>
<path d="M366,7911 l228,0 l0,240 l-228,0 z" fill="#ff00fe" stroke="black" stroke-width="5"/>
<path d="M568,957 l1350,0 l0,835 l-1350,0 z" fill="#fb00ff" stroke="black" stroke-width="5"/>
<path d="M6033,1816 l122,0 l0,191 l-122,0 z" fill="#ff00fe" stroke="black" stroke-width="5"/>
<path d="M1128,9416 l2461,0 l0,584 l-2461,0 z" fill="#4600ff" stroke="black" stroke-width="5"/>
<path d="M9861,8154 l139,0 l0,788 l-139,0 z" fill="#ff00fe" stroke="black" stroke-width="5"/>
<path d="M2602,141 l778,0 l0,787 l-778,0 z" fill="#ff00fe" stroke="black" stroke-width="5"/>
<path d="M51,19 l819,0 l0,937 l-819,0 z" fill="#ff00fe" stroke="black" stroke-width="5"/>
<path d="M0,957 l564,0 l0,1958 l-564,0 z" fill="#fe00ff" stroke="black" stroke-width="5"/>
<path d="M9860,2422 l140,0 l0,5729 l-140,0 z" fill="#2900ff" stroke="black" stroke-width="5"/>
<path d="M213,9245 l5251,0 l0,171 l-5251,0 z" fill="#fc00ff" stroke="black" stroke-width="5"/>
<path d="M6627,2935 l710,0 l0,1514 l-710,0 z" fill="#df00ff" stroke="black" stroke-width="5"/>
<path d="M4022,3940 l1042,0 l0,975 l-1042,0 z" fill="#c100ff" stroke="black" stroke-width="5"/>
<path d="M3531,353 l1086,0 l0,546 l-1086,0 z" fill="#ff00fe" stroke="black" stroke-width="5"/>
<path d="M1674,4082 l529,0 l0,587 l-529,0 z" fill="#ff00fe" stroke="black" stroke-width="5"/>
<path d="M2379,7888 l1315,0 l0,862 l-1315,0 z" fill="#ff00fe" stroke="black" stroke-width="5"/>
<path d="M7509,6263 l735,0 l0,419 l-735,0 z" fill="#ff00fe" stroke="black" stroke-width="5"/>
<path d="M6461,2666 l1142,0 l0,266 l-1142,0 z" fill="#ff00fe" stroke="black" stroke-width="5"/>
<path d="M8623,1861 l261,0 l0,830 l-261,0 z" fill="#fe00ff" stroke="black" stroke-width="5"/>
<path d="M7610,1072 l63,0 l0,1933 l-63,0 z" fill="#ff00fe" stroke="black" stroke-width="5"/>
<path d="M8259,4433 l1593,0 l0,213 l-1593,0 z" fill="#fe00ff" stroke="black" stroke-width="5"/>
<path d="M3589,9417 l571,0 l0,583 l-571,0 z" fill="#fd00ff" stroke="black" stroke-width="5"/>
<path d="M6451,9088 l906,0 l0,540 l-906,0 z" fill="#ff00fe" stroke="black" stroke-width="5"/>
<path d="M1915,3080 l694,0 l0,919 l-694,0 z" fill="#ff00fe" stroke="black" stroke-width="5"/>
<path d="M5464,7817 l949,0 l0,1587 l-949,0 z" fill="#ff00fe" stroke="black" stroke-width="5"/>
<path d="M5212,6523 l1455,0 l0,589 l-1455,0 z" fill="#fe00ff" stroke="black" stroke-width="5"/>
<path d="M8186,9311 l1814,0 l0,689 l-1814,0 z" fill="#d000ff" stroke="black" stroke-width="5"/>
<path d="M8540,2691 l563,0 l0,1742 l-563,0 z" fill="#dd00ff" stroke="black" stroke-width="5"/>
<path d="M8259,0 l281,0 l0,4430 l-281,0 z" fill="#fb00ff" stroke="black" stroke-width="5"/>
<path d="M2920,3075 l680,0 l0,1318 l-680,0 z" fill="#ff00fe" stroke="black" stroke-width="5"/>
<path d="M4737,4916 l469,0 l0,4329 l-469,0 z" fill="#fe00ff" stroke="black" stroke-width="5"/>
<path d="M83,2915 l1832,0 l0,663 l-1832,0 z" fill="#ff00fe" stroke="black" stroke-width="5"/>
<path d="M1552,4832 l486,0 l0,374 l-486,0 z" fill="#fe00ff" stroke="black" stroke-width="5"/>
<path d="M844,5464 l2760,0 l0,856 l-2760,0 z" fill="#ff00fe" stroke="black" stroke-width="5"/>
<path d="M7311,5942 l2543,0 l0,317 l-2543,0 z" fill="#fe00ff" stroke="black" stroke-width="5"/>
<path d="M5206,7113 l1461,0 l0,702 l-1461,0 z" fill="#fe00ff" stroke="black" stroke-width="5"/>
<path d="M3734,3274 l1323,0 l0,218 l-1323,0 z" fill="#ff00fe" stroke="black" stroke-width="5"/>
<path d="M9716,0 l272,0 l0,2420 l-272,0 z" fill="#ff00fe" stroke="black" stroke-width="5"/>
<path d="M204,3884 l793,0 l0,1236 l-793,0 z" fill="#ff00fe" stroke="black" stroke-width="5"/>
<path d="M1696,6321 l1212,0 l0,661 l-1212,0 z" fill="#ff00fe" stroke="black" stroke-width="5"/>
<path d="M8191,8238 l551,0 l0,1046 l-551,0 z" fill="#ff00fe" stroke="black" stroke-width="5"/>
<path d="M8560,185 l751,0 l0,698 l-751,0 z" fill="#ff00fe" stroke="black" stroke-width="5"/>
<path d="M6162,30 l304,0 l0,1989 l-304,0 z" fill="#ff00fe" stroke="black" stroke-width="5"/>
<path d="M3835,2876 l574,0 l0,387 l-574,0 z" fill="#ff00fe" stroke="black" stroke-width="5"/>
<path d="M5815,3830 l812,0 l0,1242 l-812,0 z" fill="#a600ff" stroke="black" stroke-width="5"/>
<path d="M6466,1706 l80,0 l0,148 l-80,0 z" fill="#ff00fe" stroke="black" stroke-width="5"/>
<path d="M3506,68 l1170,0 l0,272 l-1170,0 z" fill="#ff00fe" stroke="black" stroke-width="5"/>
<path d="M9103,2421 l757,0 l0,2012 l-757,0 z" fill="#9000ff" stroke="black" stroke-width="5"/>
<path d="M4676,0 l1486,0 l0,1292 l-1486,0 z" fill="#e800ff" stroke="black" stroke-width="5"/>
<path d="M5343,1292 l786,0 l0,65 l-786,0 z" fill="#ff00fe" stroke="black" stroke-width="5"/>
<path d="M5851,3249 l541,0 l0,580 l-541,0 z" fill="#ff00fe" stroke="black" stroke-width="5"/>
<path d="M3705,5457 l1015,0 l0,916 l-1015,0 z" fill="#fe00ff" stroke="black" stroke-width="5"/>
<path d="M6739,8625 l435,0 l0,454 l-435,0 z" fill="#ff00fe" stroke="black" stroke-width="5"/>
<path d="M5294,1357 l738,0 l0,1558 l-738,0 z" fill="#f900ff" stroke="black" stroke-width="5"/>
<path d="M6924,5153 l387,0 l0,1531 l-387,0 z" fill="#ff00fe" stroke="black" stroke-width="5"/>
<path d="M6429,7820 l238,0 l0,1183 l-238,0 z" fill="#ff00fe" stroke="black" stroke-width="5"/>
<path d="M6667,6684 l1723,0 l0,1495 l-1723,0 z" fill="#fc00ff" stroke="black" stroke-width="5"/>
<path d="M4160,9417 l2291,0 l0,583 l-2291,0 z" fill="#cf00ff" stroke="black" stroke-width="5"/>
<path d="M2936,4398 l1085,0 l0,216 l-1085,0 z" fill="#fe00ff" stroke="black" stroke-width="5"/>
<path d="M3173,2880 l254,0 l0,134 l-254,0 z" fill="#ff00fe" stroke="black" stroke-width="5"/>
<path d="M1923,74 l485,0 l0,947 l-485,0 z" fill="#ff00fe" stroke="black" stroke-width="5"/>
<path d="M5064,2547 l151,0 l0,2369 l-151,0 z" fill="#fe00ff" stroke="black" stroke-width="5"/>
<path d="M8390,6274 l352,0 l0,1939 l-352,0 z" fill="#fe00ff" stroke="black" stroke-width="5"/>
<path d="M109,5746 l102,0 l0,3701 l-102,0 z" fill="#ff00fe" stroke="black" stroke-width="5"/>
<path d="M3991,1293 l1302,0 l0,1009 l-1302,0 z" fill="#fe00ff" stroke="black" stroke-width="5"/>
<path d="M7967,5483 l611,0 l0,454 l-611,0 z" fill="#ff00fe" stroke="black" stroke-width="5"/>
<path d="M8744,6259 l1116,0 l0,3051 l-1116,0 z" fill="#7600ff" stroke="black" stroke-width="5"/>
<path d="M7380,156 l382,0 l0,303 l-382,0 z" fill="#ff00fe" stroke="black" stroke-width="5"/>
<path d="M0,5305 l4737,0 l0,152 l-4737,0 z" fill="#3300ff" stroke="black" stroke-width="5"/>
<path d="M7357,8179 l829,0 l0,1821 l-829,0 z" fill="#f800ff" stroke="black" stroke-width="5"/>
<path d="M216,8750 l4521,0 l0,495 l-4521,0 z" fill="#e300ff" stroke="black" stroke-width="5"/>
<path d="M7436,484 l659,0 l0,483 l-659,0 z" fill="#ff00fe" stroke="black" stroke-width="5"/>
<path d="M7673,1523 l586,0 l0,1331 l-586,0 z" fill="#ff00fe" stroke="black" stroke-width="5"/>
<path d="M223,6354 l1434,0 l0,1209 l-1434,0 z" fill="#ff00fe" stroke="black" stroke-width="5"/>
<path d="M1068,238 l481,0 l0,702 l-481,0 z" fill="#ff00fe" stroke="black" stroke-width="5"/>
<path d="M4002,6375 l704,0 l0,1086 l-704,0 z" fill="#fe00ff" stroke="black" stroke-width="5"/>
<path d="M2347,7119 l1151,0 l0,697 l-1151,0 z" fill="#ff00fe" stroke="black" stroke-width="5"/>
<path d="M1919,1021 l2072,0 l0,1842 l-2072,0 z" fill="#fe00ff" stroke="black" stroke-width="5"/>
<path d="M6114,2023 l1491,0 l0,643 l-1491,0 z" fill="#fe00ff" stroke="black" stroke-width="5"/>
<path d="M1029,3981 l641,0 l0,851 l-641,0 z" fill="#ff00fe" stroke="black" stroke-width="5"/>
<path d="M5215,2915 l600,0 l0,2223 l-600,0 z" fill="#f000ff" stroke="black" stroke-width="5"/>
<path d="M3600,3505 l1383,0 l0,435 l-1383,0 z" fill="#fe00ff" stroke="black" stroke-width="5"/>
<path d="M1668,7807 l614,0 l0,692 l-614,0 z" fill="#ff00fe" stroke="black" stroke-width="5"/>
<path d="M616,7638 l1039,0 l0,681 l-1039,0 z" fill="#ff00fe" stroke="black" stroke-width="5"/>
<path d="M0,9447 l1128,0 l0,553 l-1128,0 z" fill="#f700ff" stroke="black" stroke-width="5"/>
<path d="M384,5640 l448,0 l0,403 l-448,0 z" fill="#ff00fe" stroke="black" stroke-width="5"/>
<path d="M7333,4653 l1300,0 l0,830 l-1300,0 z" fill="#ef00ff" stroke="black" stroke-width="5"/>
<path d="M5930,5072 l994,0 l0,1450 l-994,0 z" fill="#fe00ff" stroke="black" stroke-width="5"/>
<path d="M7337,3005 l922,0 l0,1648 l-922,0 z" fill="#ba00ff" stroke="black" stroke-width="5"/>
<path d="M6628,4449 l705,0 l0,623 l-705,0 z" fill="#fc00ff" stroke="black" stroke-width="5"/>
<path d="M8633,4646 l1227,0 l0,1296 l-1227,0 z" fill="#d400ff" stroke="black" stroke-width="5"/>
<path d="M2500,4228 l393,0 l0,424 l-393,0 z" fill="#ff00fe" stroke="black" stroke-width="5"/>
<path d="M280,8319 l852,0 l0,423 l-852,0 z" fill="#ff00fe" stroke="black" stroke-width="5"/>
<path d="M2650,3810 l255,0 l0,374 l-255,0 z" fill="#ff00fe" stroke="black" stroke-width="5"/>
<path d="M4096,2304 l1145,0 l0,243 l-1145,0 z" fill="#ff00fe" stroke="black" stroke-width="5"/>
<path d="M4442,3239 l60,0 l0,60 l-60,0 z" fill="green"/>
<path d="M4472,3269 l149.5,-221" stroke="black" stroke-width="5"/>
<path d="M1721,3708 l60,0 l0,60 l-60,0 z" fill="green"/>
<path d="M1751,3738 l-806,-5" stroke="black" stroke-width="5"/>
<path d="M7511,1549 l60,0 l0,60 l-60,0 z" fill="green"/>
<path d="M7541,1579 l-229.5,-129" stroke="black" stroke-width="5"/>
<path d="M4630,5274 l60,0 l0,60 l-60,0 z" fill="green"/>
<path d="M4660,5304 l-1031,-194" stroke="black" stroke-width="5"/>
<path d="M5827,5108 l60,0 l0,60 l-60,0 z" fill="green"/>
<path d="M5857,5138 l-288.5,692.5" stroke="black" stroke-width="5"/>
<path d="M1308,1763 l60,0 l0,60 l-60,0 z" fill="green"/>
<path d="M1338,1793 l37.5,554" stroke="black" stroke-width="5"/>
<path d="M6423,9626 l60,0 l0,60 l-60,0 z" fill="green"/>
<path d="M6453,9656 l188.5,84.5" stroke="black" stroke-width="5"/>
<path d="M542,7988 l60,0 l0,60 l-60,0 z" fill="green"/>
<path d="M572,8018 l-92,13" stroke="black" stroke-width="5"/>
<path d="M1040,1192 l60,0 l0,60 l-60,0 z" fill="green"/>
<path d="M1070,1222 l173,152.5" stroke="black" stroke-width="5"/>
<path d="M6003,1902 l60,0 l0,60 l-60,0 z" fill="green"/>
<path d="M6033,1932 l61,-20.5" stroke="black" stroke-width="5"/>
<path d="M2133,9945 l60,0 l0,60 l-60,0 z" fill="green"/>
<path d="M2163,9975 l195.5,-267" stroke="black" stroke-width="5"/>
<path d="M9887,8124 l60,0 l0,60 l-60,0 z" fill="green"/>
<path d="M9917,8154 l13.5,394" stroke="black" stroke-width="5"/>
<path d="M2579,839 l60,0 l0,60 l-60,0 z" fill="green"/>
<path d="M2609,869 l382,-334.5" stroke="black" stroke-width="5"/>
<path d="M355,925 l60,0 l0,60 l-60,0 z" fill="green"/>
<path d="M385,955 l75.5,-467.5" stroke="black" stroke-width="5"/>
<path d="M533,1683 l60,0 l0,60 l-60,0 z" fill="green"/>
<path d="M563,1713 l-281,223" stroke="black" stroke-width="5"/>
<path d="M9865,3393 l60,0 l0,60 l-60,0 z" fill="green"/>
<path d="M9895,3423 l35,1863.5" stroke="black" stroke-width="5"/>
<path d="M309,9385 l60,0 l0,60 l-60,0 z" fill="green"/>
<path d="M339,9415 l2499.5,-84.5" stroke="black" stroke-width="5"/>
<path d="M6605,2936 l60,0 l0,60 l-60,0 z" fill="green"/>
<path d="M6635,2966 l347,726" stroke="black" stroke-width="5"/>
<path d="M4977,4352 l60,0 l0,60 l-60,0 z" fill="green"/>
<path d="M5007,4382 l-464,45.5" stroke="black" stroke-width="5"/>
<path d="M4508,848 l60,0 l0,60 l-60,0 z" fill="green"/>
<path d="M4538,878 l-464,-252" stroke="black" stroke-width="5"/>
<path d="M1904,4199 l60,0 l0,60 l-60,0 z" fill="green"/>
<path d="M1934,4229 l4.5,146.5" stroke="black" stroke-width="5"/>
<path d="M2473,8719 l60,0 l0,60 l-60,0 z" fill="green"/>
<path d="M2503,8749 l533.5,-430" stroke="black" stroke-width="5"/>
<path d="M7928,6650 l60,0 l0,60 l-60,0 z" fill="green"/>
<path d="M7958,6680 l-81.5,-207.5" stroke="black" stroke-width="5"/>
<path d="M7170,2901 l60,0 l0,60 l-60,0 z" fill="green"/>
<path d="M7200,2931 l-168,-132" stroke="black" stroke-width="5"/>
<path d="M8852,2659 l60,0 l0,60 l-60,0 z" fill="green"/>
<path d="M8882,2689 l-128.5,-413" stroke="black" stroke-width="5"/>
<path d="M7602,2974 l60,0 l0,60 l-60,0 z" fill="green"/>
<path d="M7632,3004 l9.5,-965.5" stroke="black" stroke-width="5"/>
<path d="M8700,4412 l60,0 l0,60 l-60,0 z" fill="green"/>
<path d="M8730,4442 l325.5,97.5" stroke="black" stroke-width="5"/>
<path d="M3615,9478 l60,0 l0,60 l-60,0 z" fill="green"/>
<path d="M3645,9508 l229.5,200.5" stroke="black" stroke-width="5"/>
<path d="M7326,9567 l60,0 l0,60 l-60,0 z" fill="green"/>
<path d="M7356,9597 l-452,-239" stroke="black" stroke-width="5"/>
<path d="M1937,3823 l60,0 l0,60 l-60,0 z" fill="green"/>
<path d="M1967,3853 l295,-313.5" stroke="black" stroke-width="5"/>
<path d="M5454,9373 l60,0 l0,60 l-60,0 z" fill="green"/>
<path d="M5484,9403 l454.5,-792.5" stroke="black" stroke-width="5"/>
<path d="M6389,6739 l60,0 l0,60 l-60,0 z" fill="green"/>
<path d="M6419,6769 l-479.5,48.5" stroke="black" stroke-width="5"/>
<path d="M9141,9932 l60,0 l0,60 l-60,0 z" fill="green"/>
<path d="M9171,9962 l-78,-306.5" stroke="black" stroke-width="5"/>
<path d="M8877,3302 l60,0 l0,60 l-60,0 z" fill="green"/>
<path d="M8907,3332 l-85.5,230" stroke="black" stroke-width="5"/>
<path d="M8509,4261 l60,0 l0,60 l-60,0 z" fill="green"/>
<path d="M8539,4291 l-139.5,-2076" stroke="black" stroke-width="5"/>
<path d="M3320,4287 l60,0 l0,60 l-60,0 z" fill="green"/>
<path d="M3350,4317 l-90,-583" stroke="black" stroke-width="5"/>
<path d="M4783,4886 l60,0 l0,60 l-60,0 z" fill="green"/>
<path d="M4813,4916 l158.5,2164.5" stroke="black" stroke-width="5"/>
<path d="M1582,2890 l60,0 l0,60 l-60,0 z" fill="green"/>
<path d="M1612,2920 l-613,326.5" stroke="black" stroke-width="5"/>
<path d="M1618,4896 l60,0 l0,60 l-60,0 z" fill="green"/>
<path d="M1648,4926 l147,93" stroke="black" stroke-width="5"/>
<path d="M814,5536 l60,0 l0,60 l-60,0 z" fill="green"/>
<path d="M844,5566 l1380,326" stroke="black" stroke-width="5"/>
<path d="M9106,5912 l60,0 l0,60 l-60,0 z" fill="green"/>
<path d="M9136,5942 l-553.5,158.5" stroke="black" stroke-width="5"/>
<path d="M6528,7344 l60,0 l0,60 l-60,0 z" fill="green"/>
<path d="M6558,7374 l-621.5,90" stroke="black" stroke-width="5"/>
<path d="M4621,3439 l60,0 l0,60 l-60,0 z" fill="green"/>
<path d="M4651,3469 l-255.5,-86" stroke="black" stroke-width="5"/>
<path d="M9887,2389 l60,0 l0,60 l-60,0 z" fill="green"/>
<path d="M9917,2419 l-65,-1209" stroke="black" stroke-width="5"/>
<path d="M888,3854 l60,0 l0,60 l-60,0 z" fill="green"/>
<path d="M918,3884 l-317.5,618" stroke="black" stroke-width="5"/>
<path d="M1751,6560 l60,0 l0,60 l-60,0 z" fill="green"/>
<path d="M1781,6590 l521,61.5" stroke="black" stroke-width="5"/>
<path d="M8711,8337 l60,0 l0,60 l-60,0 z" fill="green"/>
<path d="M8741,8367 l-274.5,394" stroke="black" stroke-width="5"/>
<path d="M9038,527 l60,0 l0,60 l-60,0 z" fill="green"/>
<path d="M9068,557 l-132.5,-23" stroke="black" stroke-width="5"/>
<path d="M6132,1988 l60,0 l0,60 l-60,0 z" fill="green"/>
<path d="M6162,2018 l152,-993.5" stroke="black" stroke-width="5"/>
<path d="M4045,3121 l60,0 l0,60 l-60,0 z" fill="green"/>
<path d="M4075,3151 l47,-81.5" stroke="black" stroke-width="5"/>
<path d="M6248,4840 l60,0 l0,60 l-60,0 z" fill="green"/>
<path d="M6278,4870 l-57,-419" stroke="black" stroke-width="5"/>
<path d="M6441,1741 l60,0 l0,60 l-60,0 z" fill="green"/>
<path d="M6471,1771 l35,9" stroke="black" stroke-width="5"/>
<path d="M4645,244 l60,0 l0,60 l-60,0 z" fill="green"/>
<path d="M4675,274 l-584,-70" stroke="black" stroke-width="5"/>
<path d="M9826,2432 l60,0 l0,60 l-60,0 z" fill="green"/>
<path d="M9856,2462 l-374.5,965" stroke="black" stroke-width="5"/>
<path d="M5817,556 l60,0 l0,60 l-60,0 z" fill="green"/>
<path d="M5847,586 l-428,60" stroke="black" stroke-width="5"/>
<path d="M5318,1297 l60,0 l0,60 l-60,0 z" fill="green"/>
<path d="M5348,1327 l388,-2.5" stroke="black" stroke-width="5"/>
<path d="M5825,3795 l60,0 l0,60 l-60,0 z" fill="green"/>
<path d="M5855,3825 l266.5,-286" stroke="black" stroke-width="5"/>
<path d="M4531,5427 l60,0 l0,60 l-60,0 z" fill="green"/>
<path d="M4561,5457 l-348.5,458" stroke="black" stroke-width="5"/>
<path d="M6806,8755 l60,0 l0,60 l-60,0 z" fill="green"/>
<path d="M6836,8785 l120.5,67" stroke="black" stroke-width="5"/>
<path d="M5713,2579 l60,0 l0,60 l-60,0 z" fill="green"/>
<path d="M5743,2609 l-80,-473" stroke="black" stroke-width="5"/>
<path d="M7106,5199 l60,0 l0,60 l-60,0 z" fill="green"/>
<path d="M7136,5229 l-18.5,689.5" stroke="black" stroke-width="5"/>
<path d="M6523,7790 l60,0 l0,60 l-60,0 z" fill="green"/>
<path d="M6553,7820 l-5,591.5" stroke="black" stroke-width="5"/>
<path d="M8344,8131 l60,0 l0,60 l-60,0 z" fill="green"/>
<path d="M8374,8161 l-845.5,-729.5" stroke="black" stroke-width="5"/>
<path d="M5250,9729 l60,0 l0,60 l-60,0 z" fill="green"/>
<path d="M5280,9759 l25.5,-50.5" stroke="black" stroke-width="5"/>
<path d="M3990,4376 l60,0 l0,60 l-60,0 z" fill="green"/>
<path d="M4020,4406 l-541.5,100" stroke="black" stroke-width="5"/>
<path d="M3286,2897 l60,0 l0,60 l-60,0 z" fill="green"/>
<path d="M3316,2927 l-16,20" stroke="black" stroke-width="5"/>
<path d="M1907,990 l60,0 l0,60 l-60,0 z" fill="green"/>
<path d="M1937,1020 l228.5,-472.5" stroke="black" stroke-width="5"/>
<path d="M5177,4151 l60,0 l0,60 l-60,0 z" fill="green"/>
<path d="M5207,4181 l-67.5,-449.5" stroke="black" stroke-width="5"/>
<path d="M8657,6761 l60,0 l0,60 l-60,0 z" fill="green"/>
<path d="M8687,6791 l-121,452.5" stroke="black" stroke-width="5"/>
<path d="M180,9416 l60,0 l0,60 l-60,0 z" fill="green"/>
<path d="M210,9446 l-50,-1849.5" stroke="black" stroke-width="5"/>
<path d="M5262,1550 l60,0 l0,60 l-60,0 z" fill="green"/>
<path d="M5292,1580 l-650,217.5" stroke="black" stroke-width="5"/>
<path d="M8473,5455 l60,0 l0,60 l-60,0 z" fill="green"/>
<path d="M8503,5485 l-230.5,225" stroke="black" stroke-width="5"/>
<path d="M9304,9279 l60,0 l0,60 l-60,0 z" fill="green"/>
<path d="M9334,9309 l-32,-1524.5" stroke="black" stroke-width="5"/>
<path d="M7717,318 l60,0 l0,60 l-60,0 z" fill="green"/>
<path d="M7747,348 l-176,-40.5" stroke="black" stroke-width="5"/>
<path d="M4506,5358 l60,0 l0,60 l-60,0 z" fill="green"/>
<path d="M4536,5388 l-2167.5,-7" stroke="black" stroke-width="5"/>
<path d="M7836,9699 l60,0 l0,60 l-60,0 z" fill="green"/>
<path d="M7866,9729 l-94.5,-639.5" stroke="black" stroke-width="5"/>
<path d="M518,9016 l60,0 l0,60 l-60,0 z" fill="green"/>
<path d="M548,9046 l1928.5,-48.5" stroke="black" stroke-width="5"/>
<path d="M7734,584 l60,0 l0,60 l-60,0 z" fill="green"/>
<path d="M7764,614 l1.5,111.5" stroke="black" stroke-width="5"/>
<path d="M7939,2153 l60,0 l0,60 l-60,0 z" fill="green"/>
<path d="M7969,2183 l-3,5.5" stroke="black" stroke-width="5"/>
<path d="M636,6747 l60,0 l0,60 l-60,0 z" fill="green"/>
<path d="M666,6777 l274,181.5" stroke="black" stroke-width="5"/>
<path d="M1145,905 l60,0 l0,60 l-60,0 z" fill="green"/>
<path d="M1175,935 l133.5,-346" stroke="black" stroke-width="5"/>
<path d="M4292,6345 l60,0 l0,60 l-60,0 z" fill="green"/>
<path d="M4322,6375 l32,543" stroke="black" stroke-width="5"/>
<path d="M2403,7590 l60,0 l0,60 l-60,0 z" fill="green"/>
<path d="M2433,7620 l489.5,-152.5" stroke="black" stroke-width="5"/>
<path d="M1889,2661 l60,0 l0,60 l-60,0 z" fill="green"/>
<path d="M1919,2691 l1036,-749" stroke="black" stroke-width="5"/>
<path d="M6191,2319 l60,0 l0,60 l-60,0 z" fill="green"/>
<path d="M6221,2349 l638.5,-4.5" stroke="black" stroke-width="5"/>
<path d="M1064,4470 l60,0 l0,60 l-60,0 z" fill="green"/>
<path d="M1094,4500 l255.5,-93.5" stroke="black" stroke-width="5"/>
<path d="M5783,5053 l60,0 l0,60 l-60,0 z" fill="green"/>
<path d="M5813,5083 l-298,-1056.5" stroke="black" stroke-width="5"/>
<path d="M4137,3909 l60,0 l0,60 l-60,0 z" fill="green"/>
<path d="M4167,3939 l124.5,-216.5" stroke="black" stroke-width="5"/>
<path d="M2087,7995 l60,0 l0,60 l-60,0 z" fill="green"/>
<path d="M2117,8025 l-142,128" stroke="black" stroke-width="5"/>
<path d="M586,8288 l60,0 l0,60 l-60,0 z" fill="green"/>
<path d="M616,8318 l519.5,-339.5" stroke="black" stroke-width="5"/>
<path d="M659,9965 l60,0 l0,60 l-60,0 z" fill="green"/>
<path d="M689,9995 l-125,-271.5" stroke="black" stroke-width="5"/>
<path d="M781,5852 l60,0 l0,60 l-60,0 z" fill="green"/>
<path d="M811,5882 l-203,-40.5" stroke="black" stroke-width="5"/>
<path d="M8602,5409 l60,0 l0,60 l-60,0 z" fill="green"/>
<path d="M8632,5439 l-649,-371" stroke="black" stroke-width="5"/>
<path d="M6200,5042 l60,0 l0,60 l-60,0 z" fill="green"/>
<path d="M6230,5072 l197,725" stroke="black" stroke-width="5"/>
<path d="M8043,4235 l60,0 l0,60 l-60,0 z" fill="green"/>
<path d="M8073,4265 l-275,-436" stroke="black" stroke-width="5"/>
<path d="M6622,4585 l60,0 l0,60 l-60,0 z" fill="green"/>
<path d="M6652,4615 l328.5,145.5" stroke="black" stroke-width="5"/>
<path d="M9301,5612 l60,0 l0,60 l-60,0 z" fill="green"/>
<path d="M9331,5642 l-84.5,-348" stroke="black" stroke-width="5"/>
<path d="M2771,4279 l60,0 l0,60 l-60,0 z" fill="green"/>
<path d="M2801,4309 l-104.5,131" stroke="black" stroke-width="5"/>
<path d="M766,8532 l60,0 l0,60 l-60,0 z" fill="green"/>
<path d="M796,8562 l-90,-31.5" stroke="black" stroke-width="5"/>
<path d="M2790,4045 l60,0 l0,60 l-60,0 z" fill="green"/>
<path d="M2820,4075 l-42.5,-78" stroke="black" stroke-width="5"/>
<path d="M5210,2274 l60,0 l0,60 l-60,0 z" fill="green"/>
<path d="M5240,2304 l-571.5,121.5" stroke="black" stroke-width="5"/>
<text font-size="140.71950894605837" text-anchor="middle" x="4621.5" y="3097.2518281311204">
0
</text>
<text font-size="140.71950894605837" text-anchor="middle" x="945" y="3782.2518281311204">
1
</text>
<text font-size="140.71950894605837" text-anchor="middle" x="7311.5" y="1499.2518281311204">
2
</text>
<text font-size="140.71950894605837" text-anchor="middle" x="3629" y="5159.25182813112">
3
</text>
<text font-size="140.71950894605837" text-anchor="middle" x="5568.5" y="5879.75182813112">
4
</text>
<text font-size="140.71950894605837" text-anchor="middle" x="1375.5" y="2396.2518281311204">
5
</text>
<text font-size="140.71950894605837" text-anchor="middle" x="6641.5" y="9789.75182813112">
6
</text>
<text font-size="140.71950894605837" text-anchor="middle" x="480" y="8080.25182813112">
7
</text>
<text font-size="140.71950894605837" text-anchor="middle" x="1243" y="1423.7518281311204">
8
</text>
<text font-size="140.71950894605837" text-anchor="middle" x="6094" y="1960.7518281311204">
9
</text>
<text font-size="140.71950894605837" text-anchor="middle" x="2358.5" y="9757.25182813112">
10
</text>
<text font-size="140.71950894605837" text-anchor="middle" x="9930.5" y="8597.25182813112">
11
</text>
<text font-size="140.71950894605837" text-anchor="middle" x="2991" y="583.7518281311204">
12
</text>
<text font-size="140.71950894605837" text-anchor="middle" x="460.5" y="536.7518281311204">
13
</text>
<text font-size="140.71950894605837" text-anchor="middle" x="282" y="1985.2518281311204">
14
</text>
<text font-size="140.71950894605837" text-anchor="middle" x="9930" y="5335.75182813112">
15
</text>
<text font-size="140.71950894605837" text-anchor="middle" x="2838.5" y="9379.75182813112">
16
</text>
<text font-size="140.71950894605837" text-anchor="middle" x="6982" y="3741.2518281311204">
17
</text>
<text font-size="140.71950894605837" text-anchor="middle" x="4543" y="4476.75182813112">
18
</text>
<text font-size="140.71950894605837" text-anchor="middle" x="4074" y="675.2518281311204">
19
</text>
<text font-size="140.71950894605837" text-anchor="middle" x="1938.5" y="4424.75182813112">
20
</text>
<text font-size="140.71950894605837" text-anchor="middle" x="3036.5" y="8368.25182813112">
21
</text>
<text font-size="140.71950894605837" text-anchor="middle" x="7876.5" y="6521.75182813112">
22
</text>
<text font-size="140.71950894605837" text-anchor="middle" x="7032" y="2848.2518281311204">
23
</text>
<text font-size="140.71950894605837" text-anchor="middle" x="8753.5" y="2325.2518281311204">
24
</text>
<text font-size="140.71950894605837" text-anchor="middle" x="7641.5" y="2087.7518281311204">
25
</text>
<text font-size="140.71950894605837" text-anchor="middle" x="9055.5" y="4588.75182813112">
26
</text>
<text font-size="140.71950894605837" text-anchor="middle" x="3874.5" y="9757.75182813112">
27
</text>
<text font-size="140.71950894605837" text-anchor="middle" x="6904" y="9407.25182813112">
28
</text>
<text font-size="140.71950894605837" text-anchor="middle" x="2262" y="3588.7518281311204">
29
</text>
<text font-size="140.71950894605837" text-anchor="middle" x="5938.5" y="8659.75182813112">
30
</text>
<text font-size="140.71950894605837" text-anchor="middle" x="5939.5" y="6866.75182813112">
31
</text>
<text font-size="140.71950894605837" text-anchor="middle" x="9093" y="9704.75182813112">
32
</text>
<text font-size="140.71950894605837" text-anchor="middle" x="8821.5" y="3611.2518281311204">
33
</text>
<text font-size="140.71950894605837" text-anchor="middle" x="8399.5" y="2264.2518281311204">
34
</text>
<text font-size="140.71950894605837" text-anchor="middle" x="3260" y="3783.2518281311204">
35
</text>
<text font-size="140.71950894605837" text-anchor="middle" x="4971.5" y="7129.75182813112">
36
</text>
<text font-size="140.71950894605837" text-anchor="middle" x="999" y="3295.7518281311204">
37
</text>
<text font-size="140.71950894605837" text-anchor="middle" x="1795" y="5068.25182813112">
38
</text>
<text font-size="140.71950894605837" text-anchor="middle" x="2224" y="5941.25182813112">
39
</text>
<text font-size="140.71950894605837" text-anchor="middle" x="8582.5" y="6149.75182813112">
40
</text>
<text font-size="140.71950894605837" text-anchor="middle" x="5936.5" y="7513.25182813112">
41
</text>
<text font-size="140.71950894605837" text-anchor="middle" x="4395.5" y="3432.2518281311204">
42
</text>
<text font-size="140.71950894605837" text-anchor="middle" x="9852" y="1259.2518281311204">
43
</text>
<text font-size="140.71950894605837" text-anchor="middle" x="600.5" y="4551.25182813112">
44
</text>
<text font-size="140.71950894605837" text-anchor="middle" x="2302" y="6700.75182813112">
45
</text>
<text font-size="140.71950894605837" text-anchor="middle" x="8466.5" y="8810.25182813112">
46
</text>
<text font-size="140.71950894605837" text-anchor="middle" x="8935.5" y="583.2518281311204">
47
</text>
<text font-size="140.71950894605837" text-anchor="middle" x="6314" y="1073.7518281311204">
48
</text>
<text font-size="140.71950894605837" text-anchor="middle" x="4122" y="3118.7518281311204">
49
</text>
<text font-size="140.71950894605837" text-anchor="middle" x="6221" y="4500.25182813112">
50
</text>
<text font-size="140.71950894605837" text-anchor="middle" x="6506" y="1829.2518281311204">
51
</text>
<text font-size="140.71950894605837" text-anchor="middle" x="4091" y="253.25182813112042">
52
</text>
<text font-size="140.71950894605837" text-anchor="middle" x="9481.5" y="3476.2518281311204">
53
</text>
<text font-size="140.71950894605837" text-anchor="middle" x="5419" y="695.2518281311204">
54
</text>
<text font-size="140.71950894605837" text-anchor="middle" x="5736" y="1373.7518281311204">
55
</text>
<text font-size="140.71950894605837" text-anchor="middle" x="6121.5" y="3588.2518281311204">
56
</text>
<text font-size="140.71950894605837" text-anchor="middle" x="4212.5" y="5964.25182813112">
57
</text>
<text font-size="140.71950894605837" text-anchor="middle" x="6956.5" y="8901.25182813112">
58
</text>
<text font-size="140.71950894605837" text-anchor="middle" x="5663" y="2185.2518281311204">
59
</text>
<text font-size="140.71950894605837" text-anchor="middle" x="7117.5" y="5967.75182813112">
60
</text>
<text font-size="140.71950894605837" text-anchor="middle" x="6548" y="8460.75182813112">
61
</text>
<text font-size="140.71950894605837" text-anchor="middle" x="7528.5" y="7480.75182813112">
62
</text>
<text font-size="140.71950894605837" text-anchor="middle" x="5305.5" y="9757.75182813112">
63
</text>
<text font-size="140.71950894605837" text-anchor="middle" x="3478.5" y="4555.25182813112">
64
</text>
<text font-size="140.71950894605837" text-anchor="middle" x="3300" y="2996.2518281311204">
65
</text>
<text font-size="140.71950894605837" text-anchor="middle" x="2165.5" y="596.7518281311204">
66
</text>
<text font-size="140.71950894605837" text-anchor="middle" x="5139.5" y="3780.7518281311204">
67
</text>
<text font-size="140.71950894605837" text-anchor="middle" x="8566" y="7292.75182813112">
68
</text>
<text font-size="140.71950894605837" text-anchor="middle" x="160" y="7645.75182813112">
69
</text>
<text font-size="140.71950894605837" text-anchor="middle" x="4642" y="1846.7518281311204">
70
</text>
<text font-size="140.71950894605837" text-anchor="middle" x="8272.5" y="5759.25182813112">
71
</text>
<text font-size="140.71950894605837" text-anchor="middle" x="9302" y="7833.75182813112">
72
</text>
<text font-size="140.71950894605837" text-anchor="middle" x="7571" y="356.7518281311204">
73
</text>
<text font-size="140.71950894605837" text-anchor="middle" x="2368.5" y="5430.25182813112">
74
</text>
<text font-size="140.71950894605837" text-anchor="middle" x="7771.5" y="9138.75182813112">
75
</text>
<text font-size="140.71950894605837" text-anchor="middle" x="2476.5" y="9046.75182813112">
76
</text>
<text font-size="140.71950894605837" text-anchor="middle" x="7765.5" y="774.7518281311204">
77
</text>
<text font-size="140.71950894605837" text-anchor="middle" x="7966" y="2237.7518281311204">
78
</text>
<text font-size="140.71950894605837" text-anchor="middle" x="940" y="7007.75182813112">
79
</text>
<text font-size="140.71950894605837" text-anchor="middle" x="1308.5" y="638.2518281311204">
80
</text>
<text font-size="140.71950894605837" text-anchor="middle" x="4354" y="6967.25182813112">
81
</text>
<text font-size="140.71950894605837" text-anchor="middle" x="2922.5" y="7516.75182813112">
82
</text>
<text font-size="140.71950894605837" text-anchor="middle" x="2955" y="1991.2518281311204">
83
</text>
<text font-size="140.71950894605837" text-anchor="middle" x="6859.5" y="2393.7518281311204">
84
</text>
<text font-size="140.71950894605837" text-anchor="middle" x="1349.5" y="4455.75182813112">
85
</text>
<text font-size="140.71950894605837" text-anchor="middle" x="5515" y="4075.7518281311204">
86
</text>
<text font-size="140.71950894605837" text-anchor="middle" x="4291.5" y="3771.7518281311204">
87
</text>
<text font-size="140.71950894605837" text-anchor="middle" x="1975" y="8202.25182813112">
88
</text>
<text font-size="140.71950894605837" text-anchor="middle" x="1135.5" y="8027.75182813112">
89
</text>
<text font-size="140.71950894605837" text-anchor="middle" x="564" y="9772.75182813112">
90
</text>
<text font-size="140.71950894605837" text-anchor="middle" x="608" y="5890.75182813112">
91
</text>
<text font-size="140.71950894605837" text-anchor="middle" x="7983" y="5117.25182813112">
92
</text>
<text font-size="140.71950894605837" text-anchor="middle" x="6427" y="5846.25182813112">
93
</text>
<text font-size="140.71950894605837" text-anchor="middle" x="7798" y="3878.2518281311204">
94
</text>
<text font-size="140.71950894605837" text-anchor="middle" x="6980.5" y="4809.75182813112">
95
</text>
<text font-size="140.71950894605837" text-anchor="middle" x="9246.5" y="5343.25182813112">
96
</text>
<text font-size="140.71950894605837" text-anchor="middle" x="2696.5" y="4489.25182813112">
97
</text>
<text font-size="140.71950894605837" text-anchor="middle" x="706" y="8579.75182813112">
98
</text>
<text font-size="140.71950894605837" text-anchor="middle" x="2777.5" y="4046.2518281311204">
99
</text>
<text font-size="140.71950894605837" text-anchor="middle" x="4668.5" y="2474.7518281311204">
100
</text>
</svg>